<svg xmlns="http://www.w3.org/2000/svg" xmlns:xlink="http://www.w3.org/1999/xlink" viewBox="0 0 437.49 455.73"><defs><style>.cls-1{fill:none;}.cls-2{fill:#a9d6f3;}.cls-3{fill:#ffc6c0;}.cls-4{fill:#1fa4d9;}.cls-5{fill:#106ebf;}.cls-6{fill:#fff;}.cls-7{fill:#002f41;}.cls-8{clip-path:url(#clip-path);}.cls-9{fill:#ed6a38;}.cls-10{fill:#ffd32c;}.cls-11{fill:#f3a03e;}.cls-12{fill:#7aebf3;}.cls-13{fill:#58d6f3;}.cls-14{fill:#9febf3;}.cls-15{clip-path:url(#clip-path-2);}.cls-16{fill:#f2d95d;}</style><clipPath id="clip-path" transform="translate(-23.06 -44.1)"><rect class="cls-1" x="120.46" y="272.76" width="183.58" height="90.34"/></clipPath><clipPath id="clip-path-2" transform="translate(-23.06 -44.1)"><rect class="cls-1" x="280.15" y="323.26" width="69.83" height="39.98"/></clipPath></defs><title>3906013</title><g id="OBJECTS"><path class="cls-2" d="M307.08,337.87c-24.82-11.11-51.8-11.42-78.4-10.11-26.19,1.3-55.57,4.76-76,22.88-9.51,8.42-15.85,21.67-12.53,33.94a18.27,18.27,0,0,0,4.31,8c5.5,5.65,14.39,5.69,22.27,5.53,8.82-.18,51.34-4.66,52,7.32.8,14.92-30.54,1.37-26.87,20.25a16.54,16.54,0,0,0,3.09,7.55c8,9.61,26.9,4.73,37.52,4.86,13.27.16,26.55.08,39.82-.14,10.87-.18,24.31,1.66,34.09-4.22,7.91-4.75,11.28-17.65,3.81-23.07-4.45-3.22-10.48-2.48-15.95-3s-11.87-3.83-11.56-9.31c.21-3.75,3.7-6.59,7.32-7.61s7.45-.71,11.2-1c8.21-.65,16.27-4.47,21.39-10.93s6.95-15.58,4-23.28C323.37,347.15,315.31,341.55,307.08,337.87Z" transform="translate(-23.06 -44.1)"/><path class="cls-2" d="M156,60c56.34-1.31,114.05-2.27,170.93-1.58,20.65.25,99.34-8.46,98.71,27.15-.12,7.16-6.34,13-13.14,15.24s-14.14,1.73-21.29,1.62a184.61,184.61,0,0,0-39.86,3.74c-2.63.53-5.47,1.27-7.07,3.43-2,2.76-1.08,6.92,1.35,9.35s5.92,3.44,9.32,4c9.37,1.42,19-.3,28.37,1.41s19,8.71,18.67,18.19c-.25,7.83-7.37,14-14.89,16.2s-15.52,1.6-23.36,2a90.8,90.8,0,0,0-24.81,4.63c-3.91,1.31-8.4,3.81-8.39,7.94,0,5,6.32,7.1,11.3,7.71a579.85,579.85,0,0,0,78.26,4.22c7.85-.1,15.86-.35,23.36,2S458,194.83,460,202.43c2.43,9.33-3.59,19.24-11.82,24.27S430,233,420.42,233.82c-16.7,1.47-33.46,2.16-50.21,2.82q-113.52,4.49-227.1,7c-27.13.61-54.3,1.14-81.39-.58-8.57-.54-17.37-1.38-25-5.3s-13.92-11.66-13.64-20.24c.26-8.07,6.24-15.09,13.41-18.81S51.87,194,59.9,193.24c17.1-1.65,34.28-2.51,51.45-2.57,9.76,0,20,.09,28.64-4.35s15.06-15.14,11.15-24.08c-4.56-10.42-18.49-11.67-29.84-12.3A206.83,206.83,0,0,1,90,145.78c-7.17-1.53-15.16-4.15-18.17-10.84-3.08-6.85.85-15.28,7.07-19.51s14-5.16,21.56-5.46c10.6-.41,24.07,3.58,34.15,1,7.37-1.9,13.87-9.7,6.22-15.91-3.18-2.58-7.43-3.33-11.49-3.87s-8.3-1-11.75-3.25c-10.68-6.85-6.32-18.37,4-22.44S144.05,60.27,156,60Z" transform="translate(-23.06 -44.1)"/><path class="cls-2" d="M438.71,139.71c10.1-25.11-29-25.34-28.39-3.45.18,6.64,6,12.56,12.59,13.25S436.23,145.88,438.71,139.71Z" transform="translate(-23.06 -44.1)"/><path class="cls-2" d="M62.38,68.52c-3.89.22-7.92.74-11.36,3.38a15.23,15.23,0,0,0-5.54,13.19,13,13,0,0,0,5.67,9.21c4.66,3.1,10.13,2.94,15.38,2.71l13-.55c4.22-.18,8.59-.41,12.44-3A15.67,15.67,0,0,0,98.5,79.64a11.92,11.92,0,0,0-7.74-10.3C82.62,66.69,70.77,68.05,62.38,68.52Z" transform="translate(-23.06 -44.1)"/><path class="cls-3" d="M384.89,266.67s54.06,52.37,57.44,65,4.23,108.11,4.23,108.11l13.79,60H380.76l-8.54-49s-28.72-26.19-32.94-35.48,2.54-32.94,2.54-32.94l-19.43-29.57,9.29-81.93Z" transform="translate(-23.06 -44.1)"/><path class="cls-3" d="M29.38,499.84l14-70.73-2.37-85c.06-11.83,20.07-69.16,22.33-72s29.33-8.85,29.33-8.85l.45,22.52-8.47,5-.21,39.42,76.45,26.86,9.55,4.55s-14.72,15.13-23.21,23c-1.34,40-21.72,60.71-27.93,65.18a495.8,495.8,0,0,0-6.61,50.06Z" transform="translate(-23.06 -44.1)"/><rect class="cls-4" x="61.13" y="155.55" width="318.16" height="175.69" rx="12.15"/><rect class="cls-5" x="83.16" y="167.72" width="274.1" height="151.36" rx="4.16"/><path class="cls-6" d="M209.24,225.18,209,211.29l-18.95,2.6-37.77-14.78a6.72,6.72,0,0,0-8.69,3.81L123,228l-12.68,2.28v14.2a6.57,6.57,0,0,0,.07,2.17l0,.62.13,0a6.69,6.69,0,0,0,4,4.35L164.15,271c3.45,1.35,8.64,1.5,11.59-2.66l32.92-39.95a6.54,6.54,0,0,0,.42-3.16Z" transform="translate(-23.06 -44.1)"/><path class="cls-7" d="M164.34,256.72l-49.8-19.26a6.71,6.71,0,0,1-3.83-8.68l32.77-40.07c2.84-3.51,6.14-4.85,9.6-3.51l51.72,20.05a6.7,6.7,0,0,1,3.84,8.67L175.86,254A10.34,10.34,0,0,1,164.34,256.72Z" transform="translate(-23.06 -44.1)"/><ellipse class="cls-2" cx="135.09" cy="178.37" rx="11.26" ry="9.46"/><path class="cls-6" d="M161.9,179.94,152,222.18a5.22,5.22,0,0,0,4.23,6c5.07,1.12,7.51-.57,8.16-4,1.69-13.23,6.48-42.23,6.48-42.23Z" transform="translate(-23.06 -44.1)"/><circle class="cls-5" cx="147.01" cy="118.67" r="22.24"/><circle class="cls-7" cx="398.13" cy="272.58" r="36.6" transform="translate(-99.19 317.25) rotate(-45)"/><ellipse class="cls-6" cx="398.38" cy="258.62" rx="19.62" ry="15.25" transform="matrix(0.99, -0.15, 0.15, 0.99, -57.91, 19.83)"/><path class="cls-7" d="M396.74,254.13a4.42,4.42,0,0,1,.11-2.24,4.35,4.35,0,0,1,1.63-2.1,5,5,0,0,1,4.57-.61,8.18,8.18,0,0,1,3.81,2.69q2.37,2.74,2.33,4.87a4.25,4.25,0,0,1-1.87,3.47,5.16,5.16,0,0,1-2.44.94,6.85,6.85,0,0,1-2.41-.24,4.54,4.54,0,0,1-.19,2.84A5.39,5.39,0,0,1,400.5,266a6.89,6.89,0,0,1-2.65,1.22,6.1,6.1,0,0,1-2.61.06,6.43,6.43,0,0,1-2.3-1.09,11.56,11.56,0,0,1-2.13-2,10.2,10.2,0,0,1-2.22-3.9,5,5,0,0,1,.3-3.14,6.32,6.32,0,0,1,2.08-2.54,5.49,5.49,0,0,1,2.82-1.14A5.23,5.23,0,0,1,396.74,254.13Zm-2.42,4.26a3,3,0,0,0-1.25,1.84,2.05,2.05,0,0,0,.41,1.79,2.24,2.24,0,0,0,1.72.74,3.45,3.45,0,0,0,2.19-.74,3,3,0,0,0,1.25-1.82,2,2,0,0,0-.42-1.78,2.27,2.27,0,0,0-1.7-.78A3.32,3.32,0,0,0,394.32,258.39Zm6.95-4.75a2.12,2.12,0,0,0-.93,1.4,1.89,1.89,0,0,0,.52,1.56,2,2,0,0,0,1.41.72,2.38,2.38,0,0,0,1.64-.5,2.16,2.16,0,0,0,.94-1.39,1.8,1.8,0,0,0-.46-1.49,2.19,2.19,0,0,0-1.47-.78A2.4,2.4,0,0,0,401.27,253.64Z" transform="translate(-23.06 -44.1)"/><g class="cls-8"><rect class="cls-5" x="139.78" y="306.16" width="66.68" height="102.39" rx="6.59" transform="translate(-130.88 32.63) rotate(-19.18)"/><rect class="cls-6" x="142.7" y="308.97" width="60.83" height="96.78" rx="6.59" transform="translate(-130.88 32.63) rotate(-19.18)"/><polygon class="cls-9" points="160.34 308.59 160.39 308.42 160.2 308.49 147.17 298.99 142.85 314.78 142.66 314.85 142.8 314.96 142.76 315.13 142.94 315.06 155.97 324.56 160.29 308.77 160.49 308.7 160.34 308.59"/><polygon class="cls-9" points="122.18 284.11 122.2 284.02 122.11 284.06 115.32 279.11 113.07 287.33 112.97 287.37 113.04 287.43 113.02 287.52 113.12 287.48 119.9 292.43 122.16 284.2 122.26 284.17 122.18 284.11"/><polygon class="cls-9" points="187.35 340.1 187.37 340.01 187.27 340.04 180.49 335.1 178.23 343.32 178.13 343.36 178.21 343.42 178.18 343.5 178.28 343.47 185.07 348.42 187.32 340.19 187.42 340.15 187.35 340.1"/><rect class="cls-5" x="220.65" y="301.35" width="62.19" height="95.49" rx="6.59" transform="translate(44.56 -84.03) rotate(10.47)"/><rect class="cls-6" x="223.38" y="303.97" width="56.73" height="90.26" rx="6.59" transform="translate(44.56 -84.03) rotate(10.47)"/><path class="cls-7" d="M262.14,348.51c.74-3.05-1.21-6.47-2.45-9.12-.84-1.79-1.7-3.56-2.4-5.41-.22-.56-1.84-4.62-1.42-5a50.87,50.87,0,0,1-9.21,7c-2.38,1.51-5.65,3.29-6.64,6.13-1.68,4.88,0,9.71,7.92,10.5-1.6,2.85-7.24,5.55-7.24,5.55l5.87,1.72.48.14,5.88,1.72s-3.31-5.31-3.12-8.58C256.93,356.7,260.93,353.52,262.14,348.51Z" transform="translate(-23.06 -44.1)"/><path class="cls-7" d="M260.56,384.25c-.32,1.31.52,2.78,1.05,3.92.36.77.73,1.53,1,2.32.09.25.79,2,.61,2.17a21.44,21.44,0,0,1,4-3c1-.65,2.43-1.41,2.85-2.64.72-2.09,0-4.17-3.41-4.51.69-1.23,3.12-2.39,3.12-2.39l-2.52-.74-.21-.06-2.53-.74s1.42,2.29,1.34,3.69C262.8,380.73,261.08,382.09,260.56,384.25Z" transform="translate(-23.06 -44.1)"/><rect class="cls-5" x="177.41" y="281.38" width="66.68" height="102.39" rx="6.59" transform="translate(-87.38 6.77) rotate(-11.96)"/><rect class="cls-6" x="180.33" y="284.18" width="60.83" height="96.78" rx="6.59" transform="translate(-87.38 6.76) rotate(-11.96)"/><path class="cls-9" d="M183.93,293.34A3.19,3.19,0,0,0,181,296a3.19,3.19,0,0,0-3.83-.86c-2.79,1.17.52,4.95,2.1,6.31a19.44,19.44,0,0,0,3.72,2.36l0,.09,0-.06.06,0,0-.08a19.33,19.33,0,0,0,2.09-3.89C185.9,297.92,186.94,293,183.93,293.34Z" transform="translate(-23.06 -44.1)"/><path class="cls-9" d="M215.84,321.41a6.78,6.78,0,0,0-6.4,5.34,6.77,6.77,0,0,0-8.05-2.16c-6,2.26.7,10.56,3.92,13.58a41.68,41.68,0,0,0,7.7,5.33l.05.18.08-.11.13.06,0-.18a41.17,41.17,0,0,0,4.75-8.07C219.64,331.29,222.25,320.93,215.84,321.41Z" transform="translate(-23.06 -44.1)"/><path class="cls-9" d="M238.75,372.92a3.18,3.18,0,0,0,2.91-2.63,3.2,3.2,0,0,0,3.83.87c2.79-1.18-.53-5-2.1-6.32a19.44,19.44,0,0,0-3.72-2.36l0-.09,0,.06-.06,0,0,.09a18.88,18.88,0,0,0-2.09,3.88C236.78,368.35,235.74,373.27,238.75,372.92Z" transform="translate(-23.06 -44.1)"/></g><path class="cls-9" d="M227.66,210.92,207,222.42a3.63,3.63,0,0,0-1.41,4.9l2.47,4.52,27.56-15.37-2.09-3.83A4.32,4.32,0,0,0,227.66,210.92Z" transform="translate(-23.06 -44.1)"/><path class="cls-9" d="M292.34,174.86l-20.63,11.5a3.63,3.63,0,0,0-1.41,4.9l2.47,4.52,27.56-15.37-2.09-3.83A4.32,4.32,0,0,0,292.34,174.86Z" transform="translate(-23.06 -44.1)"/><path class="cls-10" d="M358.32,216.55l-44.23-39.18a11.93,11.93,0,0,0-13.68-1.45L253.5,202.07l-2.56,1.43L204,229.65A12.2,12.2,0,0,0,198,242.11l9.19,58.72a24.51,24.51,0,0,0,2.92,9.82,24.13,24.13,0,0,0,33,9.64,24.48,24.48,0,0,0,12.11-16.87h.11l3.21-27.73,24.43-13.63,2.56-1.42L309.89,247l24.92,12.06.06-.08a24,24,0,0,0,20.58-1.36,24.64,24.64,0,0,0,2.87-41.07Z" transform="translate(-23.06 -44.1)"/><ellipse class="cls-6" cx="207.95" cy="208.15" rx="21.84" ry="22.07"/><ellipse class="cls-6" cx="283.32" cy="166.14" rx="21.84" ry="22.07"/><polygon class="cls-11" points="217.95 199 209.26 203.85 204.47 195.06 198.23 198.54 203.02 207.32 194.33 212.17 197.77 218.48 206.46 213.63 211.26 222.42 217.5 218.94 212.7 210.15 221.4 205.31 217.95 199"/><path class="cls-11" d="M305.52,198.27a5.27,5.27,0,0,1-2,7.12,5.16,5.16,0,0,1-7-2.06,5.27,5.27,0,0,1,2-7.12A5.16,5.16,0,0,1,305.52,198.27Z" transform="translate(-23.06 -44.1)"/><path class="cls-11" d="M316.64,218.66a5.26,5.26,0,0,1-2,7.11,5.15,5.15,0,0,1-7-2.05,5.26,5.26,0,0,1,2-7.12A5.14,5.14,0,0,1,316.64,218.66Z" transform="translate(-23.06 -44.1)"/><path class="cls-11" d="M294,212a5.14,5.14,0,0,1,7,2.06,5.25,5.25,0,0,1-2,7.11,5.15,5.15,0,0,1-7-2A5.28,5.28,0,0,1,294,212Z" transform="translate(-23.06 -44.1)"/><path class="cls-11" d="M314.12,200.78a5.16,5.16,0,0,1,7,2.06,5.26,5.26,0,0,1-2,7.12,5.15,5.15,0,0,1-7-2.06A5.28,5.28,0,0,1,314.12,200.78Z" transform="translate(-23.06 -44.1)"/><path class="cls-7" d="M325.22,283.72,305.12,298a1.91,1.91,0,0,1-.92.34l-.05,0v0a2,2,0,0,1-1.06-.23l-27.3-14.71a1.87,1.87,0,0,1-1-1.76l-.08,0-1.46,30.05a3.9,3.9,0,0,0,2,3.59L299.64,329a9,9,0,0,0,1,.56c2.29,1,2.94.11,4.19-.7l18.61-14a3.8,3.8,0,0,0,1.46-2.85l1-29.33A1.92,1.92,0,0,1,325.22,283.72Z" transform="translate(-23.06 -44.1)"/><path class="cls-6" d="M325.22,283.72,305.12,298a1.91,1.91,0,0,1-2,.12l-27.3-14.71a1.91,1.91,0,0,1-.08-3.33l22-13.26a1.92,1.92,0,0,1,1.9,0L325,280.46A1.93,1.93,0,0,1,325.22,283.72Z" transform="translate(-23.06 -44.1)"/><path class="cls-7" d="M292.6,277.42a4.7,4.7,0,0,1,1,6.82,5.5,5.5,0,0,1-7.39.63,4.59,4.59,0,0,1-1-6.82A5.57,5.57,0,0,1,292.6,277.42Z" transform="translate(-23.06 -44.1)"/><path class="cls-7" d="M314.84,278a4.7,4.7,0,0,1,1,6.82,5.5,5.5,0,0,1-7.39.63,4.58,4.58,0,0,1-1-6.82A5.56,5.56,0,0,1,314.84,278Z" transform="translate(-23.06 -44.1)"/><path class="cls-6" d="M285.3,294.54a3.72,3.72,0,0,1-1.3,5.3,4.35,4.35,0,0,1-5.59-1.76,3.63,3.63,0,0,1,1.29-5.29A4.4,4.4,0,0,1,285.3,294.54Z" transform="translate(-23.06 -44.1)"/><path class="cls-6" d="M299.44,301.79a3.71,3.71,0,0,1-1.29,5.3,4.37,4.37,0,0,1-5.6-1.75,3.63,3.63,0,0,1,1.3-5.3A4.39,4.39,0,0,1,299.44,301.79Z" transform="translate(-23.06 -44.1)"/><path class="cls-6" d="M298.44,316.32a3.71,3.71,0,0,1-1.3,5.29,4.35,4.35,0,0,1-5.59-1.75,3.64,3.64,0,0,1,1.29-5.3A4.4,4.4,0,0,1,298.44,316.32Z" transform="translate(-23.06 -44.1)"/><path class="cls-6" d="M284.92,308.43a3.72,3.72,0,0,1-1.29,5.3A4.36,4.36,0,0,1,278,312a3.62,3.62,0,0,1,1.3-5.29A4.39,4.39,0,0,1,284.92,308.43Z" transform="translate(-23.06 -44.1)"/><path class="cls-6" d="M310.73,305.7a2.44,2.44,0,0,1-3.86-1.31,4.32,4.32,0,0,1,2.13-4.77c1.7-.92,3.42-.35,3.86,1.29A4.71,4.71,0,0,1,310.73,305.7Z" transform="translate(-23.06 -44.1)"/><path class="cls-6" d="M316.85,309.74a2.23,2.23,0,0,1-3.52-1.19,3.94,3.94,0,0,1,1.95-4.34c1.55-.84,3.12-.32,3.51,1.17A4.25,4.25,0,0,1,316.85,309.74Z" transform="translate(-23.06 -44.1)"/><path class="cls-6" d="M322.38,312.7a2,2,0,0,1-3.18-1.08,3.55,3.55,0,0,1,1.76-3.91c1.39-.76,2.81-.29,3.16,1.06A3.84,3.84,0,0,1,322.38,312.7Z" transform="translate(-23.06 -44.1)"/><path class="cls-4" d="M335.51,309.83l-23.44-28.05a2.26,2.26,0,0,1-.32-2.36l-.06-.08-14.75,32.24a4.6,4.6,0,0,0,.59,4.8l20.67,25.73a10.77,10.77,0,0,0,.83,1,5.57,5.57,0,0,0,1.67,1.21l15.83-33.83A2.23,2.23,0,0,1,335.51,309.83Z" transform="translate(-23.06 -44.1)"/><path class="cls-6" d="M366,303.72l-28.25,6.86a2.27,2.27,0,0,1-2.27-.75l-23.44-28.05a2.27,2.27,0,0,1,1.38-3.69l29.93-4.84a2.27,2.27,0,0,1,2.1.78l21.76,26A2.27,2.27,0,0,1,366,303.72Z" transform="translate(-23.06 -44.1)"/><path class="cls-7" d="M366,303.72l-28.25,6.86a2.28,2.28,0,0,1-1.16,0l-.07,0,0,0h0L320.7,344.36c1.13.49,2,.1,3.23-.14l26.48-7.16a4.43,4.43,0,0,0,2.85-2.48l14-31.63A2.23,2.23,0,0,1,366,303.72Z" transform="translate(-23.06 -44.1)"/><path class="cls-7" d="M346.2,286.82a6.26,6.26,0,0,1-2.11,8.94c-3.14,1.7-7.37.41-9.44-2.88s-1.13-7.3,2.11-8.94A7.39,7.39,0,0,1,346.2,286.82Z" transform="translate(-23.06 -44.1)"/><path class="cls-6" d="M312.87,312.46a4.92,4.92,0,0,1-4.2,5.87,5.77,5.77,0,0,1-6-4.91,4.81,4.81,0,0,1,4.2-5.87A5.82,5.82,0,0,1,312.87,312.46Z" transform="translate(-23.06 -44.1)"/><path class="cls-6" d="M329.48,311.61a4.92,4.92,0,0,1-4.19,5.87,5.75,5.75,0,0,1-6-4.9,4.79,4.79,0,0,1,4.19-5.87A5.82,5.82,0,0,1,329.48,311.61Z" transform="translate(-23.06 -44.1)"/><path class="cls-6" d="M340.55,321.43c-2.2.38-3.84-1-3.65-3.13a5.11,5.11,0,0,1,4.43-4.28c2.25-.26,3.89,1.12,3.65,3.1A5.53,5.53,0,0,1,340.55,321.43Z" transform="translate(-23.06 -44.1)"/><path class="cls-6" d="M345.48,328.53a2.63,2.63,0,0,1-3.33-2.85,4.64,4.64,0,0,1,4-3.89c2.05-.24,3.54,1,3.32,2.82A5,5,0,0,1,345.48,328.53Z" transform="translate(-23.06 -44.1)"/><path class="cls-6" d="M350.23,334.19a2.37,2.37,0,0,1-3-2.57,4.18,4.18,0,0,1,3.64-3.52c1.85-.22,3.19.92,3,2.55A4.55,4.55,0,0,1,350.23,334.19Z" transform="translate(-23.06 -44.1)"/><path class="cls-9" d="M293.11,136s12.95-14.08,15.48-14.92,13.52,3.66,13.52,3.66l-8.17,19.71Z" transform="translate(-23.06 -44.1)"/><rect class="cls-6" x="294.18" y="129.19" width="18.13" height="1" transform="translate(-21.71 218.39) rotate(-46.9)"/><path class="cls-9" d="M222.15,142.22l-13,25.91a4.79,4.79,0,0,0,3.35,6.85l11.77,2.36a6.45,6.45,0,0,0,5.59-1.54l33.35-30.21Z" transform="translate(-23.06 -44.1)"/><rect class="cls-6" x="204.86" y="156.36" width="30.93" height="1" transform="translate(-57.57 203.34) rotate(-55.02)"/><path class="cls-7" d="M228.91,112.09s5.35-3.94,8.16-3.38c0,0,2.82,1.13,2.26,7C231.44,114.9,230.6,115.75,228.91,112.09Z" transform="translate(-23.06 -44.1)"/><path class="cls-10" d="M314.32,142.22,215.21,107.3a11.19,11.19,0,0,0-5.68-.32c.84,2,1.48,5.46.8,11.58-1.21,10.83-5.08,19-8.82,22.34a11.6,11.6,0,0,0,6.4,2.47c18.83,1.9,98.44,9.71,103.4,6.73C316.94,146.72,314.32,142.22,314.32,142.22Z" transform="translate(-23.06 -44.1)"/><path class="cls-6" d="M210.33,118.56c.68-6.12,0-9.61-.8-11.58-4.72,1-9.47,5.54-11.59,17.22a23.89,23.89,0,0,0,2.25,15,5.72,5.72,0,0,0,1.32,1.69C205.25,137.53,209.12,129.39,210.33,118.56Z" transform="translate(-23.06 -44.1)"/><path class="cls-9" d="M196.81,123.63s-12.67,9.29-16.33,9.86,1.69-5.35,5.07-7.6,14.36-4.51,14.36-4.51Z" transform="translate(-23.06 -44.1)"/><path class="cls-9" d="M199.91,121.38s-3.66-4.79-2.53-16.33,6.75-11.54,7.6-8.73S199.91,121.38,199.91,121.38Z" transform="translate(-23.06 -44.1)"/><path class="cls-7" d="M203.57,118.85s-6.19-2.54-8.45-.57.57,6.48,6.48,7.61C205,122.23,203.57,118.85,203.57,118.85Z" transform="translate(-23.06 -44.1)"/><path class="cls-9" d="M199.91,121.38s11.54,15.49,15.48,13.52,4-7.89,2-9.3S199.91,121.38,199.91,121.38Z" transform="translate(-23.06 -44.1)"/><path class="cls-9" d="M292.92,90l19.88,1.21a3,3,0,0,1,2.14,5.18l-39.72,38.79a7.85,7.85,0,0,1-7.77,1.9l-19.63-6a5.18,5.18,0,0,1-1.75-9l40.15-29.74A10.9,10.9,0,0,1,292.92,90Z" transform="translate(-23.06 -44.1)"/><path class="cls-6" d="M248.18,128.34l-.62-.78c.41-.32,40.94-31.93,42.79-33.41s18.15-.36,21.38-.11l-.08,1c-7.33-.58-19.42-1.12-20.67-.11C289.12,96.41,248.58,128,248.18,128.34Z" transform="translate(-23.06 -44.1)"/><polygon class="cls-12" points="80.08 225.73 70.93 233.96 76.52 236.95 80.08 225.73"/><polygon class="cls-13" points="70.73 234.43 70.88 252.08 76.35 237.43 70.73 234.43"/><polygon class="cls-12" points="90.14 216.69 80.28 225.56 91.62 222.84 90.14 216.69"/><polygon class="cls-13" points="105.31 221.22 90.63 216.59 92.11 222.75 105.31 221.22"/><polygon class="cls-13" points="71.16 252.78 103.59 252.29 76.8 237.67 71.16 252.78"/><polygon class="cls-13" points="104.14 251.72 105.88 221.65 92.27 223.24 104.14 251.72"/><polygon class="cls-12" points="103.6 251.73 91.82 223.45 77.09 237.26 103.6 251.73"/><polygon class="cls-13" points="80.52 226.01 77.19 236.48 91.06 223.49 80.52 226.01"/><path class="cls-6" d="M128.92,265.25l-.55.07-13.2,1.54-1.48-6.16,0-.15a.25.25,0,1,0-.48.12l0,.13,1.48,6.14-11.34,2.72h0a.26.26,0,0,0-.18.16h0l-3.57,11.22-5.58-3-.08-.05a.25.25,0,0,0-.34.11.24.24,0,0,0,.1.33l.12.07,5.62,3-5.47,14.64-.23.62a.25.25,0,0,0,.15.32H94a.25.25,0,0,0,.23-.16l0-.09,5.64-15.1,26.79,14.62.39.21.12,0a.27.27,0,0,0,.17-.06.25.25,0,0,0,.06-.28l-.2-.48-11.86-28.48,13.61-1.58h0a.25.25,0,0,0,.22-.28A.26.26,0,0,0,128.92,265.25Zm-25.34,4.87,10.53-2.53-13.86,13Zm23.08,25.71-26.51-14.47,14.73-13.8Z" transform="translate(-23.06 -44.1)"/><polygon class="cls-13" points="356.46 94.13 341.94 84.97 340.05 93.6 356.46 94.13"/><polygon class="cls-14" points="341.25 84.88 317.61 91.79 339.35 93.57 341.25 84.88"/><polygon class="cls-13" points="372.42 104.2 356.77 94.32 364.73 108.51 372.42 104.2"/><polygon class="cls-12" points="372.11 126.28 372.74 104.82 365.04 109.14 372.11 126.28"/><polygon class="cls-14" points="316.78 92.42 329.74 135.78 339.19 94.25 316.78 92.42"/><polygon class="cls-13" points="330.72 136.29 371.74 127.2 364.45 109.54 330.72 136.29"/><polygon class="cls-12" points="330.5 135.57 363.98 109.02 339.85 94.49 330.5 135.57"/><polygon class="cls-12" points="356.25 94.82 340.95 94.33 363.65 108.01 356.25 94.82"/><path class="cls-6" d="M396.12,148.34a.36.36,0,0,0-.48-.13l-.16.09-7.69,4.32-8-14.19v0a.38.38,0,0,0-.29-.18h0l-16.41-.52,1.89-8.64,0-.12a.35.35,0,0,0-.27-.42.34.34,0,0,0-.41.27l0,.18-1.91,8.69-21.74-1.78-.9-.07a.34.34,0,0,0-.38.32.49.49,0,0,0,0,.12.34.34,0,0,0,.31.25h.13l22.42,1.84-9.45,41.52-.14.61a.33.33,0,0,0,0,.17.33.33,0,0,0,.15.2.35.35,0,0,0,.4,0l.56-.45,33.72-26.74,7.3,17.66,0,.06a.37.37,0,0,0,.46.19.36.36,0,0,0,.19-.46l-.3-.72-7.08-17.14,7.71-4.32.18-.1A.36.36,0,0,0,396.12,148.34Zm-16.81-9.42,7.39,13.19L364,138.43Zm-25.75,40.75,9.35-41.08L387,153.13Z" transform="translate(-23.06 -44.1)"/><path class="cls-9" d="M119.89,166.23c-.61,11.21-7.32,21.9-22.21,21.27-13.74-.58-21.65-12.34-21.1-23.95s10.7-20.27,22.69-19.33S120.5,155,119.89,166.23Z" transform="translate(-23.06 -44.1)"/><path class="cls-11" d="M120.2,164.22c-.56,10.45-10.61,18.45-22.44,17.89s-21-9.8-20.52-20.62,10.56-18.82,22.45-17.88S120.77,153.78,120.2,164.22Z" transform="translate(-23.06 -44.1)"/><path class="cls-10" d="M117.25,164c-.48,9-9.15,15.94-19.36,15.43S79.76,171,80.2,161.68s9.1-16.22,19.36-15.43S117.74,155,117.25,164Z" transform="translate(-23.06 -44.1)"/><path class="cls-9" d="M99.56,146.25a19,19,0,0,0-14,4.43,19.23,19.23,0,0,1,12.71-3.43C108.53,148,116.46,156,116,165a15.33,15.33,0,0,1-5.41,10.76A15.57,15.57,0,0,0,117.25,164C117.74,155,109.81,147,99.56,146.25Z" transform="translate(-23.06 -44.1)"/><path class="cls-9" d="M146.88,140.41c-.69,12.66-8.27,24.73-25.08,24-15.5-.66-24.43-13.93-23.82-27s12.08-22.89,25.62-21.82S147.56,127.75,146.88,140.41Z" transform="translate(-23.06 -44.1)"/><path class="cls-11" d="M147.23,138.15c-.64,11.79-12,20.83-25.34,20.19s-23.73-11.06-23.16-23.27,11.92-21.25,25.34-20.19S147.87,126.36,147.23,138.15Z" transform="translate(-23.06 -44.1)"/><path class="cls-10" d="M143.9,137.94c-.55,10.2-10.34,18-21.86,17.41s-20.47-9.56-20-20.07,10.29-18.31,21.86-17.42S144.44,127.74,143.9,137.94Z" transform="translate(-23.06 -44.1)"/><path class="cls-9" d="M123.92,117.86a21.41,21.41,0,0,0-15.79,5A21.68,21.68,0,0,1,122.48,119c11.58.88,20.52,9.87,20,20.08a17.33,17.33,0,0,1-6.1,12.15,17.57,17.57,0,0,0,7.55-13.28C144.44,127.74,135.5,118.75,123.92,117.86Z" transform="translate(-23.06 -44.1)"/><g class="cls-15"><ellipse class="cls-9" cx="288.42" cy="314.67" rx="21.96" ry="23.37"/><circle class="cls-16" cx="288.82" cy="312.35" r="21.78"/><circle class="cls-11" cx="288.82" cy="312.35" r="18.78"/><path class="cls-9" d="M311.87,337.67A18.71,18.71,0,0,0,298,343.8a18.78,18.78,0,0,1,26.53,26.54,18.78,18.78,0,0,0-12.65-32.67Z" transform="translate(-23.06 -44.1)"/></g><polygon class="cls-6" points="131.61 34.76 146.25 30.25 144.56 45.46 154.69 42.64 144.56 70.8 142.87 53.91 136.11 57.28 131.61 34.76"/><path class="cls-4" d="M251.43,172.06h40.91s1.89-7.88-3.74-9-8.45,3.94-8.45,3.94,2.26-10.7-8.44-10.13-10.14,9.57-10.14,9.57S250.87,163.61,251.43,172.06Z" transform="translate(-23.06 -44.1)"/><path class="cls-6" d="M236.31,84.78h-40.9s-1.9-7.89,3.74-9,8.44,3.94,8.44,3.94S205.34,69,216,69.57s10.13,9.58,10.13,9.58S236.87,76.33,236.31,84.78Z" transform="translate(-23.06 -44.1)"/><path class="cls-5" d="M341.53,123.07s-10.13-7.88-9-21.4,16.33-13,14.08,1.69c10.7-6.76,17.46-7.88,16.33,3.38C361.7,119.07,341.53,123.07,341.53,123.07Z" transform="translate(-23.06 -44.1)"/><path class="cls-4" d="M275.07,44.36l6.5,7.09a.77.77,0,0,0,.69.25l9.53-1.33a.8.8,0,0,1,.8,1.18l-4.73,8.37a.81.81,0,0,0,0,.74l4.22,8.64a.8.8,0,0,1-.88,1.13l-9.42-1.91a.77.77,0,0,0-.71.2l-6.92,6.68a.8.8,0,0,1-1.35-.48l-1.09-9.56a.8.8,0,0,0-.41-.61l-8.49-4.52a.79.79,0,0,1,0-1.42l8.75-4a.78.78,0,0,0,.45-.59l1.68-9.47A.8.8,0,0,1,275.07,44.36Z" transform="translate(-23.06 -44.1)"/><polygon class="cls-6" points="172.94 140.02 178.61 151.04 183.09 147.53 188.9 160.52 187.8 140.04 182.76 142.6 181.75 134.74 172.94 140.02"/><path class="cls-6" d="M149.7,294.06a18.06,18.06,0,0,1-6.29-14.93c.79-9.43,11.4-9,9.82,1.18,7.47-4.72,12.18-5.5,11.4,2.35C163.77,291.27,149.7,294.06,149.7,294.06Z" transform="translate(-23.06 -44.1)"/><path class="cls-6" d="M303.91,264.5h47.4s2.2-9.14-4.33-10.45-9.79,4.57-9.79,4.57,2.61-12.4-9.79-11.74S315.66,258,315.66,258,303.26,254.71,303.91,264.5Z" transform="translate(-23.06 -44.1)"/><path class="cls-6" d="M91.05,235.3h41.82s1.93-8.06-3.82-9.21-8.64,4-8.64,4,2.3-10.94-8.64-10.36-10.36,9.78-10.36,9.78S90.47,226.66,91.05,235.3Z" transform="translate(-23.06 -44.1)"/><path class="cls-6" d="M392.48,190.49l6.5,7.09a.77.77,0,0,0,.69.25l9.53-1.33a.8.8,0,0,1,.8,1.18l-4.73,8.37a.81.81,0,0,0,0,.74l4.22,8.64a.8.8,0,0,1-.88,1.13l-9.42-1.91a.77.77,0,0,0-.71.2l-6.92,6.68a.8.8,0,0,1-1.35-.48l-1.09-9.56a.78.78,0,0,0-.41-.61l-8.49-4.52a.79.79,0,0,1,0-1.42l8.75-4a.78.78,0,0,0,.45-.59l1.68-9.47A.8.8,0,0,1,392.48,190.49Z" transform="translate(-23.06 -44.1)"/><path class="cls-11" d="M187.91,266.13l4.1,4.47a.52.52,0,0,0,.44.16l6-.85a.51.51,0,0,1,.51.75l-3,5.28a.49.49,0,0,0,0,.47l2.65,5.45a.5.5,0,0,1-.55.71l-5.94-1.2a.47.47,0,0,0-.45.13l-4.37,4.21a.5.5,0,0,1-.85-.31l-.68-6a.5.5,0,0,0-.27-.39l-5.35-2.85a.5.5,0,0,1,0-.9l5.51-2.52a.48.48,0,0,0,.29-.37l1.06-6A.5.5,0,0,1,187.91,266.13Z" transform="translate(-23.06 -44.1)"/><polygon class="cls-9" points="324.5 156.47 321.7 176.25 330.86 175.79 326.4 198.28 344.03 170.32 335.03 169 341.01 157.73 324.5 156.47"/><path class="cls-3" d="M54.62,351.13l58.29-46.45s42.23-6.76,46.45-7.61,9.3,20.28-5.91,28.72a316.75,316.75,0,0,1-29.56,14.36s16.89,47.3-10.14,90.38C52.09,417,54.62,351.13,54.62,351.13Z" transform="translate(-23.06 -44.1)"/><path class="cls-3" d="M319,315.66s30.41-5.92,40.54-8.45c43.93,21.12,64.2,33.79,64.2,33.79l17.74,54.9s-42.24,40.55-65,38c-27-3-15.35-48.39-12.11-64.66,1.12-5.66,3.3-10.86,2-16.33-.35-1.46-8.28-15.08-9-14.81C338.12,345.58,321.6,335.05,319,315.66Z" transform="translate(-23.06 -44.1)"/></g></svg>