<svg viewBox="0 0 397.29 460.36" xmlns="http://www.w3.org/2000/svg" xmlns:xlink="http://www.w3.org/1999/xlink"><linearGradient id="a" gradientTransform="translate(15.89 21.1)" gradientUnits="userSpaceOnUse" x1="246.25" x2="246.25" y1="207.24" y2="383.03"><stop offset="0" stop-color="#fff"/><stop offset="1" stop-color="#5ea5fc"/></linearGradient><linearGradient id="b" gradientTransform="matrix(.97305829 -.23055926 .23055926 .97305829 -48.65 86.17)" x1="268.53" x2="270.37" xlink:href="#a" y1="270.03" y2="335.09"/><linearGradient id="c" gradientTransform="translate(7.1 40.32)" gradientUnits="userSpaceOnUse" x1="168.21" x2="168.52" y1="256.49" y2="267.38"><stop offset="0" stop-color="#db2385"/><stop offset="1" stop-color="#f3d042"/></linearGradient><linearGradient id="d" gradientTransform="translate(2.93 4.68)" x1="322.85" x2="323.15" xlink:href="#c" y1="256.49" y2="267.38"/><linearGradient id="e" gradientTransform="translate(9.51 39.8)" x1="186.07" x2="149.08" xlink:href="#a" y1="243.67" y2="306.76"/><linearGradient id="f" gradientTransform="matrix(1 0 0 -1 -304.56 548.76)" x1="649.66" x2="612.66" xlink:href="#a" y1="243.88" y2="306.97"/><linearGradient id="g" gradientTransform="matrix(-.97 .23 .23 .97 881.66 -134.4)" x1="665.11" x2="533.43" xlink:href="#a" y1="254.22" y2="478.79"/><linearGradient id="h" gradientTransform="matrix(-.97 .23 .23 .97 881.66 -134.4)" x1="642.68" x2="546.42" xlink:href="#a" y1="302.15" y2="466.3"/><linearGradient id="i" gradientTransform="matrix(.85108613 .5250261 -.5250261 .85108613 228.76 -121.74)" x1="321.22" x2="328.87" xlink:href="#a" y1="260.89" y2="347.65"/><linearGradient id="j" gradientTransform="matrix(.97305829 -.23055926 .23055926 .97305829 -48.65 86.17)" x1="325.69" x2="325.18" xlink:href="#a" y1="269.28" y2="403.51"/><linearGradient id="k" gradientTransform="matrix(.93921415 .34333187 -.34333187 .93921415 129.03 -90.86)" gradientUnits="userSpaceOnUse" x1="335.88" x2="318.14" y1="246.41" y2="323"><stop offset="0" stop-color="#dc356b"/><stop offset="1" stop-color="#f3d042"/></linearGradient><linearGradient id="l" gradientTransform="matrix(.97305829 -.23055926 .23055926 .97305829 -48.65 86.17)" gradientUnits="userSpaceOnUse" x1="325.68" x2="325.68" y1="315.85" y2="349.28"><stop offset="0" stop-color="#34453c"/><stop offset="1" stop-color="#90ffb5"/></linearGradient><linearGradient id="m" gradientTransform="matrix(.97305829 -.23055926 .23055926 .97305829 -48.65 86.17)" gradientUnits="userSpaceOnUse" x1="306.45" x2="306.45" y1="301.31" y2="318.92"><stop offset="0" stop-color="#4900ae"/><stop offset="1" stop-color="#993dfa"/></linearGradient><linearGradient id="n" gradientTransform="matrix(.97305829 -.23055926 .23055926 .97305829 -48.65 86.17)" gradientUnits="userSpaceOnUse" x1="344.54" x2="345.31" y1="299.14" y2="321.59"><stop offset="0" stop-color="#c0012c"/><stop offset="1" stop-color="#ebac28"/></linearGradient><linearGradient id="o" gradientTransform="matrix(.97305829 -.23055926 .23055926 .97305829 -48.65 86.17)" x1="201.53" x2="69.85" xlink:href="#a" y1="254.02" y2="478.58"/><linearGradient id="p" gradientTransform="matrix(.97305829 -.23055926 .23055926 .97305829 -48.65 86.17)" x1="179.1" x2="82.84" xlink:href="#a" y1="301.94" y2="466.09"/><linearGradient id="q" gradientTransform="matrix(.58707903 .80952963 -.80952963 .58707903 342.73 34.35)" x1="165.37" x2="167.93" xlink:href="#a" y1="272.95" y2="363.28"/><linearGradient id="r" x1="234.05" x2="231.18" xlink:href="#m" y1="296.64" y2="311.58"/><linearGradient id="s" x1="261.41" x2="258.54" xlink:href="#m" y1="296.64" y2="311.58"/><linearGradient id="t" gradientTransform="matrix(1 -.08 .08 1 -1.87 45.99)" x1="213.86" x2="213.86" xlink:href="#a" y1="219.39" y2="444.53"/><linearGradient id="u" gradientTransform="matrix(.97305829 -.23055926 .23055926 .97305829 -48.65 86.17)" x1="216.33" x2="210.21" xlink:href="#c" y1="325.87" y2="376.9"/><linearGradient id="v" gradientTransform="matrix(.27 .96 -.96 .27 561.7 -2.07)" x1="278.64" x2="278.64" xlink:href="#a" y1="219.39" y2="444.53"/><linearGradient id="w" gradientTransform="matrix(.70314654 .71104496 -.71104496 .70314654 352.86 -82.65)" x1="281.07" x2="274.95" xlink:href="#c" y1="326.23" y2="377.27"/><linearGradient id="x" gradientTransform="matrix(.97305829 -.23055926 .23055926 .97305829 -48.65 86.17)" x1="166.17" x2="165.66" xlink:href="#a" y1="269.29" y2="403.52"/><linearGradient id="y" x1="189.79" x2="132.97" xlink:href="#m" y1="287.51" y2="355.9"/><linearGradient id="z" x1="182.54" x2="168.93" xlink:href="#m" y1="256.74" y2="327.51"/><radialGradient id="A" cx="240.4" cy="241.99" gradientUnits="userSpaceOnUse" r="11.57"><stop offset="0" stop-color="#f3d042"/><stop offset="1" stop-color="#db2385"/></radialGradient><radialGradient id="B" cx="253.54" cy="103.66" r="6.15" xlink:href="#A"/><path d="m299.48 107.66-1.87-.83a95 95 0 0 0 4.89-13.44c6.5-23.29 3.25-48.51-9.91-77.1l1.85-.85c13.38 29 16.66 54.72 10 78.5a99 99 0 0 1 -4.96 13.72z" fill="#83e4fe" transform="translate(-39.1 -15.44)"/><path d="m233.77 232c-.36-2.76-.62-5.53-.77-8.22a94 94 0 0 1 .3-14.89 74.39 74.39 0 0 1 5.49-21.7 66.19 66.19 0 0 1 3.1-6.33c6.11-10.86 14.76-21.1 23.94-31.86l.37-.44c4.81-5.66 10.25-12.08 15.29-18.74l1.63 1.24c-5.07 6.7-10.54 13.14-15.36 18.82l-.37.44c-9.11 10.73-17.72 20.88-23.71 31.62a64.52 64.52 0 0 0 -3 6.13 72.65 72.65 0 0 0 -5.33 21.11 92.36 92.36 0 0 0 -.3 14.57c.15 2.64.41 5.35.76 8.06z" fill="#83e4fe" transform="translate(-39.1 -15.44)"/><path d="m250.78 287.91a158 158 0 0 1 -12.44-29.79l1.95-.59a155.93 155.93 0 0 0 12.25 29.35z" fill="#83e4fe" transform="translate(-39.1 -15.44)"/><path d="m185.4 288.91h153.49v81.91h-153.49z" fill="url(#a)" transform="matrix(.97305829 -.23055926 .23055926 .97305829 -108.07 53.87)"/><path d="m234.57 307.85c28.73 24.08 55.66 48.54 107.28 25.57l-14.47-61.1-106.11 25.14c4.36 3.17 8.82 6.63 13.3 10.39z" fill="url(#b)" transform="translate(-39.1 -15.44)"/><rect fill="url(#c)" height="10.21" rx="1.94" transform="matrix(.97305829 -.23055926 .23055926 .97305829 -103.95 33.13)" width="41.85" x="154.53" y="296.73"/><rect fill="url(#d)" height="10.21" rx="1.94" transform="matrix(.97305829 -.23055926 .23055926 .97305829 -91.68 66.85)" width="41.85" x="305" y="261.08"/><rect fill="url(#e)" height="24.5" rx="2.84" transform="matrix(.97305829 -.23055926 .23055926 .97305829 -106.17 34.2)" width="49.68" x="154.08" y="299.64"/><rect fill="url(#f)" height="24.5" rx="2.84" transform="matrix(-.97305829 .23055926 -.23055926 -.97305829 672.7 454.34)" width="49.68" x="303.62" y="264.22"/><path d="m428 408.21c14.35-13.54 8.66-32.06-4.88-46.42l-52.48-66.46a35.74 35.74 0 0 0 -50.51-1.47 35.72 35.72 0 0 0 -1.47 50.5l58.83 62.38a35.74 35.74 0 0 0 50.51 1.47z" fill="url(#g)" transform="translate(-39.1 -15.44)"/><path d="m329.23 346.27s31.7 39.35 64.27 35.13c13.8-1.79 26.42-5.93 38.2-8 6.55 11.86 7 24.74-3.7 34.85a35.74 35.74 0 0 1 -50.51-1.47l-54.16-57.43z" fill="url(#h)" transform="translate(-39.1 -15.44)"/><circle cx="341.02" cy="317.08" fill="url(#i)" r="46.79" transform="matrix(.70710678 -.70710678 .70710678 .70710678 -163.42 318.57)"/><path d="m295.46 327.71a46.78 46.78 0 0 0 88.27-29.71 46.78 46.78 0 0 0 -88.27 29.73z" fill="url(#j)" transform="translate(-39.1 -15.44)"/><circle cx="335.22" cy="293.75" fill="url(#k)" r="9.48" transform="matrix(.83484786 -.55048074 .55048074 .83484786 -145.44 217.62)"/><g transform="translate(-39.1 -15.44)"><path d="m353.31 329a9.49 9.49 0 1 1 -11.41-7 9.48 9.48 0 0 1 11.41 7z" fill="url(#l)"/><path d="m318.76 307.66a9.49 9.49 0 1 1 -7.05 11.42 9.49 9.49 0 0 1 7.05-11.42z" fill="url(#m)"/><path d="m356.17 298.8a9.49 9.49 0 1 1 -7 11.42 9.49 9.49 0 0 1 7-11.42z" fill="url(#n)"/><path d="m333 284.52a9.49 9.49 0 0 0 -6.69 5.9 15.86 15.86 0 0 0 15.9 5.36 16.73 16.73 0 0 0 2.36-.78 9.44 9.44 0 0 0 -11.57-10.48z" fill="#f9fbfc" opacity=".35"/><path d="m356.17 298.8a9.45 9.45 0 0 0 -6.52 5.53 15.91 15.91 0 0 0 16.64 6.31c.42-.11.83-.23 1.24-.37a9.33 9.33 0 0 0 .06-4.43 9.49 9.49 0 0 0 -11.42-7.04z" fill="#f9fbfc" opacity=".35"/><path d="m330.12 319.15a9.38 9.38 0 0 0 .05-4.44 9.43 9.43 0 0 0 -16.62-3.71 15.87 15.87 0 0 0 16.57 8.15z" fill="#f9fbfc" opacity=".35"/><path d="m341.9 321.94a9.4 9.4 0 0 0 -6 4.58 15.87 15.87 0 0 0 17 6.83l.48-.14a9.42 9.42 0 0 0 -11.41-11.27z" fill="#f9fbfc" opacity=".35"/><path d="m298.89 344.48a15.07 15.07 0 0 0 -11.58 14.89 36.2 36.2 0 0 0 30.1.29 15 15 0 0 0 -18.52-15.18z" fill="#f9fbfc" opacity=".35"/><path d="m149.06 474.29c-18.9-5.66-22.13-24.77-16.47-43.68l17.1-82.94a35.72 35.72 0 0 1 44.47-24 35.73 35.73 0 0 1 24 44.47l-24.61 82.14a35.72 35.72 0 0 1 -44.49 24.01z" fill="url(#o)"/><path d="m209.55 374.62s-10.68 49.38-41.69 60.23c-13.14 4.59-26.27 6.55-37.74 9.95-.54 13.54 4.83 25.26 18.94 29.49a35.72 35.72 0 0 0 44.47-24l22.65-75.62z" fill="url(#p)"/></g><circle cx="185.91" cy="353.82" fill="url(#q)" r="46.79" transform="matrix(.38461756 -.92307602 .92307602 .38461756 -251.3 373.87)"/><path d="m254.38 333-11.56 2.73a2.87 2.87 0 0 1 -3.45-2.13 2.86 2.86 0 0 1 2.13-3.44l11.56-2.74a2.87 2.87 0 0 1 3.45 2.13 2.87 2.87 0 0 1 -2.13 3.45z" fill="url(#r)" transform="translate(-39.1 -15.44)"/><path d="m281 326.73-11.56 2.74a2.87 2.87 0 0 1 -3.45-2.13 2.87 2.87 0 0 1 2.13-3.45l11.56-2.74a2.87 2.87 0 0 1 3.45 2.13 2.87 2.87 0 0 1 -2.13 3.45z" fill="url(#s)" transform="translate(-39.1 -15.44)"/><circle cx="239.33" cy="374.07" fill="url(#t)" r="21.3" transform="matrix(.98852027 -.15108829 .15108829 .98852027 -92.84 24.99)"/><path d="m254 370.6a15.06 15.06 0 1 1 -18.13-11.19 15.07 15.07 0 0 1 18.13 11.19z" fill="url(#u)" transform="translate(-39.1 -15.44)"/><circle cx="302.37" cy="359.14" fill="url(#v)" r="21.3" transform="matrix(.0382134 -.9992696 .9992696 .0382134 -107.18 632.1)"/><circle cx="302.37" cy="359.14" fill="url(#w)" r="15.06" transform="matrix(.52026457 -.85400514 .85400514 .52026457 -200.75 415.07)"/><path d="m235.85 359.41a15 15 0 0 0 -11.14 11.06 36.44 36.44 0 0 0 28.49 5c.39-.09.76-.23 1.15-.34a14.9 14.9 0 0 0 -.37-4.58 15.07 15.07 0 0 0 -18.13-11.14z" fill="#f9fbfc" opacity=".35" transform="translate(-39.1 -15.44)"/><path d="m140.24 364.48a46.78 46.78 0 0 0 88.26-29.73 46.78 46.78 0 0 0 -88.26 29.73z" fill="url(#x)" transform="translate(-39.1 -15.44)"/><path d="m203.24 340.62-10 2.36-2.36-10a8.85 8.85 0 0 0 -17.22 4.07l2.36 10-9.95 2.36a8.85 8.85 0 1 0 4.08 17.22l9.95-2.36 2.36 10a8.85 8.85 0 0 0 17.22-4.08l-2.36-9.95 9.95-2.36a8.85 8.85 0 0 0 -4.07-17.22z" fill="url(#y)" transform="translate(-39.1 -15.44)"/><path d="m203.24 340.62-10 2.36-2.36-10a8.85 8.85 0 0 0 -17.22 4.07l2.36 10-9.15 2.17a35.07 35.07 0 0 0 31.19 14.08l-.74-3.11 9.95-2.36a8.85 8.85 0 0 0 -4.07-17.22z" fill="url(#z)" transform="translate(-39.1 -15.44)"/><path d="m320.73 394.8c23.89 13.48 47.64 27.24 70.59 42.33 5.71 3.8 11.35 7.73 16.81 11.92a89.38 89.38 0 0 1 7.88 6.72 19.65 19.65 0 0 1 3.38 4.09 4.52 4.52 0 0 1 .53 1.39 2.15 2.15 0 0 1 -.33 1.72 3.74 3.74 0 0 1 -2.82 1.11c-3.64.05-7-.88-10.32-1.72s-6.62-1.94-9.87-3.05c-6.51-2.21-12.94-4.65-19.32-7.18-25.5-10.2-50.46-21.65-75.25-33.4s-49.35-24-73.74-36.61-48.49-25.71-72.42-39.12-47.67-27.24-70.85-41.89c-11.58-7.37-23.11-14.85-34-23.26a91.22 91.22 0 0 1 -7.87-6.74 20.47 20.47 0 0 1 -3.41-4.11 4.55 4.55 0 0 1 -.55-1.35 2.11 2.11 0 0 1 .26-1.7 3.56 3.56 0 0 1 2.79-1.16c3.63-.07 7 .89 10.3 1.73s6.6 2 9.85 3.09c13 4.56 25.61 9.9 38.19 15.38s25 11.25 37.42 17.12c-12.47-5.71-25-11.28-37.64-16.61s-25.34-10.45-38.34-14.82c-3.24-1.08-6.5-2.13-9.8-3s-6.66-1.74-9.91-1.65a2.62 2.62 0 0 0 -1.85.63c-.28.32 0 1.11.35 1.77a19.81 19.81 0 0 0 3.18 3.8 89.72 89.72 0 0 0 7.78 6.6c10.87 8.3 22.42 15.72 34 23 23.24 14.52 47 28.18 71 41.5s48.18 26.2 72.54 38.78 48.8 25 73.51 36.92 49.6 23.41 75 33.7c6.35 2.56 12.74 5 19.21 7.25 3.23 1.11 6.49 2.15 9.77 3.06s6.65 1.76 9.9 1.72c.76 0 1.63-.21 1.86-.58s.07-1-.29-1.72a19 19 0 0 0 -3.15-3.81 89.7 89.7 0 0 0 -7.74-6.65c-5.39-4.2-11-8.12-16.68-12-22.68-15.32-46.25-29.41-69.95-43.2z" fill="#ff3c00" transform="translate(-39.1 -15.44)"/><path d="m247.94 245.56a9.61 9.61 0 1 1 -9.6-9.6 9.6 9.6 0 0 1 9.6 9.6z" fill="url(#A)" transform="translate(-39.1 -15.44)"/><circle cx="252.44" cy="105.56" fill="url(#B)" r="5.1"/></svg>