<svg id="OBJECTS" xmlns="http://www.w3.org/2000/svg" xmlns:xlink="http://www.w3.org/1999/xlink" viewBox="0 0 697.06 453.61"><defs><style>.cls-1{fill:#e95f81;}.cls-2{fill:#3566a9;}.cls-3{fill:#2b2541;}.cls-4{fill:#074497;}.cls-5{fill:#e43d66;}.cls-6{fill:#3e3853;}.cls-7{fill:#5b556b;}.cls-8{fill:#1d1735;}.cls-9{fill:#ed8977;}.cls-10{fill:#86a3cb;}.cls-11{fill:#f8b7a2;}.cls-12{fill:#fce4dc;}.cls-13{fill:#efa626;}.cls-14{fill:#e090b1;}.cls-15{fill:#f8daa5;}.cls-16{fill:#ec7f00;}.cls-17{fill:#534e65;}.cls-18{fill:#3b3650;}.cls-19{fill:#27213e;}.cls-20{fill:#9e9ca9;}.cls-21{fill:#d3d7db;}.cls-22{fill:#fcfcfc;}.cls-23{clip-path:url(#clip-path);}.cls-24{fill:#e4eaf3;}.cls-25,.cls-28{fill:#382c52;}.cls-26{fill:#746c86;}.cls-27{opacity:0.75;}.cls-28,.cls-31{font-size:12.66px;}.cls-28,.cls-31,.cls-32,.cls-35{font-family:Montserrat-Bold, Montserrat;font-weight:700;}.cls-29{letter-spacing:-0.01em;}.cls-30{letter-spacing:-0.03em;}.cls-31,.cls-35{fill:#e0e3e6;}.cls-32,.cls-35{font-size:9.05px;}.cls-32{fill:#e33560;}.cls-33{letter-spacing:-0.01em;}.cls-34{letter-spacing:-0.02em;}.cls-36{fill:#3c3155;}.cls-37{fill:#20133d;}.cls-38{fill:#e5553b;}.cls-39{fill:#f4bab0;}.cls-40{fill:#aba9b4;}.cls-41{fill:#5e85ba;}.cls-42{fill:#b4bbc2;}.cls-43{fill:#8f98a1;}.cls-44{fill:#2e2945;}.cls-45{fill:#545067;}.cls-46{fill:#2f2a46;}.cls-47{fill:#241f3c;}.cls-48{fill:#b8b5be;}.cls-49{fill:#524e66;}.cls-50{fill:#757285;}.cls-51{fill:#becee4;}.cls-52{fill:#f27fa0;}.cls-53{fill:#faf3f8;}.cls-54{fill:#ea2a74;}.cls-55{fill:#fcecd1;}.cls-56{fill:#f7d393;}.cls-57{fill:#fefbf5;}.cls-58{fill:#e56500;}.cls-59{fill:#b4c6df;}.cls-60{fill:#fcf1dd;}.cls-61{fill:#fbfbfb;}.cls-62{fill:#88929c;}.cls-63{fill:#e7e9eb;}.cls-64{fill:#5d6b79;}.cls-65{fill:#fff;}.cls-66{fill:#c3c8cd;}.cls-67{fill:#a4acb4;}</style><clipPath id="clip-path" transform="translate(-27.76 -23.29)"><rect class="cls-1" x="229.34" y="155.21" width="155.61" height="88.8"/></clipPath></defs><title>3873841</title><path class="cls-2" d="M39.84,156.7l61.25,263,73,37.78S488,373.2,533.73,358.84c0,0,20.52-70.62,19.7-82.84l-63-191.87s-57.08-15.41-81.28-17.41c0,0-318.34,35.53-326.85,40.08S37.54,146.82,39.84,156.7Z" transform="translate(-27.76 -23.29)"/><path class="cls-3" d="M180,455.71h0l0,0,.12.08c11.56-3.11,38.55-10.37,72.85-19.63-2.38-11.35-23.21-11.11-32.3-10.45l.34-.26.37-27.32,2.61-16,3.67-22.55h43.54a6.41,6.41,0,0,0,6.41-6.41V367.5c.07.87.13,1.75.19,2.65.17,2.25.34,4.62.53,7.06,0,.49.07,1,.11,1.48.07,1,.15,2,.22,3,.2,2.53.39,5.12.6,7.74l.12,1.57.24,3.16c.29,3.69.58,7.4.87,11,.09,1,.17,2.07.25,3.1s.16,2,.24,3l.12,1.5c.08,1,.16,2,.24,2.95.36,4.53.7,8.74,1,12.47,73.19-19.8,165.56-44.91,217.21-59.49l-12.39-76.1-.3-1.83-1.06-6.52a27.21,27.21,0,0,0-.88-3.64h0a26.58,26.58,0,0,0-9.31-13.27l-.33-.25c-.39-.3-.81-.57-1.22-.85l-.62-.4c-.38-.23-.76-.44-1.15-.65s-.53-.3-.81-.43-.72-.36-1.09-.52-.64-.28-1-.41-.7-.28-1-.4l-1.11-.36c-.33-.1-.66-.21-1-.29s-.83-.2-1.26-.29-.61-.14-.93-.19c-.49-.09-1-.15-1.47-.2-.26,0-.52-.08-.78-.1-.77-.07-1.54-.11-2.32-.11h-84a10.19,10.19,0,0,0-2.5-6.7,9.74,9.74,0,0,0,1.18-1l-13.8-11.83-21.69-1h0l-4.22,2.69L328,248.38,298.28,247V232.4h82.85V121.46H259.68c-1.88-8.62-6.5-18.34-17.74-18.52h-1.11a28.65,28.65,0,0,0-7.89,1.56,10.23,10.23,0,0,0-.68,1.07c.05-.88.08-1.39.08-1.39l-10.85-1C220,100.53,216.9,98.93,213,99h0c-.37,0-.75,0-1.13.07h-.16a16.9,16.9,0,0,0-2.42.43l-.15,0c-.42.11-.84.23-1.26.37h0a22.46,22.46,0,0,0-2.12.82h0c-.38.17-.75.35-1.14.55l-.33.17-.83.46-.39.23c-.28.16-.56.34-.85.52l-.34.22c-.39.26-.79.53-1.19.82h0c-.39.28-.78.59-1.18.9l-.36.3-.85.71-.41.36c-.29.25-.57.51-.85.78l-.37.35c-.4.39-.81.79-1.21,1.21s-.85.92-1.26,1.37l-.33.38c-.32.37-.63.74-.93,1.12l-.22.27q-.54.67-1,1.35c-.07.09-.13.19-.2.29-.26.37-.51.73-.75,1.1l-.21.33c-.28.45-.55.9-.8,1.34l0,0c-.24.43-.47.87-.68,1.3,0,.1-.1.2-.14.3-.2.4-.38.81-.54,1.21,0,0,0,.07-.05.1-.18.45-.35.9-.5,1.34l-.06.18c-.13.39-.25.79-.35,1.18,0,0,0,.11-.05.16a21,21,0,0,0-.5,2.61s0,.08,0,.12a18.43,18.43,0,0,0-.12,2.55v0c0,.59.08,1.17.15,1.74,0,.17.06.33.08.5.07.4.14.8.24,1.19,0,.09,0,.18.05.26v0a17.43,17.43,0,0,0,3.71,7.1s-10.85,8.87-4.93,14.79c1.58,1.58,4.44,2.59,7.89,2.88v.86a51.37,51.37,0,0,1-7.56,12.13h-.11l-.19,0-.07,0-.39.08h0l-.47.1-.15,0-.57.13-.11,0-.79.2-.17,0-.75.2-.25.06-1,.29h0c-1.69.49-3.75,1.14-6.09,2h0l-.09,0c-.68.24-1.39.51-2.12.79l-.31.12-2.23.91-.36.15c-.77.32-1.55.67-2.35,1l-.38.17c-.81.37-1.63.76-2.46,1.16l-.39.19-2.58,1.32-.35.19c-.9.47-1.8,1-2.71,1.48l-.29.17c-.94.54-1.9,1.1-2.86,1.69l-.18.12c-1,.62-2,1.26-3,1.93,0,0-4.21,6.87-9.36,17.75h-8.72a25.89,25.89,0,0,0-25.89,25.89v31a26.57,26.57,0,0,0,.48,5,26.63,26.63,0,0,0-19.84,21.55l-8.06,49.46,20,85.9,69.62,36Z" transform="translate(-27.76 -23.29)"/><path class="cls-4" d="M533.73,358.84s20.52-70.62,19.7-82.84l-63-191.87s-20.19-5.45-41.64-10.29c-5.35,5.91-17.92,33.45-17.92,33.45V389.71C479.08,375.39,519.28,363.38,533.73,358.84Z" transform="translate(-27.76 -23.29)"/><path class="cls-3" d="M633.88,426.84,612.57,296h0l-.29-1.81h0l-.57-3.48-.48-3c0-.22-.1-.44-.14-.65a26,26,0,0,0-.74-2.95h0A26.35,26.35,0,0,0,601.14,271l-.33-.25c-.39-.29-.8-.56-1.21-.83l-.62-.4-1.13-.65c-.26-.14-.53-.29-.8-.42l-1.08-.52-1-.4c-.34-.14-.69-.28-1-.4s-.72-.24-1.09-.35-.66-.21-1-.29-.83-.2-1.25-.29-.61-.14-.92-.19c-.48-.08-1-.14-1.46-.2l-.78-.09c-.75-.07-1.51-.11-2.28-.11H539.43a26.56,26.56,0,0,0,.45-4.84V231.5a26.24,26.24,0,0,0-8.7-19.55c-.16-.56-.34-1.14-.52-1.73-.26-.83-.54-1.7-.84-2.59-.5-1.48-1.05-3-1.65-4.62s-1.25-3.2-2-4.81c-.14-.32-.28-.64-.43-1-.29-.65-.59-1.28-.89-1.92l-.47-.95c-.32-.62-.64-1.25-1-1.86-.5-.92-1-1.82-1.55-2.69-.71-1.16-1.46-2.28-2.23-3.32a31.94,31.94,0,0,0-2.43-2.89,22,22,0,0,0-2.63-2.35,14.92,14.92,0,0,0-2.81-1.68,11,11,0,0,0-4.58-1c-9.67-1.63-21,1-21,1l-6.81.46c9.32-2.15,17.43-5.6,22.12-10.58,12.85-13.65-8.4-87.6-53.9-70A41.21,41.21,0,0,0,431.65,110c-6.26,1.77-7,6.85-6.56,10.63-.13.32-.26.65-.37,1H245.45V231.43h72.29V256.5H303v9.07H244.34a26.38,26.38,0,0,0-26,22.14L212.07,326,195.68,426.66h0l0,.18a26.38,26.38,0,0,0,26,30.61h96a26.37,26.37,0,0,0,26-22.13l26-159.89h29.42c3.46,2.41,7.26,4.57,11.38,5.26a10.91,10.91,0,0,0,9-2.55,14.11,14.11,0,0,0,2.39-2.71h10.72a26.34,26.34,0,0,0,19.24,11.5c.1.39.18.8.25,1.21l24.3,149.18a24,24,0,0,0,23.67,20.13H607.85A26.37,26.37,0,0,0,633.88,426.84Z" transform="translate(-27.76 -23.29)"/><path class="cls-5" d="M470.46,103.78l177.1-43.09s53.91,23.93,63.52,33.48c0,0-24.39,293.37-27.8,312.57,0,0-56.22,37.64-73.5,43.45,0,0-126.16-41.77-152.45-70.39C457.33,379.8,454.47,158.29,470.46,103.78Z" transform="translate(-27.76 -23.29)"/><path class="cls-6" d="M468.58,389.13c40,27.56,141.2,61.06,141.2,61.06,5.17-1.74,13.85-6.34,23.46-11.92a26.19,26.19,0,0,0,.64-11.43L612.57,296h0l-.29-1.81h0l-.57-3.48-.48-3c0-.22-.1-.44-.14-.65a26,26,0,0,0-.74-2.95h0A26.35,26.35,0,0,0,601.14,271l-.33-.25c-.39-.29-.8-.56-1.21-.83l-.62-.4-1.13-.65c-.26-.14-.53-.29-.8-.42l-1.08-.52-1-.4c-.34-.14-.69-.28-1-.4s-.72-.24-1.09-.35-.66-.21-1-.29-.83-.2-1.25-.29-.61-.14-.92-.19c-.48-.08-1-.14-1.46-.2l-.78-.09c-.75-.07-1.51-.11-2.28-.11H539.43a26.56,26.56,0,0,0,.45-4.84V231.5a26.24,26.24,0,0,0-8.7-19.55c-.16-.56-.34-1.14-.52-1.73-.26-.83-.54-1.7-.84-2.59-.5-1.48-1.05-3-1.65-4.62s-1.25-3.2-2-4.81c-.14-.32-.28-.64-.43-1-.29-.65-.59-1.28-.89-1.92l-.47-.95c-.32-.62-.64-1.25-1-1.86-.5-.92-1-1.82-1.55-2.69-.71-1.16-1.46-2.28-2.23-3.32a31.94,31.94,0,0,0-2.43-2.89,22,22,0,0,0-2.63-2.35,14.92,14.92,0,0,0-2.81-1.68,11,11,0,0,0-4.58-1c-9.67-1.63-21,1-21,1l-6.81.46c9.32-2.15,17.43-5.6,22.12-10.58,9.45-10.05.44-52.77-23.13-67.61l-7.9,1.93c-10.6,36.14-12.92,145.66-13.28,215.39Z" transform="translate(-27.76 -23.29)"/><rect class="cls-7" x="439.18" y="200.37" width="103.54" height="75.88" rx="24.4"/><rect class="cls-8" x="442.06" y="204.83" width="94.53" height="66.96" rx="21.9"/><path class="cls-9" d="M451.82,237.22c-.67-.19-3.44,16.74-3.59,17.65-.83,5.06-1.48,10.14-1.83,15.25-.33,4.76-1.76,10.17-.09,14.91,2.34,6.68,9.26,4.82,14.36,2.38,7.48-3.57,11.39-44.59,11.39-44.59Z" transform="translate(-27.76 -23.29)"/><path class="cls-9" d="M424.21,263.43c-8.94-1.43-23.46.72-23.46.72L390,273.83s5.39,1,8.77-1c0,0,12.55,11.44,27.66,5.45.27-.11,1.93,1.4,2.19,1.6.87.68,1.73,1.38,2.59,2.09,2,1.61,4,3.24,6,4.78,3.93,3,8.39,6.08,13.35,6.91a10.08,10.08,0,0,0,8.35-2.36c2.63-2.29,4.63-5.95,3.62-9.52-1-3.39-4-6.11-7-7.67-1.54-.8-3-1.8-4.55-2.56a52.08,52.08,0,0,0-5.25-2.15c-3.55-1.25-7.2-2.21-10.83-3.21A99.3,99.3,0,0,0,424.21,263.43Z" transform="translate(-27.76 -23.29)"/><rect class="cls-8" x="323.16" y="247.94" width="165.15" height="8.61"/><path class="cls-4" d="M464.25,206s-11.13-.23-19.31,38c0,0,11.57,11.68,31.81,9.64C476.75,253.66,479.49,218.6,464.25,206Z" transform="translate(-27.76 -23.29)"/><path class="cls-2" d="M520.71,199.94s10.55-2.45,19.51-.94l13.35,82.19h-67S468.43,276,464,259.86l8.71-18.43s-7.66-28.55-8.47-35.42c0,0,3.58-4.15,14.47-3.24Z" transform="translate(-27.76 -23.29)"/><path class="cls-10" d="M505.44,261.54s11.08-1.71,14.9-13v11.31S512.73,264.44,505.44,261.54Z" transform="translate(-27.76 -23.29)"/><path class="cls-4" d="M481.92,279.34l38.42-11a145.12,145.12,0,0,0-24.26-1.62c-15.11.07-32.07-6.84-32.07-6.84C467,270.75,476.23,276.65,481.92,279.34Z" transform="translate(-27.76 -23.29)"/><path class="cls-4" d="M540.57,201.19c-4.57-.5-9.16.24-11.18,4.8-3.66,8.27-4.88,18.11-5.18,27.06-.33,9.6.78,19.51,5.3,28a13.21,13.21,0,0,0,2.75,3.77A15.76,15.76,0,0,0,535.9,267l16.67,8Z" transform="translate(-27.76 -23.29)"/><path class="cls-11" d="M531,227.72l6.35,38.34s-19-2.87-30.74-.76-19.63,1.77-29.28,2.44-18.49-4.8-18.49-4.8-18.68,5.15-23,6.75-7.46,6.56-7.46,6.56,4.1,3.71,7.37,1.47c0,0,29,7.63,39.82,1.91,0,0,73,10.72,83.61,2.81l2.62-14L556,225.43Z" transform="translate(-27.76 -23.29)"/><path class="cls-12" d="M558.07,275l-2.84,9a11.26,11.26,0,0,0,3.88-1.6l2.62-14-2.05-15.41Z" transform="translate(-27.76 -23.29)"/><path class="cls-12" d="M482.13,270.19c25.61-4.13,65-1.25,71.85,1a53,53,0,0,0-16.68-5.17l-1.17-.17c-4.29-.57-19.59-2.39-29.57-.59-11.7,2.11-19.63,1.77-29.28,2.44s-18.49-4.8-18.49-4.8l-10.88,7.25S456.51,274.33,482.13,270.19Z" transform="translate(-27.76 -23.29)"/><path class="cls-9" d="M556.51,229.3q-12,4.32-23.79,9.09l3.06,18.51,4.78-2.49a76.8,76.8,0,0,0,6.86-3.86A54.33,54.33,0,0,0,558.07,241Z" transform="translate(-27.76 -23.29)"/><path class="cls-2" d="M540.22,199c-19.53,0-18.19,33.4-12.28,49.92,23,1.63,36.41-11.72,36.41-11.72S556,199,540.22,199Z" transform="translate(-27.76 -23.29)"/><path class="cls-10" d="M533,208.81a16.59,16.59,0,0,0-3.67,5.67,29,29,0,0,0-1.46,7.44,70.2,70.2,0,0,0-.22,8.94,27.23,27.23,0,0,0,1.73,9.07.6.6,0,0,0,1.18-.16,56.79,56.79,0,0,0,.09-8.25c-.09-2.84-.17-5.67-.13-8.51a58.85,58.85,0,0,1,.38-7.15c.32-2.43.83-4.78,2.49-6.66C533.63,208.93,533.26,208.55,533,208.81Z" transform="translate(-27.76 -23.29)"/><path class="cls-10" d="M558.21,235.16a63.54,63.54,0,0,1-10.27,11.34,44.73,44.73,0,0,0,16.41-9.3S556,199,540.22,199a13.64,13.64,0,0,0-6,1.32,15.31,15.31,0,0,1,2,.13,19.19,19.19,0,0,1,7.35,2.79c4.64,2.94,8,7.59,10.28,12.59s3.6,10.38,4.9,15.72a4.77,4.77,0,0,1,.17,2.21A4.57,4.57,0,0,1,558.21,235.16Z" transform="translate(-27.76 -23.29)"/><path class="cls-13" d="M485,125.67c42.16-16.29,61.85,52.24,49.94,64.89-12.87,13.68-53.58,14.95-69.15,9.05,0,0,11.19-6.85,1.2-23.45C458.7,162.47,458,136.08,485,125.67Z" transform="translate(-27.76 -23.29)"/><path class="cls-11" d="M515.56,171.52l-5,32.5,9.83,1.15S520,235,501,236.9c-17.15,1.69-19.31-29.13-19.31-29.13l7.41-3.25-2.89-9.13Z" transform="translate(-27.76 -23.29)"/><path class="cls-12" d="M493.86,211a4.62,4.62,0,0,0-2-.93,8.73,8.73,0,0,0-2.5.11c-.9.09-1.8.12-2.71.13a13.23,13.23,0,0,0-2.74.15.45.45,0,0,0,0,.87,9.55,9.55,0,0,0,2.56.31,16.48,16.48,0,0,0,2.43-.12c.77-.1,1.53-.28,2.3-.43a3.6,3.6,0,0,1,2.37.32C493.79,211.52,494.11,211.2,493.86,211Z" transform="translate(-27.76 -23.29)"/><path class="cls-12" d="M486.76,213.46a.4.4,0,0,0-.5-.28,11.78,11.78,0,0,1-1.31.29l-.65.1c-.22,0-.43.1-.65.16a.29.29,0,0,0-.22.28.3.3,0,0,0,.22.28,4.4,4.4,0,0,0,.73.06,4.65,4.65,0,0,0,.74-.08,11,11,0,0,0,1.36-.3A.42.42,0,0,0,486.76,213.46Z" transform="translate(-27.76 -23.29)"/><path class="cls-12" d="M514.17,208.61a9.11,9.11,0,0,0-4.34-.31,43.29,43.29,0,0,0-4.54.71c-1.49.29-3,.52-4.47.8-.88.17-2.66.3-2.44,1.6.09.53.85.36.88-.12,0-.09,3-.4,3.32-.44,1.31-.19,2.63-.36,3.95-.54s2.51-.39,3.77-.55,2.53-.09,3.76-.33A.45.45,0,0,0,514.17,208.61Z" transform="translate(-27.76 -23.29)"/><path class="cls-12" d="M507.09,211.46l-1,0c-.35,0-.7,0-1.05,0a.43.43,0,0,0-.43.43.44.44,0,0,0,.43.43,6.36,6.36,0,0,0,1.07,0,5.16,5.16,0,0,0,1.1-.25.3.3,0,0,0,.22-.34A.3.3,0,0,0,507.09,211.46Z" transform="translate(-27.76 -23.29)"/><path class="cls-9" d="M516.72,204.75a48.37,48.37,0,0,1-3.83,22.09,47,47,0,0,1-3.77,7c11-8,11.22-28.66,11.22-28.66Z" transform="translate(-27.76 -23.29)"/><path class="cls-9" d="M490.22,204.75c6.94-1.79,12.76-7,16.17-13.27,2.47-4.58,4.42-10.65,4.18-15.9l-24.32,19.81,2.89,9.13-1.81.79A25.86,25.86,0,0,0,490.22,204.75Z" transform="translate(-27.76 -23.29)"/><path class="cls-11" d="M470.17,157.38l4,22.3s-.48,4.78.16,7.25,12.93,10.45,17.64,10.49,16.71-11.12,18.87-17.31-.84-26.64-10.71-32.73-17.79-5.72-22.4-4.19S468.65,147.81,470.17,157.38Z" transform="translate(-27.76 -23.29)"/><path class="cls-9" d="M486.58,188.47a.43.43,0,0,0-.56.08,6.78,6.78,0,0,0-.7.9,3.62,3.62,0,0,1-.36.42.57.57,0,0,1-.11.11s0,0,0,0a1.88,1.88,0,0,1-.23.16l-.1.06h0a1.33,1.33,0,0,1-.24.1l-.11,0-.08,0a.76.76,0,0,1-.21,0,1,1,0,0,1-.76-.2.38.38,0,0,0-.5.58,2.12,2.12,0,0,0,2.38.27,3.62,3.62,0,0,0,1.1-.88,3.76,3.76,0,0,0,.72-1.2A.44.44,0,0,0,486.58,188.47Z" transform="translate(-27.76 -23.29)"/><path class="cls-2" d="M475.38,175.86c.34,1.09.15,2.11-.44,2.29s-1.32-.54-1.66-1.63-.15-2.11.43-2.29S475,174.78,475.38,175.86Z" transform="translate(-27.76 -23.29)"/><path class="cls-2" d="M486.59,173.62c.34,1.08.15,2.11-.44,2.29s-1.33-.54-1.67-1.63-.14-2.11.44-2.29S486.25,172.54,486.59,173.62Z" transform="translate(-27.76 -23.29)"/><path class="cls-13" d="M485.68,167.61v0a.75.75,0,0,0-.25-.4,4.64,4.64,0,0,0-.39-.38,9.85,9.85,0,0,0-.78-.67c-.54-.42-1.27-1.06-2-.72a1.67,1.67,0,0,0-.77,1.82c.07.77.23,1.53.35,2.29a.3.3,0,0,0,.6,0c0-.67-.07-1.34-.12-2,0-.38-.15-1.05.25-1.27.2-.12.44.05.6.16s.48.35.72.53.45.37.67.57.48.56.83.55l-.18,0,.06,0A.31.31,0,0,0,485.68,167.61Z" transform="translate(-27.76 -23.29)"/><path class="cls-13" d="M475.33,171.43a3.2,3.2,0,0,0-.6-.77,4.78,4.78,0,0,0-.65-.54,3.13,3.13,0,0,0-1.5-.66,1.14,1.14,0,0,0-.76.18,1.17,1.17,0,0,0-.4.78,7.76,7.76,0,0,0-.12,2c0,.26.45.29.46,0a12.09,12.09,0,0,1,.25-1.69c0-.17.06-.47.2-.58a.56.56,0,0,1,.41-.05,3,3,0,0,1,1.14.59,5.07,5.07,0,0,1,.54.49c.17.18.3.39.48.57A.35.35,0,0,0,475.33,171.43Z" transform="translate(-27.76 -23.29)"/><path class="cls-14" d="M497.41,180.3c-.12-.82-2.16-1.2-4.54-.83s-4.22,1.33-4.09,2.15,2.16,1.2,4.54.83S497.54,181.13,497.41,180.3Z" transform="translate(-27.76 -23.29)"/><path class="cls-9" d="M482.17,184.2a.19.19,0,0,0-.3-.14c-.14.13-.23.3-.37.42a1.56,1.56,0,0,1-.43.25,1.64,1.64,0,0,1-1,.07,1.25,1.25,0,0,1-.81-.57,1,1,0,0,1,.1-.88c.39-.74,1.11-1.28,1.24-2.15s-.22-1.71-1.11-1.69a.39.39,0,0,0-.28.6,1,1,0,0,1,.23,1.22c-.33.65-.93,1.12-1.2,1.81a1.88,1.88,0,0,0,.48,2.15,2.19,2.19,0,0,0,2.11.45,2,2,0,0,0,.88-.62A1.51,1.51,0,0,0,482.17,184.2Z" transform="translate(-27.76 -23.29)"/><path class="cls-9" d="M500.1,147.36a34.24,34.24,0,0,0-11.68-4.72l-.2,0a26.22,26.22,0,0,0-6.74,2.71,18.91,18.91,0,0,0-5.33,4.05c-1.54,1.81-5.34,10.74-.76,10.42,2.48-.17,5.28-1.42,7.64-2.18,2.54-.82,5.06-1.73,7.54-2.73,2,5.82,7.18,9.87,12.1,13.56,2.48,1.87,3.18,3.93,5.66,5.79-1.14,5.64-3,14.24-8.56,16.17a11.28,11.28,0,0,0,3,.16c3.67-3.47,7-7.57,8-10.54C513,173.9,510,153.45,500.1,147.36Z" transform="translate(-27.76 -23.29)"/><path class="cls-13" d="M532.51,155.91c-2.34-18.24-27.35-39.74-40.24-27.8-13.29,3.79-16.72,6.72-16.72,6.72-16.48-.33-10.47,14.52-10.47,14.52a18.49,18.49,0,0,0,4.34,5.54c6.53-13,23.41-6.59,27.15-1.25a17.62,17.62,0,0,0,.05,3.08,19.62,19.62,0,0,0,1.54,5.73,20,20,0,0,0,7.6,8.73,16.8,16.8,0,0,0,1.66.93l2.74,6.63C522,176,534.58,172.07,532.51,155.91Zm-29.67,11.15a18.47,18.47,0,0,1-3.89-6,8.57,8.57,0,0,0,5.49,3.87l2.13,5.14A19.1,19.1,0,0,1,502.84,167.06Z" transform="translate(-27.76 -23.29)"/><path class="cls-15" d="M502.16,126.16s12.57,1.3,26.85,30.25c5.46,11.06,5.1,26.6,4.93,34.58,0-1.35,5.15-21.91-4-41.12-2.73-5.76-5.93-11.46-10.64-15.82a31,31,0,0,0-7.61-5.23,27.93,27.93,0,0,0-4.4-1.69c-.78-.23-1.57-.43-2.36-.59S502.89,125.92,502.16,126.16Z" transform="translate(-27.76 -23.29)"/><path class="cls-16" d="M493,133.25c-2.79-1.16-5.43-2.11-7.83-2.88a44.31,44.31,0,0,0-8.94,4l5.7,12.87a22,22,0,0,1,10.6,2.94l5.28-4.07,13.73,17.94S504,137.84,493,133.25Z" transform="translate(-27.76 -23.29)"/><path class="cls-13" d="M495.25,143.88c-15.91-29.89-40,11.8-34.74,21.62,0,.1.07.22.12.32a5.71,5.71,0,0,0,3.73,3.13c3.34.93,7.07-.61,10.05-2a39.06,39.06,0,0,0,15.1-13.1,38.63,38.63,0,0,0,3.81-6.74A32.7,32.7,0,0,0,495.25,143.88ZM483.38,159a39.08,39.08,0,0,1-7.57,5.59,33.09,33.09,0,0,1-4.17,2,15.52,15.52,0,0,1-4.83,1.21,6.3,6.3,0,0,1-2.42-.31,8.7,8.7,0,0,0,2-.36,48.73,48.73,0,0,0,22.37-14.28A42,42,0,0,1,483.38,159Z" transform="translate(-27.76 -23.29)"/><path class="cls-15" d="M462.51,158.39s16.66-3.75,27.54-14.64c0,0-5,13.27-17.57,17.08C466.93,162.51,462.51,158.39,462.51,158.39Z" transform="translate(-27.76 -23.29)"/><path class="cls-13" d="M513.22,173.07s-2.81,14.58-16.59,18.58c0,0,5.78,4.56,12.53,3.81,0,0-5.83,4.75-13,4.43,0,0,11.07,6.47,21-1.56s9.23-28.45,9.23-28.45Z" transform="translate(-27.76 -23.29)"/><path class="cls-16" d="M508.29,181.67s5,8.62,12.37,5.43c14.76-6.39,3.77-31,3.77-31Z" transform="translate(-27.76 -23.29)"/><path class="cls-17" d="M475.55,134.83s7.75-4.78,16.52,2.09,14.24,17.89,14.24,17.89l4.08-3.46s-8.4-14.77-15.62-18.14S479.14,130.92,475.55,134.83Z" transform="translate(-27.76 -23.29)"/><path class="cls-18" d="M508.87,156.05s-7.09-17.22-17.94-22.11-15.38.89-15.38.89,4.29-5.39,13.67-6.67c0,0,16-3.57,26.18,24.45Z" transform="translate(-27.76 -23.29)"/><path class="cls-19" d="M508.87,156.05l6.53-3.44a70.5,70.5,0,0,0-2.78-6.61,10.65,10.65,0,0,0-6.6,4.29A62.66,62.66,0,0,1,508.87,156.05Z" transform="translate(-27.76 -23.29)"/><path class="cls-18" d="M528,165.36c1.63,10.66-2.95,20.21-10.23,21.32s-14.5-6.63-16.13-17.29,2.95-20.22,10.23-21.33S526.4,154.69,528,165.36Z" transform="translate(-27.76 -23.29)"/><path class="cls-20" d="M515.3,149.73a5.3,5.3,0,0,0-3.68.07,10.18,10.18,0,0,0-3.29,2,16.45,16.45,0,0,0-4.33,6.64,22.15,22.15,0,0,0,.1,15.31,18.74,18.74,0,0,0,4.67,7.15c.19.18.51-.1.34-.31a22.94,22.94,0,0,1-5-13.29c-.17-4.71,1.06-9.79,4.22-13.4a11,11,0,0,1,3.12-2.55,11.64,11.64,0,0,1,3.73-1.11C515.46,150.24,515.59,149.83,515.3,149.73Z" transform="translate(-27.76 -23.29)"/><ellipse class="cls-17" cx="519.09" cy="165.45" rx="8.85" ry="12.97" transform="translate(-46.8 57.04) rotate(-8.69)"/><path class="cls-20" d="M520,174.37c-1.7-.14-3.12-1.92-4-3.27a14.7,14.7,0,0,1-1.8-4.6,17.19,17.19,0,0,1-.33-5,8,8,0,0,1,1.85-5,5.43,5.43,0,0,1,2.15-1.29,3.91,3.91,0,0,1,2.63.19.37.37,0,0,0,.4-.62c-1.31-1.29-3.69-1-5.14-.15a7.42,7.42,0,0,0-3.2,5.11,15.75,15.75,0,0,0,2.18,11.6,12.19,12.19,0,0,0,2.09,2.33,4,4,0,0,0,3.09,1.31C520.27,174.94,520.35,174.4,520,174.37Z" transform="translate(-27.76 -23.29)"/><path class="cls-8" d="M414.27,279.63H296.6a24.45,24.45,0,0,0-24.12,20.52l-21,128.93a24.45,24.45,0,0,0,24.13,28.37h88.92a24.44,24.44,0,0,0,24.12-20.51Z" transform="translate(-27.76 -23.29)"/><path class="cls-5" d="M541,447.51a22.22,22.22,0,0,1-21.93-18.65L498.18,300.34a24.67,24.67,0,0,0-24.35-20.71h-177a24.66,24.66,0,0,0-24.34,20.71L251.51,428.92a24.58,24.58,0,0,0,24.26,28.53h15.65l-6.9-.06a24.59,24.59,0,0,1-24.06-28.53l20.9-128.31a14,14,0,0,1,13.85-11.78h180.1a14,14,0,0,1,13.85,11.78L511.68,438.8a22.22,22.22,0,0,0,21.93,18.65H570v-9.94Z" transform="translate(-27.76 -23.29)"/><path class="cls-5" d="M281.36,300.55a14,14,0,0,1,13.85-11.78h29.22v-9.14H296.79a24.66,24.66,0,0,0-24.34,20.71L251.51,428.92a24.58,24.58,0,0,0,24.26,28.53h15.65l-6.9-.06a24.59,24.59,0,0,1-24.06-28.53Z" transform="translate(-27.76 -23.29)"/><path class="cls-21" d="M657.6,429.08l-21-128.93a24.45,24.45,0,0,0-24.12-20.52H474.65c11.62,0,21.33,10,23.4,19.9l22.37,137.41a24.46,24.46,0,0,0,24.13,20.51h88.92A24.45,24.45,0,0,0,657.6,429.08Z" transform="translate(-27.76 -23.29)"/><path class="cls-22" d="M498.6,302.91H637.05l-.45-2.76c0-.21-.09-.4-.13-.61H498.05Z" transform="translate(-27.76 -23.29)"/><path class="cls-22" d="M497.29,296.81h138.5a24.42,24.42,0,0,0-23.31-17.18H474.65C485.21,279.63,494.18,287.89,497.29,296.81Z" transform="translate(-27.76 -23.29)"/><polygon class="cls-22" points="610.09 284.52 609.81 282.84 471.36 282.84 471.63 284.52 610.09 284.52"/><path class="cls-8" d="M270.1,279.63H152.43a24.44,24.44,0,0,0-24.12,20.52l-21,128.93a24.44,24.44,0,0,0,24.12,28.37h88.93a24.44,24.44,0,0,0,24.12-20.51Z" transform="translate(-27.76 -23.29)"/><path class="cls-6" d="M113.69,389.91l-6.38,39.17a24.44,24.44,0,0,0,24.12,28.37h88.93a24.44,24.44,0,0,0,24.12-20.51l7.66-47Z" transform="translate(-27.76 -23.29)"/><polygon class="cls-6" points="86.42 363.57 224.88 363.57 225.61 359.08 87.16 359.08 86.42 363.57"/><polygon class="cls-6" points="87.42 357.44 225.87 357.44 226.15 355.77 87.69 355.77 87.42 357.44"/><polygon class="cls-6" points="89.79 342.89 228.24 342.89 228.38 342.05 89.93 342.05 89.79 342.89"/><path class="cls-2" d="M396.87,447.51a22.22,22.22,0,0,1-21.93-18.65L354,300.34a24.68,24.68,0,0,0-24.35-20.71h-177a24.66,24.66,0,0,0-24.34,20.71L107.34,428.92a24.58,24.58,0,0,0,24.26,28.53h15.65l-6.9-.06a24.59,24.59,0,0,1-24.06-28.53l20.9-128.31A14,14,0,0,1,151,288.77h180.1A14,14,0,0,1,345,300.55L367.51,438.8a22.22,22.22,0,0,0,21.93,18.65h36.4v-9.94Z" transform="translate(-27.76 -23.29)"/><path class="cls-4" d="M137.19,300.55A14,14,0,0,1,151,288.77h31.77v-9.14H152.62a24.66,24.66,0,0,0-24.34,20.71L107.34,428.92a24.58,24.58,0,0,0,24.26,28.53h15.65l-6.9-.06a24.59,24.59,0,0,1-24.06-28.53Z" transform="translate(-27.76 -23.29)"/><path class="cls-21" d="M513.43,429.08l-21-128.93a24.45,24.45,0,0,0-24.12-20.52H330.48c11.62,0,20.93,9,23.4,19.9l22.37,137.41a24.45,24.45,0,0,0,24.13,20.51H489.3A24.45,24.45,0,0,0,513.43,429.08Z" transform="translate(-27.76 -23.29)"/><path class="cls-22" d="M468.31,279.63H330.48c10.68,0,19,7.62,22.77,17.18H491.62A24.43,24.43,0,0,0,468.31,279.63Z" transform="translate(-27.76 -23.29)"/><path class="cls-22" d="M492.43,300.15c0-.21-.09-.4-.13-.61H353.88l.55,3.37H492.88Z" transform="translate(-27.76 -23.29)"/><polygon class="cls-22" points="465.64 282.84 327.19 282.84 327.46 284.52 465.92 284.52 465.64 282.84"/><rect class="cls-8" x="273.87" y="122.88" width="171.84" height="101.81"/><rect class="cls-7" x="440.67" y="122.88" width="5.04" height="101.81"/><rect class="cls-3" x="315.27" y="148.23" width="82.59" height="47.13" rx="5.81"/><rect class="cls-6" x="318.05" y="150.85" width="74.03" height="43.15" rx="5.26"/><rect class="cls-8" x="340.86" y="182.91" width="26.21" height="73.43"/><rect class="cls-7" x="266.28" y="198.7" width="26.21" height="57.65"/><rect class="cls-3" x="196.69" y="127.41" width="171.84" height="101.81"/><rect class="cls-7" x="363.49" y="127.41" width="5.04" height="101.81"/><rect class="cls-1" x="201.58" y="131.92" width="155.61" height="88.8"/><g class="cls-23"><polygon class="cls-5" points="267.19 147.73 253.07 177.31 223.49 163.19 203.75 170.17 210.74 189.91 240.31 204.02 226.19 233.6 233.18 253.35 252.91 246.35 267.03 216.78 296.61 230.9 316.35 223.93 309.36 204.18 279.78 190.06 293.9 160.48 286.93 140.75 267.19 147.73"/><polygon class="cls-5" points="218.11 160.62 212.73 158.06 192.99 165.03 199.98 184.77 205.36 187.34 198.37 167.6 218.11 160.62"/><polygon class="cls-5" points="207.36 155.49 201.98 152.92 182.24 159.9 189.23 179.64 194.6 182.21 187.62 162.47 207.36 155.49"/><polygon class="cls-5" points="301.98 233.47 307.36 236.04 327.1 229.06 320.11 209.32 314.73 206.76 321.72 226.49 301.98 233.47"/><polygon class="cls-5" points="312.73 238.6 318.11 241.17 337.85 234.19 330.86 214.46 325.49 211.89 332.48 231.63 312.73 238.6"/><polygon class="cls-5" points="296.47 155.11 299.04 149.74 292.06 129.99 272.32 136.98 269.75 142.36 289.49 135.37 296.47 155.11"/><polygon class="cls-5" points="301.6 144.36 304.17 138.98 297.19 119.24 277.45 126.23 274.89 131.61 294.63 124.62 301.6 144.36"/><polygon class="cls-5" points="306.74 133.6 309.3 128.23 302.32 108.49 282.59 115.47 276.31 121 296.05 114.02 306.74 133.6"/><polygon class="cls-5" points="223.62 238.98 221.06 244.36 228.03 264.1 247.77 257.11 250.34 251.73 230.6 258.72 223.62 238.98"/><path class="cls-24" d="M351.74,164H341.6l-5.06-8.78,5.06-8.78h10.14l5.07,8.78Zm-9.57-1h9l4.51-7.8-4.51-7.8h-9l-4.5,7.8Z" transform="translate(-27.76 -23.29)"/><path class="cls-24" d="M366.09,172.28H356l-5.07-8.78,5.07-8.78h10.13l5.07,8.78Zm-9.57-1h9l4.5-7.8-4.5-7.8h-9l-4.5,7.8Z" transform="translate(-27.76 -23.29)"/><path class="cls-24" d="M366.09,188.85H356l-5.07-8.77L356,171.3h10.13l5.07,8.78Zm-9.57-1h9l4.5-7.79-4.5-7.8h-9l-4.5,7.8Z" transform="translate(-27.76 -23.29)"/><path class="cls-24" d="M394.81,188.85H384.67l-5.07-8.77,5.07-8.78h10.14l5.06,8.78Zm-9.58-1h9l4.5-7.79-4.5-7.8h-9l-4.5,7.8Z" transform="translate(-27.76 -23.29)"/><path class="cls-24" d="M351.74,213.72H341.6l-5.06-8.78,5.06-8.78h10.14l5.07,8.78Zm-9.57-1h9l4.51-7.8-4.51-7.8h-9l-4.5,7.8Z" transform="translate(-27.76 -23.29)"/><path class="cls-24" d="M380.45,213.72H370.31l-5.06-8.78,5.06-8.78h10.14l5.07,8.78Zm-9.57-1h9l4.51-7.8-4.51-7.8h-9l-4.5,7.8Z" transform="translate(-27.76 -23.29)"/><path class="cls-24" d="M366.09,238.58H356l-5.07-8.78L356,221h10.13l5.07,8.77Zm-9.57-1h9l4.5-7.8-4.5-7.79h-9L352,229.8Z" transform="translate(-27.76 -23.29)"/><path class="cls-24" d="M380.45,180.57H370.31l-5.06-8.78,5.06-8.78h10.14l5.07,8.78Zm-9.57-1h9l4.51-7.8-4.51-7.8h-9l-4.5,7.8Z" transform="translate(-27.76 -23.29)"/><path class="cls-24" d="M380.45,164H370.31l-5.06-8.78,5.06-8.78h10.14l5.07,8.78Zm-9.57-1h9l4.51-7.8-4.51-7.8h-9l-4.5,7.8Z" transform="translate(-27.76 -23.29)"/><path class="cls-24" d="M409.16,180.57H399L394,171.79,399,163h10.14l5.07,8.78Zm-9.57-1h9l4.51-7.8-4.51-7.8h-9l-4.5,7.8Z" transform="translate(-27.76 -23.29)"/><path class="cls-24" d="M409.16,164H399L394,155.21l5.06-8.78h10.14l5.07,8.78Zm-9.57-1h9l4.51-7.8-4.51-7.8h-9l-4.5,7.8Z" transform="translate(-27.76 -23.29)"/><path class="cls-24" d="M394.81,155.7H384.67l-5.07-8.78,5.07-8.77h10.14l5.06,8.77Zm-9.58-1h9l4.5-7.8-4.5-7.79h-9l-4.5,7.79Z" transform="translate(-27.76 -23.29)"/><path class="cls-24" d="M337.38,188.85H327.25l-5.07-8.77,5.07-8.78h10.13l5.07,8.78Zm-9.57-1h9l4.5-7.79-4.5-7.8h-9l-4.5,7.8Z" transform="translate(-27.76 -23.29)"/><path class="cls-24" d="M323,180.57H312.89l-5.06-8.78,5.06-8.78H323l5.07,8.78Zm-9.57-1h9l4.51-7.8-4.51-7.8h-9l-4.5,7.8Z" transform="translate(-27.76 -23.29)"/><path class="cls-24" d="M308.67,172.28H298.54l-5.07-8.78,5.07-8.78h10.13l5.07,8.78Zm-9.57-1h9l4.5-7.8-4.5-7.8h-9l-4.5,7.8Z" transform="translate(-27.76 -23.29)"/><path class="cls-24" d="M337.38,155.7H327.25l-5.07-8.78,5.07-8.77h10.13l5.07,8.77Zm-9.57-1h9l4.5-7.8-4.5-7.79h-9l-4.5,7.79Z" transform="translate(-27.76 -23.29)"/></g><path class="cls-5" d="M329.09,219.46H285.48a10,10,0,0,1-10-10h0a10,10,0,0,1,10-10h43.61a10,10,0,0,1,10,10h0A10,10,0,0,1,329.09,219.46Z" transform="translate(-27.76 -23.29)"/><path class="cls-8" d="M328.81,218H285.2a10,10,0,0,1-10-10h0a10,10,0,0,1,10-10h43.61a10,10,0,0,1,10,10h0A10,10,0,0,1,328.81,218Z" transform="translate(-27.76 -23.29)"/><path class="cls-25" d="M285.2,216.55a8.51,8.51,0,1,1,0-17h43.61a8.51,8.51,0,0,1,0,17Z" transform="translate(-27.76 -23.29)"/><path class="cls-26" d="M277.42,208a7.79,7.79,0,0,1,7.78-7.78h43.61a7.79,7.79,0,0,1,7.78,7.78Z" transform="translate(-27.76 -23.29)"/><g class="cls-27"><text class="cls-28" transform="translate(259.21 190.1)"><tspan class="cls-29">S</tspan><tspan class="cls-30" x="7.95" y="0">T</tspan><tspan x="15.33" y="0">A</tspan><tspan class="cls-29" x="25.02" y="0">R</tspan><tspan x="34.2" y="0">T</tspan></text></g><text class="cls-31" transform="translate(258.23 189.12)"><tspan class="cls-29">S</tspan><tspan class="cls-30" x="7.95" y="0">T</tspan><tspan x="15.33" y="0">A</tspan><tspan class="cls-29" x="25.02" y="0">R</tspan><tspan x="34.2" y="0">T</tspan></text><g class="cls-27"><text class="cls-32" transform="translate(262.3 170.63)">Pl<tspan class="cls-33" x="9.35" y="0">a</tspan><tspan class="cls-34" x="14.84" y="0">y</tspan><tspan x="20.12" y="0">er 1</tspan></text></g><text class="cls-35" transform="translate(261.33 169.65)">Pl<tspan class="cls-33" x="9.35" y="0">a</tspan><tspan class="cls-34" x="14.84" y="0">y</tspan><tspan x="20.12" y="0">er 1</tspan></text><polygon class="cls-5" points="357.19 135.74 201.57 131.92 357.19 131.92 357.19 135.74"/><rect class="cls-8" x="182.63" y="247.94" width="165.15" height="8.61"/><path class="cls-36" d="M215.41,437.45a17.2,17.2,0,0,0-4,13.41c8.75,8.51,63.45,4.16,67.32-11.21-2.65-13.52-33.53-9.34-33.53-9.34Z" transform="translate(-27.76 -23.29)"/><path class="cls-37" d="M245.57,430.27l-.33,0-29.83,7.14A16,16,0,0,0,212,444a20,20,0,0,0,12.67,1.5,27,27,0,0,0,5.23-1.8A35.55,35.55,0,0,0,245.57,430.27Z" transform="translate(-27.76 -23.29)"/><path class="cls-12" d="M211.45,450.86a54.55,54.55,0,0,0,20.31,1.5c26.11-2.85,35.74-8.23,46.9-13.11,0,0,.55,5,0,7.07,0,0-10.17,10.48-44.12,13.42-17.29,1.5-22.81-2.29-22.81-2.29Z" transform="translate(-27.76 -23.29)"/><path class="cls-11" d="M241.29,451.1c-2.92.46-6.07.88-9.53,1.26a54.55,54.55,0,0,1-20.31-1.5l.28,6.59s5.52,3.79,22.81,2.29c2.37-.2,4.61-.45,6.75-.72Z" transform="translate(-27.76 -23.29)"/><path class="cls-4" d="M207.24,344.1c-2,28.58,9.06,56.38,7.21,94.12,0,0,2.63,3.07,12.58,2.17s22.38-10.69,22.38-10.69l1.21-90.43Z" transform="translate(-27.76 -23.29)"/><path class="cls-9" d="M226.33,177.34c0,.91-4.32,14.39-14.56,21.76,0,0,18.1,11.76,32.58,3.62L251,184.09Z" transform="translate(-27.76 -23.29)"/><path class="cls-38" d="M237.06,184.93a41.81,41.81,0,0,0,6.62,18.13l.67-.34,3.42-9.58Z" transform="translate(-27.76 -23.29)"/><path class="cls-9" d="M272.36,171.34l.65,15.19c.35,3.27-9.8,16.75-14.18,16-8.43-1.5-16.74-3.85-23.08-18.33,0,0-14.48,3.62-13.57-16.29s13.57-30.77,29-31.67,20.81,15.38,21.71,19.9S272.36,171.34,272.36,171.34Z" transform="translate(-27.76 -23.29)"/><path class="cls-39" d="M273,186.53l-.6-14c-.09.34-.16.68-.22,1-.57,3.39,0,6.85.13,10.25.16,3.81-3.11,7.44-5.36,10.22a28.85,28.85,0,0,1-10.15,8.13l2,.38C263.21,203.28,273.36,189.8,273,186.53Z" transform="translate(-27.76 -23.29)"/><path class="cls-38" d="M272.85,156.11c-.84-4.23-5.66-18.8-18.92-19.88a15.21,15.21,0,0,0,.19,15.53s3.48,10.07,19,11.1A31.49,31.49,0,0,0,272.85,156.11Z" transform="translate(-27.76 -23.29)"/><path class="cls-8" d="M249.78,133.94c-3.18-5.55-13.59-6.08-23.92,4.68s-9.56,20.66-4.13,27c0,0-10,8.14-4.53,13.57s27.15,3.62,32.58-13.57S253.4,140.28,249.78,133.94Z" transform="translate(-27.76 -23.29)"/><path class="cls-40" d="M237.26,130.91c-.61.22-1.26.47-1.94.75a31,31,0,0,0-9.46,7c-7.24,7.56-9,14.72-7.55,20.51,1.3-4.84,4.66-16.63,7.34-19.16s12.61-7.94,16.32-9.9A15.48,15.48,0,0,0,237.26,130.91Z" transform="translate(-27.76 -23.29)"/><path class="cls-18" d="M249.76,159.76s-2.7-16.77,0-25.82l10,.91s-1.1,17.14.36,25.76Z" transform="translate(-27.76 -23.29)"/><path class="cls-19" d="M249.12,154.74c.31,3,.64,5,.64,5l10.33.85c-.14-.8-.25-1.67-.34-2.59a13.24,13.24,0,0,0-8.74-3.43A11.85,11.85,0,0,0,249.12,154.74Z" transform="translate(-27.76 -23.29)"/><path class="cls-8" d="M259.78,151.76c-.27.12,3.52,13.53,26.2,11,0,0,1.47-36.67-25.7-27.58A15.37,15.37,0,0,0,259.78,151.76Z" transform="translate(-27.76 -23.29)"/><path class="cls-40" d="M267.53,133.71a24.12,24.12,0,0,1,10.65,9.23c4.52,7.31,7,12.29,7.8,19.52C286.05,159.58,286.11,133,267.53,133.71Z" transform="translate(-27.76 -23.29)"/><ellipse class="cls-19" cx="225.64" cy="152.28" rx="15.46" ry="19.58"/><ellipse class="cls-18" cx="227.45" cy="152.28" rx="13.65" ry="17.97"/><path class="cls-20" d="M267.77,172.26a16.59,16.59,0,0,0-1.12-4.94c-1.22-3-3.25-6.11-5.91-7.53a12.22,12.22,0,0,0-4.54-1.25,8.85,8.85,0,0,0-8.56,3.89c-.1.17.12.35.24.21a9.28,9.28,0,0,1,7.36-2.84,12.73,12.73,0,0,1,4.28.92c2.61,1.06,4.35,3.88,5.65,6.52a13.38,13.38,0,0,1,1.21,4.39,31.46,31.46,0,0,1-.47,9.44,19,19,0,0,1-1.57,4.76,12.87,12.87,0,0,1-1.21,2c-.46.61-1,1.14-1.49,1.72a.43.43,0,0,0,.48.69,8.53,8.53,0,0,0,3-3.13,15.75,15.75,0,0,0,1.86-4.4,28.75,28.75,0,0,0,.81-5.23A32.37,32.37,0,0,0,267.77,172.26Z" transform="translate(-27.76 -23.29)"/><ellipse class="cls-17" cx="227.99" cy="151.87" rx="8.14" ry="10.31"/><path class="cls-20" d="M262.54,170.85a7.15,7.15,0,0,0-3.85-4.68,6.58,6.58,0,0,0-5.73,0,7.17,7.17,0,0,0-3.64,5c0,.25.32.36.39.11a6.09,6.09,0,0,1,8-3.95,5.68,5.68,0,0,1,3.37,3.6,14.72,14.72,0,0,1,.27,5.84,9.51,9.51,0,0,1-2.52,6.1.36.36,0,0,0,.44.57c2-1.11,2.91-3.46,3.26-5.6A17.08,17.08,0,0,0,262.54,170.85Z" transform="translate(-27.76 -23.29)"/><path class="cls-36" d="M309.4,443.23s-6.9,4.44-4,13.42c8.75,8.5,65.11.52,69.84-5.26,3.26-14.05-36-15.29-36-15.29Z" transform="translate(-27.76 -23.29)"/><path class="cls-37" d="M336.11,436.84l-26.71,6.39A11.41,11.41,0,0,0,305,449.7a11.27,11.27,0,0,0,5.34,2.08,17.62,17.62,0,0,0,7.8-1.27A38.18,38.18,0,0,0,336.11,436.84Z" transform="translate(-27.76 -23.29)"/><path class="cls-12" d="M305.44,456.65a68.15,68.15,0,0,0,20.31,1.49c11.6-.83,38.37-1.87,49.53-6.75,0,0,.55,5,0,7.07,0,0-17.27,7.06-46.75,7.06-21.07,0-23.61-1.73-23.61-1.73Z" transform="translate(-27.76 -23.29)"/><path class="cls-11" d="M329,465.52v-7.59l-.71,0v7.55H329Z" transform="translate(-27.76 -23.29)"/><path class="cls-11" d="M324.09,458.23a67.8,67.8,0,0,1-18.65-1.58l-.52,7.14s2.18,1.48,19.17,1.7Z" transform="translate(-27.76 -23.29)"/><path class="cls-11" d="M326.82,458.07l-1.07.07-.8,0v7.32l1.87,0Z" transform="translate(-27.76 -23.29)"/><path class="cls-9" d="M473.43,174.47" transform="translate(-27.76 -23.29)"/><path class="cls-2" d="M246.16,308.59s56.23-9.58,82.48,7.62c0,0,10.6,10.83,10.17,18.89-1.37,25.7,2.08,78.09,0,102.89,0,0-14.16,12.61-32,8.11,0,0-3.67-44.26-5.48-69.6V346.88s-37.1,2.43-70.58,2.43c-31,0-72.4,7.24-63.35-38Z" transform="translate(-27.76 -23.29)"/><path class="cls-41" d="M238.49,308.86l-8.87.3-22.38,13.26s13.32,9.58,23.82,1.88C237.09,319.87,238.05,312.76,238.49,308.86Z" transform="translate(-27.76 -23.29)"/><path class="cls-4" d="M308.12,389.91c-4-22.18,6.13-49.05,6.13-49.05a274.42,274.42,0,0,0-55.42-3.1c-29.17,1.55-59.08,4.65-67.55,4.65S178,325.31,178,325.31l-3.34-14.25-7.24.25c-9.05,45.24,32.37,38,63.35,38,33.48,0,70.58-2.43,70.58-2.43V376.5c1.81,25.34,5.48,69.6,5.48,69.6a31.69,31.69,0,0,0,9.41.93C317.51,427.58,311.15,406.6,308.12,389.91Z" transform="translate(-27.76 -23.29)"/><path class="cls-4" d="M225.53,315.18c-5,3.29-9.78,6.74-15,9.68a16,16,0,0,0,10.78,2.33,16.94,16.94,0,0,0,12-8.12,17.7,17.7,0,0,0,2.21-9.83C232.17,311.18,228.71,313.07,225.53,315.18Z" transform="translate(-27.76 -23.29)"/><path class="cls-4" d="M321,326c-.95.08-1.71,1-2.33,1.65a19.32,19.32,0,0,0-1.88,2.25,17.57,17.57,0,0,0-2.5,5.15c-.15.5.6.69.77.21a16.45,16.45,0,0,1,4.39-6.64c.34-.3.68-.56,1-.82a3,3,0,0,0,1-1C321.61,326.51,321.45,326,321,326Z" transform="translate(-27.76 -23.29)"/><path class="cls-4" d="M329,332.21c-.53-.17-1,.13-1.4.38l-1.17.66-2.52,1.41c-1.68.94-3.35,1.89-5,2.87-.59.34-.07,1.19.53.9q2.6-1.28,5.17-2.59l2.57-1.32,1.2-.62c.46-.23.9-.41,1.05-.95A.61.61,0,0,0,329,332.21Z" transform="translate(-27.76 -23.29)"/><path class="cls-4" d="M329.88,341.41a2.57,2.57,0,0,0-1.5.48,8.92,8.92,0,0,1-1.49.64,17.09,17.09,0,0,1-3.15.79,17.93,17.93,0,0,1-6.57-.28.29.29,0,0,0-.15.55,15.66,15.66,0,0,0,6.88.91,18.09,18.09,0,0,0,3.36-.62c.58-.17,1.14-.39,1.71-.59a2.21,2.21,0,0,0,1.41-1A.59.59,0,0,0,329.88,341.41Z" transform="translate(-27.76 -23.29)"/><path class="cls-4" d="M335.76,434.83c-1.87.67-3.7,1.41-5.6,2s-3.76,1.06-5.68,1.45a53.91,53.91,0,0,1-5.79.87c-1,.09-1.91.16-2.87.2l-1.44.05a5.76,5.76,0,0,0-1.66.1.82.82,0,0,0,0,1.56,5.13,5.13,0,0,0,1.66.08l1.44-.07c1-.06,2.05-.16,3.07-.28a51.08,51.08,0,0,0,5.88-1.08,45.32,45.32,0,0,0,5.69-1.81,34.34,34.34,0,0,0,5.47-2.62C336.15,435.13,336,434.74,335.76,434.83Z" transform="translate(-27.76 -23.29)"/><path class="cls-41" d="M266.44,307c-.53.2-.76.65-1.13,1.07s-.72.82-1.08,1.25c-.69.81-1.35,1.64-2,2.5s-1.22,1.69-1.79,2.56a19.48,19.48,0,0,0-1.64,2.87.38.38,0,0,0,.65.38c.63-.83,1.16-1.74,1.76-2.6s1.23-1.71,1.89-2.54,1.29-1.56,2-2.31c.35-.38.7-.77,1.07-1.14s.9-.68,1.1-1.21A.68.68,0,0,0,266.44,307Z" transform="translate(-27.76 -23.29)"/><path class="cls-41" d="M277.21,307.14a2.2,2.2,0,0,0-.67.41,1.48,1.48,0,0,0-.31.54c-.82,1-1.65,2-2.41,3.1a40.12,40.12,0,0,0-2.19,3.45.33.33,0,0,0,.56.33,30.8,30.8,0,0,1,2.32-3.24c.42-.52.84-1,1.3-1.5.22-.24.45-.48.68-.71a3.42,3.42,0,0,1,.7-.62A1.52,1.52,0,0,0,278,308,.67.67,0,0,0,277.21,307.14Z" transform="translate(-27.76 -23.29)"/><path class="cls-41" d="M274.43,307.1c.06-.45-.44-.68-.79-.61a1.86,1.86,0,0,0-.81.45,1.8,1.8,0,0,0-.48.58c-.44.54-.91,1.06-1.37,1.59l-1.47,1.72a.56.56,0,0,0,0,.77.54.54,0,0,0,.77,0c.55-.52,1.1-1,1.64-1.56s1.06-1,1.62-1.54A2.08,2.08,0,0,0,274.43,307.1Z" transform="translate(-27.76 -23.29)"/><path class="cls-41" d="M290.93,307a16.52,16.52,0,0,0-3.4,4,31,31,0,0,0-2.47,4.53,88.44,88.44,0,0,0-3.42,9.95.39.39,0,0,0,.75.21,73.58,73.58,0,0,1,3.77-9.41,33,33,0,0,1,2.44-4.24c.48-.68,1-1.35,1.52-2s1.19-1.2,1.74-1.84S291.67,306.47,290.93,307Z" transform="translate(-27.76 -23.29)"/><path class="cls-13" d="M217.51,193.75s-14.79,2.63-31.08,13.49c0,0-41.62,67.87-19,111.31a40,40,0,0,0,38.91,8.14c23.53-7.24,16.29-16.29,39.82-18.1,0,0,7.24-25.34,11.76-45.24s4.53-49.77,4.53-49.77l-18.1-10.86Z" transform="translate(-27.76 -23.29)"/><path class="cls-15" d="M258,210.92l-13.67-8.2-26.84-9s-1.74.31-4.69,1.16a35.52,35.52,0,0,1,7.54,2.77c1.84.92,3.6,2,5.35,3.08,7.68,4.73,19.65,10.87,25.3,17.89C254.09,215.6,258,210.92,258,210.92Z" transform="translate(-27.76 -23.29)"/><path class="cls-16" d="M257,228.05c-7.34,5.34-12.22,23-.85,42.76.62-2.53,1.21-5,1.76-7.46,2.59-11.4,3.7-26.06,4.17-36.51A6.9,6.9,0,0,0,257,228.05Z" transform="translate(-27.76 -23.29)"/><path class="cls-16" d="M207.24,196.72a98.38,98.38,0,0,0-20.81,10.52s-41.62,67.87-19,111.31A37.17,37.17,0,0,0,178,325.31l7.14-56.22a255.28,255.28,0,0,1,4.4-26.84c1.75-7.36,3.57-14.76,6.59-21.7C203.73,203.06,207.24,196.72,207.24,196.72Z" transform="translate(-27.76 -23.29)"/><path class="cls-16" d="M242.42,278.93s2.76,17.24-21.73,23.8a152.79,152.79,0,0,1-46,4.9l3.27-33.8Z" transform="translate(-27.76 -23.29)"/><path class="cls-8" d="M333.75,246.9H354a9.44,9.44,0,0,1,9.44,9.44v0a0,0,0,0,1,0,0H324.31a0,0,0,0,1,0,0v0A9.44,9.44,0,0,1,333.75,246.9Z"/><path class="cls-9" d="M286.88,236.4l22.62,29,38,1.81,9.95-6.33,19.91.9L390,272.6s-3.62,3.62-7.24,1.81-7.24,5.43-22.62,5.43H290.5s-22.62-15.38-31.67-28Z" transform="translate(-27.76 -23.29)"/><polygon class="cls-39" points="329.7 237.54 319.75 243.88 281.74 242.07 263.52 218.74 258.97 220.78 281.02 245.03 321.96 247.52 349.61 238.45 329.7 237.54"/><path class="cls-38" d="M269.35,263.15a208.8,208.8,0,0,0,17.52,14.13c5-10.8,7.64-22.83,8.84-29.58l-8.83-11.3L270,245.64Z" transform="translate(-27.76 -23.29)"/><path class="cls-13" d="M254.3,210.86c-10,7.24-15.38,37.1,18.1,64.25a48.28,48.28,0,0,0,25.23-26.44S267.5,201.27,254.3,210.86Z" transform="translate(-27.76 -23.29)"/><path class="cls-15" d="M297.63,248.67s-28.06-44.14-41.88-38.6c0,0,6.26,1.56,14.35,10.28s24.23,30.46,24.23,30.46l-5.26,12A46.92,46.92,0,0,0,297.63,248.67Z" transform="translate(-27.76 -23.29)"/><rect class="cls-42" x="188.53" y="330.54" width="17.19" height="97.73"/><rect class="cls-43" x="188.53" y="330.54" width="17.19" height="38.97"/><polygon class="cls-43" points="188.53 405.59 205.73 402.33 205.73 394.21 188.53 375.45 188.53 405.59"/><path class="cls-8" d="M295.93,357.46H150.24a8.14,8.14,0,0,1,8.14-8.15h129.4a8.15,8.15,0,0,1,8.15,8.15Z" transform="translate(-27.76 -23.29)"/><path class="cls-8" d="M295.48,369.22H151.6a5.89,5.89,0,0,1-5.89-5.88h0a5.89,5.89,0,0,1,5.89-5.88H295.48a5.88,5.88,0,0,1,5.88,5.88h0A5.88,5.88,0,0,1,295.48,369.22Z" transform="translate(-27.76 -23.29)"/><path class="cls-44" d="M292.28,363.34h-62a2.94,2.94,0,0,1-2.94-2.94h0a2.93,2.93,0,0,1,2.94-2.94h62a2.94,2.94,0,0,1,2.94,2.94h0A2.94,2.94,0,0,1,292.28,363.34Z" transform="translate(-27.76 -23.29)"/><circle class="cls-8" cx="159.45" cy="463.33" r="13.57" transform="translate(-308.69 225.16) rotate(-45)"/><circle class="cls-8" cx="297.58" cy="463.33" r="13.57" transform="translate(-268.23 322.83) rotate(-45)"/><rect class="cls-8" x="182.2" y="364.93" width="29.86" height="36.2"/><polyline class="cls-44" points="182.2 364.93 205.47 371.74 212.06 401.13 212.06 364.93 182.2 363.57"/><path class="cls-8" d="M312.76,457.15,227,444.28h0a17.19,17.19,0,0,1,20.52-12l52.89,10.24a16.07,16.07,0,0,1,12.32,14.68Z" transform="translate(-27.76 -23.29)"/><path class="cls-45" d="M305.93,456l6.83,1.16a16.07,16.07,0,0,0-12.32-14.68l-52.89-10.24s46.95,11.17,53.69,16C303.06,449.54,304.62,452.45,305.93,456Z" transform="translate(-27.76 -23.29)"/><path class="cls-8" d="M139.41,457.15l85.73-12.87h0a17.19,17.19,0,0,0-20.51-12l-52.9,10.24a16.08,16.08,0,0,0-12.32,14.68Z" transform="translate(-27.76 -23.29)"/><path class="cls-44" d="M150.3,446c7.88-3.16,54.79-13.53,56.85-14.11a18.3,18.3,0,0,0-2.52.39l-52.9,10.24a16.08,16.08,0,0,0-12.32,14.68l4.3-.73C144.19,453.39,145.68,447.81,150.3,446Z" transform="translate(-27.76 -23.29)"/><rect class="cls-7" x="118.31" y="203.48" width="102.63" height="69.53" rx="23.45"/><rect class="cls-8" x="118.31" y="200.24" width="96.34" height="76.01" rx="23.76"/><rect class="cls-46" x="126.57" y="225.38" width="49.4" height="30.26" rx="7.59"/><rect class="cls-18" x="131.3" y="230.47" width="33.14" height="20.06" rx="5.06"/><path class="cls-47" d="M184.53,278.93c-.56-9.15-1.62-15.58-1.62-15.58l-11.28,13.93-.29,1.65Z" transform="translate(-27.76 -23.29)"/><path class="cls-44" d="M231.06,373.23c-44.44,0-87.23-1.56-78.38-52.24,1.26-7.2,3.75-13,5.66-18.79,4-11.9,7.38-22.19,7.38-38.85h17.19c0,19.45-4,31.51-8.25,44.28-1.81,5.44-3.68,11.07-5.3,17.52-2.66,10.66-.66,21.3,5.5,29.19,7.37,9.44,26.85,14.43,56.2,14.43Z" transform="translate(-27.76 -23.29)"/><path class="cls-47" d="M231.06,373.23v-4.46c-25.93,0-44.14-3.9-53.12-11.31H159.55C173.05,372.55,201.69,373.23,231.06,373.23Z" transform="translate(-27.76 -23.29)"/><path class="cls-45" d="M165.1,325.15a35.47,35.47,0,0,0,5.5,29.19c8.5,12.21,31.11,14.43,60.46,14.43-29.35,0-48.83-5-56.2-14.43-6.16-7.89-8.16-18.53-5.5-29.19,1.62-6.45,3.49-12.08,5.3-17.52,4.24-12.77,8.25-24.83,8.25-44.28h-4.26c0,19.45-4,31.51-8.26,44.28C168.59,313.07,166.71,318.7,165.1,325.15Z" transform="translate(-27.76 -23.29)"/><path class="cls-44" d="M231.06,368.77c-25.93,0-44.14-3.9-53.12-11.31H173.3C183.32,366.94,204.41,368.77,231.06,368.77Z" transform="translate(-27.76 -23.29)"/><circle class="cls-8" cx="37.47" cy="214.14" r="37.43"/><circle class="cls-46" cx="32.7" cy="209.37" r="29.45"/><path class="cls-48" d="M63.37,216.21c-3,6.31-11,12.29-17.9,13.38s-10.06-3.16-7.06-9.46,11-12.29,17.9-13.37S66.36,209.91,63.37,216.21Z" transform="translate(-27.76 -23.29)"/><path class="cls-48" d="M37.64,234.14a7.45,7.45,0,0,1-1.26,6.1c-1.24,1.5-2.68,1.2-3.22-.67a7.45,7.45,0,0,1,1.26-6.1C35.66,232,37.1,232.27,37.64,234.14Z" transform="translate(-27.76 -23.29)"/><path class="cls-49" d="M95.4,202.24,85.23,212.41c-.75.76.3,3,2.36,5.09s4.34,3.11,5.09,2.36l10.17-10.17Z" transform="translate(-27.76 -23.29)"/><path class="cls-50" d="M102.85,209.69c-.76.76-3-.3-5.1-2.35s-3.11-4.34-2.35-5.1,3,.3,5.1,2.36S103.61,208.93,102.85,209.69Z" transform="translate(-27.76 -23.29)"/><polygon class="cls-9" points="71.95 182.78 71.26 182.08 74.54 178.81 81.27 178.67 81.41 171.67 88.42 171.52 88.55 164.99 89.53 165.01 89.37 172.48 82.37 172.63 82.23 179.63 74.95 179.78 71.95 182.78"/><path class="cls-51" d="M130.27,188.27a12.34,12.34,0,0,1-12.34-12.34h-1.15a12.35,12.35,0,0,1-12.34,12.34v1.15a12.34,12.34,0,0,1,12.34,12.33h1.15a12.33,12.33,0,0,1,12.34-12.33Z" transform="translate(-27.76 -23.29)"/><path class="cls-51" d="M89.91,161.38a7.14,7.14,0,0,1-7.14-7.14H82.1A7.15,7.15,0,0,1,75,161.38v.67a7.15,7.15,0,0,1,7.15,7.15h.67a7.15,7.15,0,0,1,7.14-7.15Z" transform="translate(-27.76 -23.29)"/><path class="cls-51" d="M149,181.46a4.38,4.38,0,0,1-4.38-4.38h-.4a4.38,4.38,0,0,1-4.38,4.38v.41a4.38,4.38,0,0,1,4.38,4.37h.4a4.38,4.38,0,0,1,4.38-4.37Z" transform="translate(-27.76 -23.29)"/><path class="cls-9" d="M387.55,443.66h0A10.69,10.69,0,0,1,377,431.39L380.61,407h13.88l3.63,24.38A10.69,10.69,0,0,1,387.55,443.66Z" transform="translate(-27.76 -23.29)"/><path class="cls-11" d="M384.71,438.76h0a7.48,7.48,0,0,1-7.4-8.59l2.54-17.08h9.72l2.55,17.08A7.49,7.49,0,0,1,384.71,438.76Z" transform="translate(-27.76 -23.29)"/><polygon class="cls-9" points="368.31 394.36 366.72 383.72 352.84 383.72 351.63 391.86 368.31 394.36"/><path class="cls-5" d="M347.51,414.71a40,40,0,1,1,80.07,0Z" transform="translate(-27.76 -23.29)"/><path class="cls-52" d="M394.52,380.8c-2.7-5.12-13.63-4.68-24.41,1s-17.35,14.43-14.65,19.55,13.62,4.69,24.41-1S397.22,385.93,394.52,380.8Z" transform="translate(-27.76 -23.29)"/><path class="cls-53" d="M351.26,397.79a18.71,18.71,0,0,0,24-21.19A40.15,40.15,0,0,0,351.26,397.79Z" transform="translate(-27.76 -23.29)"/><path class="cls-53" d="M399.11,404.32c-5.4-5.41-12.64-6.94-16.16-3.42-3,3-2.31,8.81,1.4,13.81h20A17,17,0,0,0,399.11,404.32Z" transform="translate(-27.76 -23.29)"/><path class="cls-53" d="M404.38,394c7.51,5.55,15.78,7.47,20,5a40.09,40.09,0,0,0-30.23-23.73C391.91,379.86,396.25,388,404.38,394Z" transform="translate(-27.76 -23.29)"/><path class="cls-54" d="M548.19,356a19.54,19.54,0,1,1,19.54-19.54A19.56,19.56,0,0,1,548.19,356Zm0-38.1a18.56,18.56,0,1,0,18.56,18.56A18.58,18.58,0,0,0,548.19,317.93Z" transform="translate(-27.76 -23.29)"/><circle class="cls-13" cx="549.28" cy="336.49" r="25.58" transform="translate(-104.82 463.66) rotate(-45)"/><path class="cls-55" d="M549.28,310.91a24.55,24.55,0,0,0-2.86.16l-22.56,22.57a24.37,24.37,0,0,0-.17,2.85,25.43,25.43,0,0,0,3.64,13.15l35.1-35.1A25.52,25.52,0,0,0,549.28,310.91Z" transform="translate(-27.76 -23.29)"/><path class="cls-55" d="M524.66,329.52l17.65-17.64A25.62,25.62,0,0,0,524.66,329.52Z" transform="translate(-27.76 -23.29)"/><path class="cls-55" d="M550.11,315.32h-.42a21.17,21.17,0,1,1-21.57,21.58c0,.13,0,.27,0,.41a22,22,0,1,0,22-22Z" transform="translate(-27.76 -23.29)"/><path class="cls-16" d="M531.19,338a19.63,19.63,0,0,1,39.24-.77c0-.25,0-.51,0-.77a21.18,21.18,0,1,0-21.17,21.17h.77A19.63,19.63,0,0,1,531.19,338Z" transform="translate(-27.76 -23.29)"/><polygon class="cls-16" points="523.84 299.93 527.87 310.85 539.51 311.31 530.37 318.52 533.53 329.73 523.84 323.25 514.16 329.73 517.32 318.52 508.18 311.31 519.82 310.85 523.84 299.93"/><polygon class="cls-56" points="522.34 298.43 526.37 309.35 538.01 309.81 528.86 317.01 532.02 328.22 522.34 321.75 512.66 328.22 515.82 317.01 506.68 309.81 518.31 309.35 522.34 298.43"/><polygon class="cls-57" points="506.68 309.81 511.95 313.96 516.5 309.42 506.68 309.81"/><polygon class="cls-57" points="523.73 302.19 522.34 298.43 519.34 306.58 523.73 302.19"/><path class="cls-54" d="M694.62,151.26a12.52,12.52,0,1,1,12.52-12.52A12.52,12.52,0,0,1,694.62,151.26Zm0-24a11.54,11.54,0,1,0,11.54,11.53A11.54,11.54,0,0,0,694.62,127.21Z" transform="translate(-27.76 -23.29)"/><circle class="cls-13" cx="695.31" cy="138.74" r="16.15" transform="translate(185.67 635.55) rotate(-58.47)"/><path class="cls-55" d="M695.31,122.59a15.26,15.26,0,0,0-1.8.11l-14.25,14.24c-.06.6-.1,1.2-.1,1.8a16.08,16.08,0,0,0,2.3,8.31l22.15-22.16A16,16,0,0,0,695.31,122.59Z" transform="translate(-27.76 -23.29)"/><path class="cls-55" d="M679.77,134.34l11.14-11.13A16.17,16.17,0,0,0,679.77,134.34Z" transform="translate(-27.76 -23.29)"/><path class="cls-55" d="M695.83,125.38h-.26A13.36,13.36,0,1,1,682,139v.26a13.89,13.89,0,1,0,13.88-13.89Z" transform="translate(-27.76 -23.29)"/><path class="cls-16" d="M683.89,139.72a12.39,12.39,0,0,1,24.78-.49c0-.16,0-.32,0-.49a13.37,13.37,0,1,0-13.37,13.37h.49A12.4,12.4,0,0,1,683.89,139.72Z" transform="translate(-27.76 -23.29)"/><polygon class="cls-16" points="669.02 107.07 671.56 113.97 678.91 114.26 673.13 118.81 675.13 125.89 669.02 121.8 662.91 125.89 664.9 118.81 659.13 114.26 666.48 113.97 669.02 107.07"/><polygon class="cls-56" points="668.07 106.13 670.62 113.02 677.96 113.31 672.19 117.86 674.18 124.94 668.07 120.85 661.96 124.94 663.96 117.86 658.18 113.31 665.53 113.02 668.07 106.13"/><polygon class="cls-57" points="658.18 113.31 661.51 115.94 664.38 113.07 658.18 113.31"/><polygon class="cls-57" points="668.95 108.5 668.07 106.13 666.17 111.28 668.95 108.5"/><path class="cls-54" d="M53,413.71A17.74,17.74,0,1,1,70.75,396,17.75,17.75,0,0,1,53,413.71Zm0-34.5A16.76,16.76,0,1,0,69.77,396,16.77,16.77,0,0,0,53,379.21Z" transform="translate(-27.76 -23.29)"/><circle class="cls-13" cx="26.24" cy="372.68" r="23.16"/><path class="cls-55" d="M54,372.81a24.34,24.34,0,0,0-2.58.14L31,393.39a24.34,24.34,0,0,0-.14,2.58,23,23,0,0,0,3.29,11.9L65.9,376.1A23,23,0,0,0,54,372.81Z" transform="translate(-27.76 -23.29)"/><path class="cls-55" d="M31.72,389.66l16-16A23.2,23.2,0,0,0,31.72,389.66Z" transform="translate(-27.76 -23.29)"/><path class="cls-55" d="M54.75,376.8h-.38a19.17,19.17,0,1,1-19.53,19.53c0,.13,0,.25,0,.38A19.92,19.92,0,1,0,54.75,376.8Z" transform="translate(-27.76 -23.29)"/><path class="cls-16" d="M37.62,397.36a17.77,17.77,0,0,1,35.53-.69c0-.24,0-.47,0-.7A19.17,19.17,0,1,0,54,415.14l.7,0A17.77,17.77,0,0,1,37.62,397.36Z" transform="translate(-27.76 -23.29)"/><polygon class="cls-16" points="28.34 360.66 31.99 370.55 42.53 370.96 34.25 377.49 37.11 387.64 28.34 381.78 19.58 387.64 22.44 377.49 14.16 370.96 24.7 370.55 28.34 360.66"/><polygon class="cls-56" points="26.99 359.3 30.63 369.19 41.17 369.61 32.89 376.13 35.75 386.28 26.99 380.42 18.22 386.28 21.08 376.13 12.8 369.61 23.34 369.19 26.99 359.3"/><polygon class="cls-57" points="12.8 369.61 17.58 373.37 21.69 369.26 12.8 369.61"/><polygon class="cls-57" points="28.24 362.71 26.99 359.3 24.26 366.69 28.24 362.71"/><path class="cls-54" d="M44.28,89.6A13.33,13.33,0,1,1,57.61,76.27,13.35,13.35,0,0,1,44.28,89.6Zm0-25.68A12.35,12.35,0,1,0,56.63,76.27,12.37,12.37,0,0,0,44.28,63.92Z" transform="translate(-27.76 -23.29)"/><circle class="cls-13" cx="17.25" cy="52.98" r="17.25"/><path class="cls-55" d="M45,59a17.37,17.37,0,0,0-1.92.11L27.87,74.35a17.17,17.17,0,0,0,2.34,10.78L53.87,61.47A17.2,17.2,0,0,0,45,59Z" transform="translate(-27.76 -23.29)"/><path class="cls-55" d="M28.42,71.57,40.31,59.68A17.23,17.23,0,0,0,28.42,71.57Z" transform="translate(-27.76 -23.29)"/><path class="cls-55" d="M45.57,62h-.28A14.27,14.27,0,1,1,30.74,76.55v.28A14.83,14.83,0,1,0,45.57,62Z" transform="translate(-27.76 -23.29)"/><path class="cls-16" d="M32.81,77.31a13.24,13.24,0,0,1,26.46-.52c0-.17,0-.35,0-.52A14.27,14.27,0,1,0,45,90.54h.52A13.24,13.24,0,0,1,32.81,77.31Z" transform="translate(-27.76 -23.29)"/><polygon class="cls-16" points="18.82 44.03 21.53 51.4 29.38 51.7 23.21 56.56 25.34 64.12 18.82 59.76 12.29 64.12 14.42 56.56 8.26 51.7 16.1 51.4 18.82 44.03"/><polygon class="cls-56" points="17.8 43.02 20.52 50.38 28.37 50.69 22.2 55.55 24.33 63.11 17.8 58.74 11.28 63.11 13.41 55.55 7.25 50.69 15.09 50.38 17.8 43.02"/><polygon class="cls-57" points="7.25 50.69 10.8 53.49 13.86 50.43 7.25 50.69"/><polygon class="cls-57" points="18.74 45.55 17.8 43.02 15.78 48.52 18.74 45.55"/><path class="cls-16" d="M639.08,434.66A15.87,15.87,0,1,1,655,418.79,15.89,15.89,0,0,1,639.08,434.66Zm0-26.85a11,11,0,1,0,11,11A11,11,0,0,0,639.08,407.81Z" transform="translate(-27.76 -23.29)"/><path class="cls-13" d="M582.17,398.86v28.45a28.47,28.47,0,0,0,25.44,28.3v10l-13.09,9.12h32.22l-13.1-9.12v-10a28.46,28.46,0,0,0,25.44-28.3V398.86Z" transform="translate(-27.76 -23.29)"/><path class="cls-16" d="M613.64,465.64v-10a28.46,28.46,0,0,0,25.44-28.3V398.86h-6v28.45a28.47,28.47,0,0,1-25.45,28.3h0v10Z" transform="translate(-27.76 -23.29)"/><polygon class="cls-16" points="577.93 384.52 609.2 381.35 609.2 385.77 577.93 384.52"/><path class="cls-13" d="M582.17,434.66A15.87,15.87,0,1,1,598,418.79,15.89,15.89,0,0,1,582.17,434.66Zm0-26.85a11,11,0,1,0,11,11A11,11,0,0,0,582.17,407.81Z" transform="translate(-27.76 -23.29)"/><path class="cls-15" d="M604.93,433.86c5.46,5.46,7.47,12.28,4.51,15.25s-9.79.95-15.25-4.51-7.47-12.28-4.5-15.24S599.48,428.41,604.93,433.86Z" transform="translate(-27.76 -23.29)"/><path class="cls-15" d="M592.88,418.79c0,2.8-1.24,5.08-2.77,5.08s-2.76-2.28-2.76-5.08,1.24-5.09,2.76-5.09S592.88,416,592.88,418.79Z" transform="translate(-27.76 -23.29)"/><path class="cls-16" d="M630.87,240.54l9.11-25.4s16.38,23.31,17,24Z" transform="translate(-27.76 -23.29)"/><circle class="cls-16" cx="612.21" cy="191.85" r="3.63"/><path class="cls-16" d="M708.05,240.54l-9.11-25.4s-16.37,23.31-17,24Z" transform="translate(-27.76 -23.29)"/><path class="cls-16" d="M702.58,215.14a3.64,3.64,0,1,1-3.64-3.63A3.63,3.63,0,0,1,702.58,215.14Z" transform="translate(-27.76 -23.29)"/><path class="cls-13" d="M691.24,236.17,669,189.45l-22.21,46.72L619,218.46l13.68,54.73s14.73,3.71,36.35,3.71,36.35-3.71,36.35-3.71l13.68-54.73Z" transform="translate(-27.76 -23.29)"/><path class="cls-16" d="M669.8,191.06l-.77,6.66s17.59,36.14,7.92,79a154.85,154.85,0,0,0,28.43-3.54l13.68-54.73-27.82,17.71Z" transform="translate(-27.76 -23.29)"/><polygon class="cls-13" points="663.48 212.88 665.04 216.11 686.18 198.42 663.48 212.88"/><polygon class="cls-15" points="619.05 212.88 623.12 215.06 637.12 174.87 619.05 212.88"/><path class="cls-58" d="M717.29,225.52l1.77-7.06-5.12,3.25A8.23,8.23,0,0,0,717.29,225.52Z" transform="translate(-27.76 -23.29)"/><path class="cls-58" d="M619,218.46l1.91,7.65a8.26,8.26,0,0,0,2.91.54A8,8,0,0,0,629,224.8Z" transform="translate(-27.76 -23.29)"/><path class="cls-58" d="M664.89,198.16a9.91,9.91,0,0,0,6.29,2.23A10,10,0,0,0,674,200l-5-10.52Z" transform="translate(-27.76 -23.29)"/><ellipse class="cls-16" cx="642.2" cy="231.05" rx="8.8" ry="17.29"/><ellipse class="cls-4" cx="641.27" cy="230.48" rx="7.87" ry="15.7"/><path class="cls-2" d="M668.55,238.13c-4,.47-7.12,6.79-7.36,14.69.24,7.17,3.23,12.84,6.88,12.84,3.82,0,6.91-6.17,6.91-13.79C675,244.57,672.14,238.62,668.55,238.13Z" transform="translate(-27.76 -23.29)"/><path class="cls-59" d="M668.94,246.78c-1.46,3.37-3.71,5.65-5,5.08s-1.21-3.77.24-7.15,3.71-5.65,5-5.08S670.4,243.4,668.94,246.78Z" transform="translate(-27.76 -23.29)"/><ellipse class="cls-16" cx="617.12" cy="233.31" rx="6" ry="11.78"/><ellipse class="cls-5" cx="616.49" cy="232.92" rx="5.36" ry="10.7"/><path class="cls-1" d="M643.93,245.55c-2.7.33-4.86,4.63-5,10,.17,4.88,2.2,8.75,4.69,8.75s4.71-4.21,4.71-9.4C648.31,250,646.37,245.89,643.93,245.55Z" transform="translate(-27.76 -23.29)"/><path class="cls-53" d="M644.19,251.45c-1,2.3-2.53,3.85-3.43,3.46s-.82-2.57.17-4.87,2.53-3.85,3.43-3.46S645.19,249.14,644.19,251.45Z" transform="translate(-27.76 -23.29)"/><ellipse class="cls-58" cx="668.43" cy="233.31" rx="6" ry="11.78"/><ellipse class="cls-5" cx="667.8" cy="232.92" rx="5.36" ry="10.7"/><path class="cls-1" d="M695.23,245.55c-2.7.33-4.85,4.63-5,10,.17,4.88,2.21,8.75,4.7,8.75s4.7-4.21,4.7-9.4C699.61,250,697.68,245.89,695.23,245.55Z" transform="translate(-27.76 -23.29)"/><path class="cls-53" d="M695.5,251.45c-1,2.3-2.53,3.85-3.43,3.46s-.83-2.57.17-4.87,2.52-3.85,3.42-3.46S696.49,249.14,695.5,251.45Z" transform="translate(-27.76 -23.29)"/><circle class="cls-16" cx="669.03" cy="189.45" r="8.28" transform="translate(302.67 773.48) rotate(-76.67)"/><path class="cls-13" d="M670.91,191.32c-2.68,2.68-6.56,3.15-8.66,1.05s-1.63-6,1-8.65,6.55-3.15,8.65-1.05S673.58,188.64,670.91,191.32Z" transform="translate(-27.76 -23.29)"/><path class="cls-15" d="M670,186.5a3.88,3.88,0,1,1-3.88-3.88A3.88,3.88,0,0,1,670,186.5Z" transform="translate(-27.76 -23.29)"/><path class="cls-16" d="M724.82,218.52a5.77,5.77,0,1,1-5.76-5.76A5.76,5.76,0,0,1,724.82,218.52Z" transform="translate(-27.76 -23.29)"/><path class="cls-13" d="M720.36,219.83c-1.86,1.87-4.56,2.19-6,.73s-1.14-4.16.73-6,4.56-2.19,6-.73S722.23,218,720.36,219.83Z" transform="translate(-27.76 -23.29)"/><path class="cls-15" d="M719.71,216.47a2.71,2.71,0,1,1-2.71-2.7A2.7,2.7,0,0,1,719.71,216.47Z" transform="translate(-27.76 -23.29)"/><path class="cls-16" d="M625.4,218.52a5.77,5.77,0,1,1-5.76-5.76A5.76,5.76,0,0,1,625.4,218.52Z" transform="translate(-27.76 -23.29)"/><path class="cls-13" d="M620.94,219.83c-1.86,1.87-4.56,2.19-6,.73s-1.14-4.16.73-6,4.56-2.19,6-.73S622.81,218,620.94,219.83Z" transform="translate(-27.76 -23.29)"/><path class="cls-15" d="M620.28,216.47a2.7,2.7,0,1,1-2.7-2.7A2.7,2.7,0,0,1,620.28,216.47Z" transform="translate(-27.76 -23.29)"/><path class="cls-60" d="M665.33,231.56a13.8,13.8,0,0,1-13.8-13.81h-1.29a13.81,13.81,0,0,1-13.81,13.81v1.29a13.8,13.8,0,0,1,13.81,13.8h1.29a13.8,13.8,0,0,1,13.8-13.8Z" transform="translate(-27.76 -23.29)"/><path class="cls-60" d="M695.31,246.47a3.88,3.88,0,0,1-3.88-3.88h-.37a3.88,3.88,0,0,1-3.88,3.88v.36a3.89,3.89,0,0,1,3.88,3.89h.37a3.89,3.89,0,0,1,3.88-3.89Z" transform="translate(-27.76 -23.29)"/><path class="cls-60" d="M719.58,214.74a5.09,5.09,0,0,1-5.08-5.08H714a5.08,5.08,0,0,1-5.08,5.08v.47a5.08,5.08,0,0,1,5.08,5.08h.47a5.09,5.09,0,0,1,5.08-5.08Z" transform="translate(-27.76 -23.29)"/><path class="cls-60" d="M672.14,187.08a9.5,9.5,0,0,1-9.5-9.5h-.88a9.5,9.5,0,0,1-9.5,9.5V188a9.5,9.5,0,0,1,9.5,9.5h.88a9.5,9.5,0,0,1,9.5-9.5Z" transform="translate(-27.76 -23.29)"/><path class="cls-60" d="M621,216.17a6.32,6.32,0,0,1-6.33-6.33h-.59a6.33,6.33,0,0,1-6.34,6.33v.59a6.34,6.34,0,0,1,6.34,6.34h.59a6.33,6.33,0,0,1,6.33-6.34Z" transform="translate(-27.76 -23.29)"/><path class="cls-1" d="M407.48,78.56,405,81.06l-2.5-2.5a14.87,14.87,0,0,0-21,0h0a14.87,14.87,0,0,0,0,21l2.5,2.5,8,8,13,13,13-13,8-8,2.49-2.5a14.85,14.85,0,0,0,0-21h0A14.87,14.87,0,0,0,407.48,78.56Z" transform="translate(-27.76 -23.29)"/><path class="cls-5" d="M428.5,78.56h0a14.86,14.86,0,0,0-18.86-1.78,26.31,26.31,0,0,1-6.81,44.16L405,123.1l13-13,8-8,2.49-2.5A14.85,14.85,0,0,0,428.5,78.56Z" transform="translate(-27.76 -23.29)"/><path class="cls-3" d="M700.86,341l-2.21-2.21L696.43,341a13.17,13.17,0,0,1-18.62,0h0a13.18,13.18,0,0,1,0-18.63L680,320.2l7.1-7.1,11.53-11.52,11.52,11.52,7.1,7.1,2.21,2.21a13.18,13.18,0,0,1,0,18.63h0A13.17,13.17,0,0,1,700.86,341Z" transform="translate(-27.76 -23.29)"/><path class="cls-8" d="M719.48,341h0a13.17,13.17,0,0,1-16.71,1.58,23.32,23.32,0,0,0-6-39.13l1.92-1.91,11.52,11.52,7.1,7.1,2.21,2.21A13.18,13.18,0,0,1,719.48,341Z" transform="translate(-27.76 -23.29)"/><path class="cls-3" d="M715.89,356v-1.54A16.48,16.48,0,0,1,699.41,338h-1.53a16.48,16.48,0,0,1-16.48,16.48V356Z" transform="translate(-27.76 -23.29)"/><polygon class="cls-5" points="97.62 322.7 82.28 299.93 97.62 277.15 112.96 299.93 97.62 322.7"/><polygon class="cls-52" points="97.62 277.15 86.74 299.93 97.62 322.7 82.28 299.93 97.62 277.15"/><path class="cls-3" d="M292.84,47.14h-1.15a12.7,12.7,0,0,0-2.57-14.24h0a12.7,12.7,0,0,0-18,0h0a12.7,12.7,0,0,0-2.57,14.24h-1.15a12.7,12.7,0,1,0,12.7,12.7,12.7,12.7,0,1,0,12.7-12.7Z" transform="translate(-27.76 -23.29)"/><path class="cls-8" d="M270.16,34.5h0a10.6,10.6,0,0,1,15,0h0a10.61,10.61,0,0,1,2.14,11.88h1a10.42,10.42,0,0,1,3.5.61,12.7,12.7,0,0,0-2.63-14.09h0a12.7,12.7,0,0,0-18,0h0a12.46,12.46,0,0,0-2.4,3.34A10.47,10.47,0,0,1,270.16,34.5Z" transform="translate(-27.76 -23.29)"/><path class="cls-8" d="M292.84,47.14h-.68a10.59,10.59,0,1,1-11,17.71,12.7,12.7,0,1,0,11.67-17.71Z" transform="translate(-27.76 -23.29)"/><path class="cls-8" d="M277.65,57a10.6,10.6,0,1,1-19.4-5.9,12.7,12.7,0,1,0,21.43,12.11A10.54,10.54,0,0,1,277.65,57Z" transform="translate(-27.76 -23.29)"/><path class="cls-3" d="M280.91,65.63V57h-1.54v8.65A16.47,16.47,0,0,1,262.89,82.1v1.54h34.5V82.1A16.47,16.47,0,0,1,280.91,65.63Z" transform="translate(-27.76 -23.29)"/><path class="cls-21" d="M85.46,100.86l.85-.87-1.45-1.17c-.37-1.38-.68-2.77-.94-4.17l2.87-2-3.43-1.6A52.58,52.58,0,0,1,83,82.73l5.5-2.64-5-2.56a53.2,53.2,0,0,1,17.62-32.67l6,16a23.66,23.66,0,0,0,30.45,13.87l13.32-5a23.66,23.66,0,0,0,13.87-30.45l-6-16a53.24,53.24,0,0,1,50.77,37.89L206.14,65l4.77,1.82a53.16,53.16,0,0,1-17.19,49.92l-6-16a23.66,23.66,0,0,0-30.45-13.86l-13.32,5a23.66,23.66,0,0,0-13.87,30.45l6,16a53.17,53.17,0,0,1-50.62-37.44Z" transform="translate(-27.76 -23.29)"/><path class="cls-61" d="M182.35,28.91c-.52-.26-1-.49-1.56-.72L153.23,88.36l4.05-1.51a23.52,23.52,0,0,1,17.44.35l21.91-47.85A52.7,52.7,0,0,0,182.35,28.91Z" transform="translate(-27.76 -23.29)"/><rect class="cls-21" x="156.64" y="54.09" width="13.42" height="138.54" transform="translate(-60.64 41.78) rotate(-20.52)"/><polygon class="cls-62" points="131.48 69.97 120.46 78.8 118.92 74.67 131.48 69.97"/><polygon class="cls-62" points="159.39 144.53 148 152.38 146.82 149.23 159.39 144.53"/><polygon class="cls-62" points="118.02 33.98 105.45 38.68 102.03 34.76 118.03 28.78 118.02 33.98"/><path class="cls-62" d="M175.58,39a43.12,43.12,0,0,0-12.45-4l1.62,4.33a23.66,23.66,0,0,1-13.87,30.45l-13.32,5a23.66,23.66,0,0,1-30.45-13.87l-1.62-4.33a43,43,0,0,0,26.22,70.05l-1.62-4.32A23.66,23.66,0,0,1,144,91.83l13.32-5a23.66,23.66,0,0,1,30.45,13.86l1.61,4.33A43,43,0,0,0,175.58,39Z" transform="translate(-27.76 -23.29)"/><path class="cls-63" d="M175.8,39.08,153.23,88.36l4.05-1.51a23.52,23.52,0,0,1,17.44.35L190.9,51.86A42.64,42.64,0,0,0,175.8,39.08Z" transform="translate(-27.76 -23.29)"/><path class="cls-64" d="M150.49,69.91,156.89,87,144,91.83a23.63,23.63,0,0,0-9,6l-8.12-21.71a23.52,23.52,0,0,0,10.71-1.37Z" transform="translate(-27.76 -23.29)"/><path class="cls-13" d="M148.16,63.64l-12.56,4.7-1.9,4.16,8.82,23.57L146.68,98l12.57-4.7,1.89-4.16-8.82-23.57Z" transform="translate(-27.76 -23.29)"/><path class="cls-16" d="M159.25,93.26l1.89-4.16-18.62,7L146.68,98Z" transform="translate(-27.76 -23.29)"/><rect class="cls-16" x="137.94" y="70.75" width="5.43" height="25.16" transform="translate(-48.05 31.29) rotate(-20.52)"/><polygon class="cls-55" points="124.56 42.24 118.28 44.59 114.12 42.69 120.4 40.34 124.56 42.24"/><rect class="cls-56" x="150.24" y="65.91" width="6.71" height="25.16" transform="translate(-45.53 35.52) rotate(-20.52)"/><path class="cls-16" d="M142.16,82.77c1.7,4.55,5.37,7.39,8.19,6.34s3.72-5.61,2-10.16-5.38-7.4-8.2-6.34S140.45,78.21,142.16,82.77Z" transform="translate(-27.76 -23.29)"/><path class="cls-5" d="M143.14,82.09c1.54,4.14,4.84,6.73,7.37,5.79s3.3-5.07,1.76-9.2-4.85-6.73-7.37-5.79S141.59,78,143.14,82.09Z" transform="translate(-27.76 -23.29)"/><path class="cls-1" d="M145.18,72.81c2.39-.63,5.35,1.7,6.9,5.42,1.14,3.47.42,6.82-1.7,7.62s-5.11-1.45-6.47-5.08C142.6,77.29,143.19,73.83,145.18,72.81Z" transform="translate(-27.76 -23.29)"/><path class="cls-53" d="M146.5,77c1.45,1.29,3.17,1.89,3.83,1.33s0-2.06-1.42-3.36-3.16-1.89-3.83-1.33S145.05,75.73,146.5,77Z" transform="translate(-27.76 -23.29)"/><rect class="cls-13" x="161.91" y="109.52" width="15.96" height="62.64" transform="translate(-66.35 45.18) rotate(-20.52)"/><path class="cls-16" d="M177,160.26c-.6-1.65-1.22-3.29-1.74-5a.16.16,0,0,1,.29-.11c.72,1.6,1.33,3.25,2,4.89s1.26,3.28,1.77,5a.19.19,0,0,1-.36.14C178.21,163.57,177.61,161.91,177,160.26Z" transform="translate(-27.76 -23.29)"/><rect class="cls-16" x="162.31" y="111.71" width="3.47" height="62.64" transform="translate(-67.49 43.28) rotate(-20.52)"/><polygon class="cls-16" points="140.77 91.14 127.19 100.39 125.82 96.73 140.77 91.14"/><path class="cls-13" d="M189.44,173.94l-12.57,4.7L175,182.8l2.2,5.89,4.17,1.9,12.56-4.7,1.89-4.16-2.2-5.9Z" transform="translate(-27.76 -23.29)"/><polygon class="cls-55" points="165.84 152.54 159.55 154.89 155.39 153 161.68 150.65 165.84 152.54"/><path class="cls-16" d="M193.91,185.89l1.89-4.16-18.62,7,4.17,1.9Z" transform="translate(-27.76 -23.29)"/><rect class="cls-56" x="188.21" y="176.81" width="6.71" height="6.29" transform="translate(-78.68 55.26) rotate(-20.52)"/><rect class="cls-13" x="169.86" y="164.26" width="19.88" height="6.11" transform="translate(-75 50.34) rotate(-20.52)"/><polygon class="cls-55" points="141.65 144.64 159.14 140.17 162.42 143.4 160.27 137.68 141.65 144.64"/><rect class="cls-13" x="150.04" y="111.31" width="19.88" height="6.11" transform="translate(-57.7 40.03) rotate(-20.52)"/><polygon class="cls-55" points="121.84 91.7 139.32 87.23 142.6 90.45 140.46 84.73 121.84 91.7"/><path class="cls-16" d="M163.36,134.37q-.87-2.3-1.71-4.6-1.69-4.58-3.34-9.15a.31.31,0,0,1,.57-.22q1.76,4.55,3.49,9.1c.57,1.51,1.14,3,1.7,4.52s1.18,3.06,1.6,4.65a.26.26,0,0,1-.49.18C164.47,137.41,163.93,135.88,163.36,134.37Z" transform="translate(-27.76 -23.29)"/><path class="cls-16" d="M167.08,143.12a.21.21,0,0,1,.4-.15c1.74,4.54,3.55,9.06,5.12,13.66a.23.23,0,0,1-.43.16C170.34,152.28,168.74,147.69,167.08,143.12Z" transform="translate(-27.76 -23.29)"/><path class="cls-16" d="M172.7,158.83a.22.22,0,0,1,.41-.15,34.48,34.48,0,0,1,1.23,3.4.18.18,0,0,1-.33.13C173.49,161.11,173.11,160,172.7,158.83Z" transform="translate(-27.76 -23.29)"/><path class="cls-56" d="M161.42,126.27c-.54-1.46-1.06-2.92-1.59-4.38a.19.19,0,0,1,.36-.14c1.95,5,3.88,10.11,5.74,15.19.54,1.46,1.06,2.92,1.59,4.38a.2.2,0,0,1-.37.14C165.18,136.42,163.3,131.34,161.42,126.27Z" transform="translate(-27.76 -23.29)"/><path class="cls-56" d="M169.57,146.54l3.21,8.6a.11.11,0,0,1-.21.07c-1.08-2.86-2.15-5.72-3.23-8.59C169.29,146.48,169.52,146.39,169.57,146.54Z" transform="translate(-27.76 -23.29)"/><path class="cls-56" d="M167.85,122.32c-.55-1.48-1.08-3-1.59-4.47a.23.23,0,0,1,.43-.17c1.06,2.59,2,5.2,3,7.82s2,5.26,3,7.91c.54,1.49,1.08,3,1.59,4.48a.25.25,0,0,1-.46.17C171.68,132.87,169.8,127.58,167.85,122.32Z" transform="translate(-27.76 -23.29)"/><path class="cls-56" d="M174.53,140.15a.13.13,0,0,1,.25-.09,40,40,0,0,1,1.72,4.16c.54,1.4,1,2.81,1.54,4.23a.25.25,0,0,1-.46.17c-.55-1.39-1.1-2.79-1.62-4.2A43.65,43.65,0,0,1,174.53,140.15Z" transform="translate(-27.76 -23.29)"/><path class="cls-56" d="M178.86,151.77a.15.15,0,0,1,.28-.11,103.6,103.6,0,0,1,4.07,10.64.23.23,0,0,1-.44.16A104.31,104.31,0,0,1,178.86,151.77Z" transform="translate(-27.76 -23.29)"/><path class="cls-56" d="M164,121a.2.2,0,0,1,.37-.13c1.29,3.26,2.52,6.55,3.65,9.88a.16.16,0,0,1-.29.11C166.44,127.63,165.22,124.34,164,121Z" transform="translate(-27.76 -23.29)"/><path class="cls-56" d="M171.66,142.76c-1-2.62-2-5.25-2.82-7.92a.2.2,0,0,1,.38-.14c1.11,2.57,2.09,5.2,3.07,7.83s2,5.24,2.83,7.92a.21.21,0,0,1-.39.14C173.61,148,172.64,145.39,171.66,142.76Z" transform="translate(-27.76 -23.29)"/><path class="cls-56" d="M177.48,159.18a.13.13,0,0,1,.24-.09c.64,1.57,1.29,3.14,1.82,4.76a.16.16,0,0,1-.3.11C178.58,162.4,178,160.79,177.48,159.18Z" transform="translate(-27.76 -23.29)"/><path class="cls-16" d="M162.38,118a.19.19,0,0,1,.35-.13c1.89,4.6,3.68,9.27,5.25,14a.2.2,0,0,1-.37.14C165.7,127.44,164,122.74,162.38,118Z" transform="translate(-27.76 -23.29)"/><path class="cls-16" d="M170.69,143c-.53-1.41-1-2.82-1.56-4.23s-1.08-2.87-1.49-4.34a.14.14,0,0,1,.27-.1c.64,1.36,1.15,2.78,1.69,4.18s1.1,2.85,1.64,4.28c1.06,2.84,2.17,5.66,3.11,8.54a.22.22,0,0,1-.41.15C172.77,148.64,171.75,145.79,170.69,143Z" transform="translate(-27.76 -23.29)"/><path class="cls-16" d="M165.63,117.35a.14.14,0,0,1,.26-.09c1.69,4.38,3.42,8.76,5,13.2a.16.16,0,0,1-.31.11C168.8,126.21,167.24,121.77,165.63,117.35Z" transform="translate(-27.76 -23.29)"/><path class="cls-16" d="M176.52,147.66c-.89-2.42-1.85-4.82-2.5-7.32a.17.17,0,0,1,.31-.12c1.15,2.31,2,4.75,2.92,7.16s1.81,4.83,2.57,7.3a.24.24,0,0,1-.45.16C178.32,152.49,177.41,150.07,176.52,147.66Z" transform="translate(-27.76 -23.29)"/><path class="cls-16" d="M169.76,122c-.72-2-1.42-4-2.13-5.92a.19.19,0,0,1,.35-.13c2.68,6.86,5.36,13.72,7.84,20.65.71,2,1.42,3.95,2.08,5.93a.16.16,0,0,1-.3.12C174.78,135.83,172.3,128.89,169.76,122Z" transform="translate(-27.76 -23.29)"/><path class="cls-55" d="M163.9,111.26a.22.22,0,0,1,.42-.16c.4,1.05.83,2.09,1.16,3.16a.2.2,0,0,1-.37.14C164.65,113.38,164.29,112.31,163.9,111.26Z" transform="translate(-27.76 -23.29)"/><path class="cls-55" d="M160.63,112.48a.22.22,0,0,1,.41-.15c.31.8.62,1.59.89,2.4a.21.21,0,0,1-.4.15C161.2,114.09,160.92,113.29,160.63,112.48Z" transform="translate(-27.76 -23.29)"/><path class="cls-55" d="M156.39,113.35a.18.18,0,0,1,.34-.13c.08.23.17.47.26.7s.17.46.24.7a.16.16,0,0,1-.3.11c-.1-.23-.2-.45-.28-.69Z" transform="translate(-27.76 -23.29)"/><path class="cls-55" d="M184.78,165.58c.23.63.47,1.26.68,1.9a.13.13,0,0,1-.24.09c-.26-.62-.49-1.25-.73-1.88A.16.16,0,0,1,184.78,165.58Z" transform="translate(-27.76 -23.29)"/><path class="cls-55" d="M179.76,165.44a.19.19,0,0,1,.35-.13c.54,1.38,1.08,2.76,1.54,4.17a.17.17,0,0,1-.31.12C180.76,168.23,180.27,166.84,179.76,165.44Z" transform="translate(-27.76 -23.29)"/><path class="cls-55" d="M176.14,166.51a.18.18,0,0,1,.34-.13c.32.84.64,1.68.93,2.53a.17.17,0,0,1-.31.12C176.75,168.2,176.45,167.35,176.14,166.51Z" transform="translate(-27.76 -23.29)"/><path class="cls-16" d="M156.31,114a.2.2,0,1,1,.37-.14c.18.46.36.92.51,1.39a.18.18,0,0,1-.34.13C156.65,114.88,156.48,114.42,156.31,114Z" transform="translate(-27.76 -23.29)"/><path class="cls-16" d="M160.37,113.44a.12.12,0,0,1,.23-.08,28.9,28.9,0,0,1,1.3,3.39.15.15,0,0,1-.28.11A29.76,29.76,0,0,1,160.37,113.44Z" transform="translate(-27.76 -23.29)"/><path class="cls-16" d="M164.15,112.17a.18.18,0,0,1,.34-.12,25.46,25.46,0,0,1,.9,2.39.19.19,0,0,1-.35.13A24.58,24.58,0,0,1,164.15,112.17Z" transform="translate(-27.76 -23.29)"/><path class="cls-16" d="M184.14,165.92a.17.17,0,0,1,.3-.12c.06.12.1.25.15.37l.13.35c.09.24.18.47.26.71a.17.17,0,0,1-.32.12c-.09-.24-.18-.47-.26-.71a3.62,3.62,0,0,1-.13-.35A2.32,2.32,0,0,1,184.14,165.92Z" transform="translate(-27.76 -23.29)"/><path class="cls-16" d="M179.59,165.79a.2.2,0,0,1,.38-.14c.34.88.71,1.75,1,2.65a.2.2,0,0,1-.38.14C180.2,167.58,179.91,166.68,179.59,165.79Z" transform="translate(-27.76 -23.29)"/><path class="cls-16" d="M176.61,168.41c.1,0,.15.11.06.14S176.52,168.44,176.61,168.41Z" transform="translate(-27.76 -23.29)"/><path class="cls-16" d="M176.17,166.93c.31.84.62,1.69.9,2.54a.19.19,0,0,1-.36.14c-.35-.83-.67-1.67-1-2.51A.24.24,0,0,1,176.17,166.93Z" transform="translate(-27.76 -23.29)"/><path class="cls-16" d="M174.12,167.84c.36,1,.72,1.94,1,2.92a.24.24,0,0,1-.45.17c-.4-1-.76-1.92-1.13-2.89C173.44,167.7,174,167.49,174.12,167.84Z" transform="translate(-27.76 -23.29)"/><path class="cls-61" d="M136.08,138.3l-2.57-6.87-3,6.54A54.73,54.73,0,0,0,136.08,138.3Z" transform="translate(-27.76 -23.29)"/><path class="cls-61" d="M207.36,55.36c-.22-.5-.43-1-.66-1.48L186.5,98c.24.47.48.94.69,1.42Z" transform="translate(-27.76 -23.29)"/><path class="cls-61" d="M203.88,48.66a55.37,55.37,0,0,0-3.78-5.38L178.94,89.49a23.66,23.66,0,0,1,4.44,3.94Z" transform="translate(-27.76 -23.29)"/><path class="cls-63" d="M197,63.59A42.1,42.1,0,0,0,194,56.65l-15,32.84a23.66,23.66,0,0,1,4.44,3.94Z" transform="translate(-27.76 -23.29)"/><path class="cls-63" d="M199.15,73.28c-.07-.77-.17-1.53-.28-2.29L186.5,98c.24.47.48.94.69,1.42Z" transform="translate(-27.76 -23.29)"/><path class="cls-62" d="M657.82,51.6,584.26,29.86a20.81,20.81,0,0,1-25.85,14.06L544.05,92.48c-13.9,47,38.52,78.42,38.52,78.42s61,2.15,74.95-44.88l14.36-48.56A20.81,20.81,0,0,1,657.82,51.6Z" transform="translate(-27.76 -23.29)"/><path class="cls-63" d="M657.52,126l14.36-48.56A20.81,20.81,0,0,1,657.82,51.6L621,40.73,582.57,170.9S643.62,173.05,657.52,126Z" transform="translate(-27.76 -23.29)"/><polygon class="cls-21" points="526.27 35.43 516.31 69.12 604.99 20.9 571.3 10.94 526.27 35.43"/><polygon class="cls-61" points="604.99 20.9 593.28 17.44 589.81 29.15 604.99 20.9"/><path class="cls-21" d="M649.54,49.15l-8.31-2.45-98.94,53.79a53.87,53.87,0,0,0-.57,7.29Z" transform="translate(-27.76 -23.29)"/><polygon class="cls-61" points="584.85 45.94 621.78 25.86 614.69 23.77 613.46 23.4 587.31 37.63 584.85 45.94"/><path class="cls-21" d="M542.32,116.36l115-62.52a20.5,20.5,0,0,1,.5-2.13l-115.7,62.92C542.16,115.21,542.24,115.78,542.32,116.36Z" transform="translate(-27.76 -23.29)"/><path class="cls-61" d="M609.48,79.84l47.81-26c0-.16.07-.33.11-.5.11-.54.23-1.09.39-1.63L610.14,77.62Z" transform="translate(-27.76 -23.29)"/><path class="cls-65" d="M587.93,160.64a97.25,97.25,0,0,1-18.73-17.33C557.38,128.79,553.62,113.86,558,99l11.41-38.59a34,34,0,0,0,22.62-12.31L645.67,63.9A34,34,0,0,0,658,86.53l-11.4,38.58c-4.41,14.92-15.68,25.4-33.49,31.16A97.13,97.13,0,0,1,587.93,160.64Z" transform="translate(-27.76 -23.29)"/><path class="cls-16" d="M586.42,157.86a97.25,97.25,0,0,1-18.73-17.33c-11.82-14.52-15.58-29.44-11.17-44.36l11.4-38.59a34,34,0,0,0,22.63-12.3l53.61,15.84a34,34,0,0,0,12.3,22.63l-11.4,38.58c-4.41,14.92-15.68,25.41-33.49,31.16A97.13,97.13,0,0,1,586.42,157.86Z" transform="translate(-27.76 -23.29)"/><path class="cls-13" d="M554.77,109.59,644,61.07l-2.22-.65-87,47.32C554.74,108.36,554.75,109,554.77,109.59Z" transform="translate(-27.76 -23.29)"/><path class="cls-13" d="M633.39,57.94l-8.31-2.46L557.72,92.1l-1.2,4.07c-.4,1.36-.72,2.73-1,4.1Z" transform="translate(-27.76 -23.29)"/><path class="cls-13" d="M616.6,53l-26.05-7.69a34,34,0,0,1-22.63,12.3l-7.69,26.05Z" transform="translate(-27.76 -23.29)"/><path class="cls-13" d="M644.16,61.12,617.35,53.2,586.42,157.86a97.13,97.13,0,0,0,25.15-4.37c17.81-5.75,29.08-16.24,33.49-31.16l11.4-38.58A34,34,0,0,1,644.16,61.12Z" transform="translate(-27.76 -23.29)"/><polygon class="cls-56" points="581.72 56.55 616.24 37.78 614.02 37.12 582.37 54.33 581.72 56.55"/><polygon class="cls-56" points="584.85 45.94 605.63 34.64 597.31 32.19 587.31 37.63 584.85 45.94"/><path class="cls-16" d="M655.94,85.5l.52-1.75a34.12,34.12,0,0,1-7.07-7.92A34.27,34.27,0,0,0,655.94,85.5Z" transform="translate(-27.76 -23.29)"/><path class="cls-58" d="M559,100.64l11.41-38.59A34,34,0,0,0,593,49.75l51.86,15.32a32.59,32.59,0,0,1-.68-3.95L590.55,45.28a34,34,0,0,1-22.63,12.3l-11.4,38.59c-3.6,12.18-1.75,24.37,5.49,36.34C556.85,122,555.8,111.31,559,100.64Z" transform="translate(-27.76 -23.29)"/><path class="cls-58" d="M597.12,72.14c1.35-4.79,2.62-9.6,4-14.39a.66.66,0,0,0-1.26-.37c-1.45,4.76-3,9.49-4.47,14.25s-3.27,9.48-4.13,14.36a.79.79,0,0,0,1.52.45C594.71,81.88,595.78,76.9,597.12,72.14Z" transform="translate(-27.76 -23.29)"/><path class="cls-58" d="M582.86,117.72c.8-2.69,1.6-5.38,2.37-8.07,1.51-5.33,2.91-10.67,4.26-16a.51.51,0,0,0-1-.29c-1.78,5.23-3.51,10.48-5.13,15.77-.8,2.6-1.57,5.21-2.34,7.82a44.15,44.15,0,0,0-2,7.87.73.73,0,0,0,1.33.39A41.16,41.16,0,0,0,582.86,117.72Z" transform="translate(-27.76 -23.29)"/><path class="cls-58" d="M576.41,138.34c.52-1.87,1-3.75,1.55-5.63a.81.81,0,0,0-1.56-.46c-.58,1.86-1.17,3.71-1.76,5.57a32.1,32.1,0,0,0-1.45,5.63.75.75,0,0,0,1.38.41A32.22,32.22,0,0,0,576.41,138.34Z" transform="translate(-27.76 -23.29)"/><path class="cls-58" d="M600,81.58a.46.46,0,0,0-.89-.26c-2.87,8.81-5.86,17.56-8.5,26.45s-5.08,17.82-7.33,26.81a.55.55,0,0,0,1.05.31q4.5-13.14,8.42-26.49C595.36,99.51,597.61,90.54,600,81.58Z" transform="translate(-27.76 -23.29)"/><path class="cls-58" d="M609,54a.67.67,0,0,0-1.28-.38c-1.75,5.5-3.47,11-4.84,16.62a.6.6,0,0,0,1.14.34C605.88,65.08,607.42,59.52,609,54Z" transform="translate(-27.76 -23.29)"/><path class="cls-58" d="M609.86,69.65a.69.69,0,0,0-1.32-.39c-2.22,7.18-4.69,14.36-6.32,21.71a.6.6,0,0,0,1.15.34C606,84.26,607.82,76.89,609.86,69.65Z" transform="translate(-27.76 -23.29)"/><path class="cls-58" d="M592.85,128.48q1.44-4.89,2.84-9.77c1.87-6.53,3.48-13.12,5.28-19.66a.49.49,0,0,0-.94-.28c-2,6.47-4.28,12.88-6.26,19.37-1,3.17-1.92,6.33-2.86,9.51s-2.33,6.48-2.5,9.8a.7.7,0,0,0,1.28.38C591.31,135,591.94,131.57,592.85,128.48Z" transform="translate(-27.76 -23.29)"/><path class="cls-58" d="M581.76,146c.19-.72.38-1.44.54-2.17.07-.35.15-.7.22-1.05a8.56,8.56,0,0,0,0-1.24.46.46,0,0,0-.84-.25,9.7,9.7,0,0,0-.61,1c-.17.35-.29.73-.43,1.1-.27.69-.5,1.4-.73,2.11s-.47,1.41-.66,2.13-.32,1.53-.47,2.29a.78.78,0,0,0,1.5.44c.29-.72.62-1.43.86-2.17S581.58,146.7,581.76,146Z" transform="translate(-27.76 -23.29)"/><path class="cls-58" d="M569.16,91.62q1.23-4.28,2.48-8.55c1.63-5.63,3.25-11.26,4.48-17a.55.55,0,0,0-1-.31c-2.07,5.48-3.78,11.09-5.47,16.69l-2.49,8.29c-.4,1.35-.79,2.69-1.18,4a16.55,16.55,0,0,0-.95,4.32.81.81,0,0,0,1.49.44A15.39,15.39,0,0,0,568,95.64C568.36,94.3,568.76,93,569.16,91.62Z" transform="translate(-27.76 -23.29)"/><path class="cls-58" d="M564.75,104.22a.47.47,0,0,0-.87-.25,30.37,30.37,0,0,0-2.34,6.14,63.61,63.61,0,0,0-1.69,6.48.74.74,0,0,0,1.42.42,62.14,62.14,0,0,0,2.11-6.35A30.29,30.29,0,0,0,564.75,104.22Z" transform="translate(-27.76 -23.29)"/><path class="cls-58" d="M576.16,89.09a.68.68,0,0,0-1.31-.38c-3.05,9.06-6,18.26-8.18,27.57a.71.71,0,0,0,1.37.4C571.24,107.66,573.79,98.36,576.16,89.09Z" transform="translate(-27.76 -23.29)"/><path class="cls-58" d="M582.09,69c1.3-4.47,2.5-9,3.65-13.48a.64.64,0,0,0-1.23-.36c-1.48,4.41-2.92,8.84-4.26,13.3A112.27,112.27,0,0,0,576.67,82a.57.57,0,0,0,1.09.32A111.89,111.89,0,0,0,582.09,69Z" transform="translate(-27.76 -23.29)"/><path class="cls-58" d="M585.29,85q1-3.42,2-6.84a.68.68,0,0,0-1.3-.39c-.69,2.27-1.37,4.55-2.06,6.82s-1.63,4.46-1.78,6.75a.54.54,0,0,0,1,.3C584.23,89.58,584.66,87.14,585.29,85Z" transform="translate(-27.76 -23.29)"/><path class="cls-58" d="M593.32,61.27c.92-3.22,1.92-6.45,2.54-9.73a.55.55,0,0,0-1.06-.32c-1.27,3.1-2.19,6.35-3.16,9.55s-2,6.41-2.77,9.66a.79.79,0,0,0,1.52.45C591.5,67.72,592.4,64.49,593.32,61.27Z" transform="translate(-27.76 -23.29)"/><path class="cls-58" d="M572.66,127q1.38-4.67,2.72-9.36c1.77-6.15,3.67-12.3,5.06-18.56a.64.64,0,0,0-1.23-.36c-2.23,6-4,12.2-5.84,18.33-.92,3-1.84,6.06-2.74,9.09s-2.06,6-2.29,9.16a.73.73,0,0,0,1.33.4C571.15,133,571.8,129.94,572.66,127Z" transform="translate(-27.76 -23.29)"/><path class="cls-58" d="M564.86,127.63c.39-1.52.8-3,1.14-4.56a.57.57,0,0,0-1.09-.33c-.55,1.47-1,3-1.52,4.45-.24.75-.48,1.49-.71,2.24a12.84,12.84,0,0,0-.46,2.3.62.62,0,0,0,1.15.34,13.21,13.21,0,0,0,.87-2.18C564.45,129.14,564.66,128.38,564.86,127.63Z" transform="translate(-27.76 -23.29)"/><path class="cls-16" d="M599.63,120.29l1-3.34c.62-2.14,1.21-4.3,1.81-6.45,1.22-4.38,2.33-8.8,3.56-13.18a.6.6,0,0,0-1.15-.34c-1.36,4.34-2.82,8.65-4.18,13-.66,2.13-1.34,4.26-2,6.4-.33,1.11-.67,2.21-1,3.32a9.82,9.82,0,0,0-.68,3.14.83.83,0,0,0,1.53.45A9.81,9.81,0,0,0,599.63,120.29Z" transform="translate(-27.76 -23.29)"/><path class="cls-16" d="M603.31,128.85c1.13-3.92,2.28-7.89,3.06-11.9a.69.69,0,0,0-1.33-.4c-1.53,3.79-2.72,7.75-3.9,11.66S598.66,136,597.8,140a1,1,0,0,0,1.88.56C601.14,136.76,602.17,132.79,603.31,128.85Z" transform="translate(-27.76 -23.29)"/><path class="cls-16" d="M597.46,148.38a.5.5,0,0,0-1-.29,34.35,34.35,0,0,0-1.14,4.32.38.38,0,0,0,.72.22A35.69,35.69,0,0,0,597.46,148.38Z" transform="translate(-27.76 -23.29)"/><path class="cls-16" d="M621.42,65.2a.46.46,0,0,0-.88-.26c-3.73,11.69-7.85,23.34-10.61,35.3a.63.63,0,0,0,1.2.35C615.32,89.06,618.19,77,621.42,65.2Z" transform="translate(-27.76 -23.29)"/><path class="cls-16" d="M620.79,108.22c1.7-5.85,3.27-11.73,4.77-17.63a.74.74,0,0,0-1.42-.42c-1.95,5.77-3.83,11.56-5.57,17.39-1.71,5.68-3.92,11.44-4.66,17.35a.74.74,0,0,0,1.36.4C617.86,120,619.13,113.91,620.79,108.22Z" transform="translate(-27.76 -23.29)"/><path class="cls-16" d="M613.82,131.67a.56.56,0,0,0-1.08-.32,102.44,102.44,0,0,0-3.19,10.41.67.67,0,0,0,1.29.38A102.41,102.41,0,0,0,613.82,131.67Z" transform="translate(-27.76 -23.29)"/><path class="cls-16" d="M630.2,74.2c.88-3.14,1.7-6.29,2.44-9.47a.48.48,0,0,0-.92-.27c-1.11,3.07-2.13,6.16-3.09,9.28a83.71,83.71,0,0,0-2.6,9.42.64.64,0,0,0,1.23.36A86.14,86.14,0,0,0,630.2,74.2Z" transform="translate(-27.76 -23.29)"/><path class="cls-16" d="M635.52,91.15c1.07-3.74,2.14-7.49,3.07-11.26a.49.49,0,0,0-.93-.28c-1.27,3.68-2.41,7.4-3.55,11.12a78.54,78.54,0,0,0-2.94,11c-.07.44.68.66.86.25A78.15,78.15,0,0,0,635.52,91.15Z" transform="translate(-27.76 -23.29)"/><path class="cls-16" d="M641.1,105.52c1.49-5.24,2.88-10.5,4.36-15.74a.61.61,0,0,0-1.17-.35c-1.6,5.21-3.29,10.38-4.89,15.59s-3.37,10.37-4.55,15.69a.8.8,0,0,0,1.54.45C638.29,116.06,639.61,110.75,641.1,105.52Z" transform="translate(-27.76 -23.29)"/><path class="cls-16" d="M634.82,126.52a.54.54,0,0,0-1-.31c-1.31,4.17-2.73,8.33-3.72,12.59a.54.54,0,0,0,1,.3C632.59,135,633.65,130.73,634.82,126.52Z" transform="translate(-27.76 -23.29)"/><path class="cls-16" d="M629.48,110.38a.62.62,0,0,0-1.18-.35c-3.07,9.48-6.13,19-8.68,28.59a.84.84,0,0,0,1.61.48C624.32,129.63,626.91,120,629.48,110.38Z" transform="translate(-27.76 -23.29)"/><path class="cls-16" d="M648.36,79.28a.41.41,0,0,0-.78-.23c-.62,2-1.26,4.09-1.83,6.15a.41.41,0,0,0,.79.24C647.19,83.4,647.76,81.33,648.36,79.28Z" transform="translate(-27.76 -23.29)"/><path class="cls-16" d="M642.1,69.57a.59.59,0,0,0-1.13-.33c-.83,2.66-1.75,5.31-2.39,8a.61.61,0,0,0,1.16.35C640.68,75,641.34,72.25,642.1,69.57Z" transform="translate(-27.76 -23.29)"/><path class="cls-16" d="M608.19,150l.9-3.15a.61.61,0,0,0-1.17-.34l-1,3.13a13.67,13.67,0,0,0-.79,3.19.52.52,0,0,0,1,.28A13.46,13.46,0,0,0,608.19,150Z" transform="translate(-27.76 -23.29)"/><path class="cls-16" d="M644,115.11c.61-2.2,1.2-4.4,1.67-6.64a.51.51,0,0,0-1-.29c-.82,2.13-1.52,4.3-2.21,6.48s-1.38,4.35-1.92,6.57a.77.77,0,0,0,1.48.43C642.78,119.51,643.38,117.31,644,115.11Z" transform="translate(-27.76 -23.29)"/><path class="cls-16" d="M652.77,87.86a.65.65,0,0,0-1.25-.37c-1.3,4.37-2.7,8.72-3.74,13.16a.51.51,0,0,0,1,.29C650.29,96.65,651.49,92.24,652.77,87.86Z" transform="translate(-27.76 -23.29)"/><path class="cls-56" d="M622.86,68.25A.47.47,0,0,0,622,68c-2.58,8.07-5.12,16.16-7.29,24.34a.56.56,0,0,0,1.07.32C618.37,84.59,620.64,76.42,622.86,68.25Z" transform="translate(-27.76 -23.29)"/><path class="cls-56" d="M626.8,91.54a.52.52,0,0,0-1-.29c-3.38,10.72-6.87,21.48-9.64,32.38a.59.59,0,0,0,1.13.33C620.89,113.3,623.8,102.38,626.8,91.54Z" transform="translate(-27.76 -23.29)"/><path class="cls-56" d="M615.3,132.4a.52.52,0,0,0-1-.3c-1.1,3.56-2.26,7.1-3.16,10.71a.52.52,0,0,0,1,.3C613.34,139.58,614.3,136,615.3,132.4Z" transform="translate(-27.76 -23.29)"/><path class="cls-56" d="M645.52,94.74a.39.39,0,0,0-.75-.22c-2.91,9.42-6,18.8-8.51,28.35a.52.52,0,0,0,1,.29C640.37,113.81,642.83,104.23,645.52,94.74Z" transform="translate(-27.76 -23.29)"/><path class="cls-56" d="M606.76,120a.53.53,0,0,0-1-.3c-1.4,4.73-2.84,9.45-4.15,14.21a.48.48,0,0,0,.93.27C604,129.45,605.36,124.7,606.76,120Z" transform="translate(-27.76 -23.29)"/><path class="cls-56" d="M633.5,68.48a.41.41,0,0,0-.79-.23c-1.47,4.61-3,9.21-4.23,13.89a.53.53,0,0,0,1,.3C631,77.84,632.23,73.15,633.5,68.48Z" transform="translate(-27.76 -23.29)"/><path class="cls-56" d="M629.71,113.66a.37.37,0,0,0-.7-.21c-2.37,7.55-5,15-6.92,22.7a.56.56,0,0,0,1.08.32C625.71,129,627.59,121.28,629.71,113.66Z" transform="translate(-27.76 -23.29)"/><path class="cls-56" d="M638.87,83.71a.52.52,0,0,0-1-.3c-1.65,5.43-3.43,10.83-4.87,16.32a.56.56,0,0,0,1.08.32C635.86,94.66,637.3,89.16,638.87,83.71Z" transform="translate(-27.76 -23.29)"/><path class="cls-56" d="M644,66.54a.52.52,0,0,0-1-.29,104.22,104.22,0,0,0-3.83,12.85.54.54,0,0,0,1,.3A105.91,105.91,0,0,0,644,66.54Z" transform="translate(-27.76 -23.29)"/><path class="cls-13" d="M609.55,73.85a.4.4,0,0,0-.76-.23c-1.5,5.09-3.13,10.16-4.43,15.3a.31.31,0,0,0,.6.17C606.66,84.07,608.05,78.93,609.55,73.85Z" transform="translate(-27.76 -23.29)"/><path class="cls-13" d="M609.18,57.36a.39.39,0,0,0-.75-.22c-2.37,7.38-4.9,14.7-6.75,22.25a.55.55,0,0,0,1.06.31C605.29,72.36,607.15,64.84,609.18,57.36Z" transform="translate(-27.76 -23.29)"/><path class="cls-13" d="M588.72,123.28c1.45-5.21,2.82-10.45,4.23-15.67a.33.33,0,0,0-.63-.19c-1.66,5.15-3.35,10.29-5,15.46s-3.41,10.31-4.61,15.57a.72.72,0,0,0,1.38.4C586,133.8,587.28,128.47,588.72,123.28Z" transform="translate(-27.76 -23.29)"/><path class="cls-13" d="M592.54,132a.55.55,0,0,0-1.06-.31,91.76,91.76,0,0,0-2.66,9,.55.55,0,0,0,1,.31A91,91,0,0,0,592.54,132Z" transform="translate(-27.76 -23.29)"/><path class="cls-13" d="M581.66,148.68c.32-1.17.61-2.34.89-3.52a.58.58,0,0,0-1.11-.33c-.41,1.14-.8,2.29-1.17,3.44a13.68,13.68,0,0,0-.83,3.55.54.54,0,0,0,1,.29A13.38,13.38,0,0,0,581.66,148.68Z" transform="translate(-27.76 -23.29)"/><path class="cls-13" d="M594.81,84.67q2.58-9,5.08-18a.61.61,0,0,0-1.16-.35q-2.81,9-5.55,17.91c-1.82,6-3.69,12-5.08,18a.61.61,0,0,0,1.17.35C591.41,96.71,593.09,90.69,594.81,84.67Z" transform="translate(-27.76 -23.29)"/><path class="cls-13" d="M582.19,120.59a.6.6,0,0,0-1.15-.34c-1.77,5.59-3.59,11.17-5,16.88a.59.59,0,0,0,1.14.33C579.13,131.92,580.63,126.25,582.19,120.59Z" transform="translate(-27.76 -23.29)"/><path class="cls-13" d="M585.93,84.12a.34.34,0,0,0-.66-.19c-.9,2.94-1.88,5.85-2.69,8.82a.42.42,0,0,0,.81.23C584.32,90.06,585.09,87.08,585.93,84.12Z" transform="translate(-27.76 -23.29)"/><path class="cls-13" d="M581.24,100a.56.56,0,0,0-1.07-.31c-2.6,8.52-5.59,17-7.62,25.71a.58.58,0,0,0,1.11.32C576.68,117.33,578.79,108.56,581.24,100Z" transform="translate(-27.76 -23.29)"/><path class="cls-13" d="M596.14,55.91a.67.67,0,0,0-1.29-.39c-1.17,3.95-2.39,7.89-3.44,11.87a.61.61,0,0,0,1.17.35C593.86,63.82,595,59.86,596.14,55.91Z" transform="translate(-27.76 -23.29)"/><path class="cls-13" d="M584.62,63.2a.49.49,0,0,0-.94-.27c-1.75,5.6-3.62,11.15-5,16.87a.48.48,0,0,0,.92.28C581.59,74.53,583,68.86,584.62,63.2Z" transform="translate(-27.76 -23.29)"/><path class="cls-13" d="M576.83,91.05a.5.5,0,0,0-1-.28c-2.56,8.48-5.47,16.89-7.48,25.52a.44.44,0,0,0,.84.25C572.24,108.2,574.37,99.56,576.83,91.05Z" transform="translate(-27.76 -23.29)"/><path class="cls-13" d="M564.74,126.79c-.25.88-.5,1.75-.74,2.62a.31.31,0,0,0,.59.18c.27-.87.53-1.74.8-2.61A.34.34,0,0,0,564.74,126.79Z" transform="translate(-27.76 -23.29)"/><path class="cls-13" d="M574.78,77.12a.66.66,0,0,0-1.26-.38c-2.81,9.29-5.73,18.56-8,28a.4.4,0,0,0,.76.23C569.51,95.81,572.09,86.44,574.78,77.12Z" transform="translate(-27.76 -23.29)"/><circle class="cls-56" cx="603.75" cy="104.88" r="31.16" transform="translate(-30.51 169.16) rotate(-18.07)"/><circle class="cls-16" cx="602.92" cy="103.34" r="31.19" transform="translate(-21.49 214.97) rotate(-22.47)"/><circle class="cls-58" cx="602.12" cy="101.87" r="30.01" transform="translate(35.66 366.21) rotate(-37.7)"/><circle class="cls-66" cx="602.76" cy="103.06" r="28.79" transform="translate(-8.66 262.21) rotate(-27.06)"/><path class="cls-62" d="M576.16,95.84a28.17,28.17,0,0,1,54.12,15.67c0-.1.07-.19.09-.29a28.79,28.79,0,1,0-35.77,19.45l.3.08A28.17,28.17,0,0,1,576.16,95.84Z" transform="translate(-27.76 -23.29)"/><path class="cls-67" d="M613.74,82.69a3.33,3.33,0,1,1-2.24-4.13A3.33,3.33,0,0,1,613.74,82.69Z" transform="translate(-27.76 -23.29)"/><path class="cls-67" d="M600.21,128.49a3.33,3.33,0,1,1-2.25-4.13A3.32,3.32,0,0,1,600.21,128.49Z" transform="translate(-27.76 -23.29)"/><path class="cls-67" d="M581.83,94.69a3.33,3.33,0,1,1-4.13,2.25A3.33,3.33,0,0,1,581.83,94.69Z" transform="translate(-27.76 -23.29)"/><circle class="cls-67" cx="598.92" cy="88.12" r="3.33"/><circle class="cls-67" cx="603.58" cy="104.55" r="17.54" transform="translate(-11.44 255.53) rotate(-26.36)"/><path class="cls-63" d="M619.08,108.3a16.74,16.74,0,1,1-11.3-20.79A16.73,16.73,0,0,1,619.08,108.3Z" transform="translate(-27.76 -23.29)"/><path class="cls-61" d="M619.08,108.3a16.76,16.76,0,0,0,.61-6.29,16.27,16.27,0,1,0-27,14.69,16.74,16.74,0,0,0,26.4-8.4Z" transform="translate(-27.76 -23.29)"/><path class="cls-61" d="M613.15,81.61a3.32,3.32,0,1,1-2.24-4.13A3.33,3.33,0,0,1,613.15,81.61Z" transform="translate(-27.76 -23.29)"/><circle class="cls-61" cx="568.67" cy="103.17" r="3.33"/><circle class="cls-61" cx="552.54" cy="73.5" r="3.33"/><path class="cls-61" d="M627,107.14a3.33,3.33,0,1,1-4.13,2.25A3.32,3.32,0,0,1,627,107.14Z" transform="translate(-27.76 -23.29)"/></svg>