<svg id="OBJECTS" xmlns="http://www.w3.org/2000/svg" viewBox="0 0 572.67 358.86"><defs><style>.cls-1,.cls-29{fill:#fff;}.cls-2{fill:#ed6a38;}.cls-18,.cls-3{fill:#1e1862;}.cls-4{fill:#443988;}.cls-5{fill:#8e302e;}.cls-6{fill:#e2136d;}.cls-7{fill:#c40c64;}.cls-8{fill:#ffa9a8;}.cls-9{fill:#f28c8c;}.cls-10{fill:#3939bc;}.cls-11,.cls-28{fill:none;stroke-miterlimit:10;}.cls-11{stroke:#fff;}.cls-12{fill:#44c;}.cls-13{fill:#131151;}.cls-14{fill:#fc6b76;}.cls-15{fill:#bfbfd8;}.cls-16{fill:#aac;}.cls-17{fill:#9191bc;}.cls-18{opacity:0.57;}.cls-19{fill:#febf00;}.cls-20{fill:#f19129;}.cls-21{fill:#02d1cb;}.cls-22{opacity:0.17;}.cls-23{fill:#544fcf;}.cls-24{fill:#ff76b8;}.cls-25{fill:#fc4192;}.cls-26{fill:#ea187d;}.cls-27{fill:#00bbac;}.cls-28{stroke:#443988;}.cls-29{font-size:22.2px;font-family:Roboto-Black, Roboto Black;font-weight:800;}.cls-30{fill:#524c9e;}.cls-31{font-size:18.61px;font-family:Poppins-Bold, Poppins;font-weight:700;}.cls-31,.cls-32{fill:#ffe164;}.cls-33{fill:#ffc19a;}.cls-34{fill:#efa981;}.cls-35{fill:#f68b13;}</style></defs><title>3846939</title><path class="cls-1" d="M477.26,269.35s-.46,19.19,20.41,29.31,50.79-.56,55.28-7.8-15.2,1.57-25.2,2.61-33,1.76-38.73-20.13S474.21,257,477.26,269.35Z" transform="translate(-112.35 -73.59)"/><path class="cls-1" d="M313.06,86.85s55.36-12.74,97.79,9.34,20.28-6.68-11.76-15.82c-44.62-12.73-87.12-4.5-101.28,7.32C288.82,95.2,313.06,86.85,313.06,86.85Z" transform="translate(-112.35 -73.59)"/><path class="cls-1" d="M443,109.83s14.82,9.74,14.05,13.24-8.3-.78-12.58-4.93S434.79,105.66,443,109.83Z" transform="translate(-112.35 -73.59)"/><path class="cls-1" d="M155.57,408.45s-41.49-41.58-2.76-81.56,115.08,13.16,165,8.86c77.4-6.68,70.31-116.14-2.28-132.45s6.56,47.9-32.48,35.62C200,212.81,212.56,95.28,341.23,92.27s135.52,101,126.07,155.06c-11.6,66.36,52.07,86.22,125.28,34.39,60.36-42.73,94.85,43.56,56.12,126.73Z" transform="translate(-112.35 -73.59)"/><path class="cls-1" d="M222.56,315.86s26.29,8.29,41.37-3.4c12.68-9.83,5.16-31.27-23.21-39.12s10.95-12.72,47.46-2.26c39.55,11.33,37.5,63.44-16.75,60.33C235.65,329.36,222.56,315.86,222.56,315.86Z" transform="translate(-112.35 -73.59)"/><path class="cls-2" d="M262.1,335.75s32.14,11.61,61.54,8,31.47-18.61,39.42-19.58-3.48,25.49-38.82,29.37C282.75,358.11,241.52,330.22,262.1,335.75Z" transform="translate(-112.35 -73.59)"/><path class="cls-2" d="M155.53,396.44s-8.82-13.29-11.15-27.78,5.23-26.07,8.6-26.72-.27,8.59-2.38,16.11c-1.61,5.75.26,18.55,4.8,28S160.34,405.11,155.53,396.44Z" transform="translate(-112.35 -73.59)"/><path class="cls-2" d="M155.53,336.78s3.29-6,6.23-6.39.09,4.75-2.08,6.39S153.38,340,155.53,336.78Z" transform="translate(-112.35 -73.59)"/><path class="cls-2" d="M366.5,414.68c4.17,0,43.89-12,51-63s35-33,48.26-9.56S536,407.32,596.49,351.7s49,28.16,34.5,52.66S366.5,414.68,366.5,414.68Z" transform="translate(-112.35 -73.59)"/><ellipse class="cls-2" cx="286.33" cy="341.35" rx="286.33" ry="17.51"/><path class="cls-3" d="M389.7,290.86a1.79,1.79,0,0,1,1.38.63,1.77,1.77,0,0,1,.44,1.45l-15,113.91a1.85,1.85,0,0,1-1.83,1.6H277.12a1.82,1.82,0,0,1-1.39-.63,1.84,1.84,0,0,1-.44-1.45l15-113.91a1.85,1.85,0,0,1,1.83-1.6H389.7m0-6.23H292.14a8.07,8.07,0,0,0-8,7l-15,113.9a8.07,8.07,0,0,0,8,9.13h97.55a8.07,8.07,0,0,0,8-7l15-113.91a8.06,8.06,0,0,0-8-9.12Z" transform="translate(-112.35 -73.59)"/><path class="cls-4" d="M395.12,298.66A1.84,1.84,0,0,1,397,300.5V406.61a1.84,1.84,0,0,1-1.84,1.84h-97.7a1.85,1.85,0,0,1-1.84-1.84V300.5a1.85,1.85,0,0,1,1.84-1.84h97.7m0-6.23h-97.7a8.07,8.07,0,0,0-8.06,8.07V406.61a8.07,8.07,0,0,0,8.06,8.07h97.7a8.08,8.08,0,0,0,8.07-8.07V300.5a8.08,8.08,0,0,0-8.07-8.07Z" transform="translate(-112.35 -73.59)"/><path class="cls-3" d="M298.19,276.14V158.6c0-6.88,5.19-12.46,11.6-12.46h-20c-6.4,0-11.59,5.58-11.59,12.46V276.14c0,6.88,5.19,12.46,11.59,12.46h20C303.38,288.6,298.19,283,298.19,276.14Z" transform="translate(-112.35 -73.59)"/><path class="cls-4" d="M401.72,299.33H289.82a6.76,6.76,0,0,1-6.76-6.76H408.48A6.76,6.76,0,0,1,401.72,299.33Z" transform="translate(-112.35 -73.59)"/><path class="cls-5" d="M376.05,288.6h-81.4c-6.4,0-11.59-5.58-11.59-12.46V158.6c0-6.88,5.19-12.46,11.59-12.46h81.4c6.4,0,11.59,5.58,11.59,12.46V276.14C387.64,283,382.45,288.6,376.05,288.6Z" transform="translate(-112.35 -73.59)"/><path class="cls-6" d="M379.17,288.6h-81.4c-6.4,0-11.59-5.58-11.59-12.46V158.6c0-6.88,5.19-12.46,11.59-12.46h81.4c6.4,0,11.59,5.58,11.59,12.46V276.14C390.76,283,385.57,288.6,379.17,288.6Z" transform="translate(-112.35 -73.59)"/><path class="cls-7" d="M303,276.14V158.6c0-6.88,5.19-12.46,11.59-12.46h-20c-6.4,0-11.59,5.58-11.59,12.46V276.14c0,6.88,5.19,12.46,11.59,12.46h20C308.2,288.6,303,283,303,276.14Z" transform="translate(-112.35 -73.59)"/><rect class="cls-3" x="170.72" y="199.11" width="134.44" height="19.87" rx="4.76"/><path class="cls-3" d="M322.07,287.8V277.46a4.76,4.76,0,0,1,4.76-4.76H283a4.76,4.76,0,0,0-4.76,4.76V287.8a4.77,4.77,0,0,0,4.76,4.77h43.82A4.77,4.77,0,0,1,322.07,287.8Z" transform="translate(-112.35 -73.59)"/><path class="cls-8" d="M412.35,162.06a10.72,10.72,0,0,0,2.11,3.4c1.26,1.35.78,1.25-1,12.72-1.89,12.43-3.62,10.89-3.62,10.89a109.71,109.71,0,0,1-23.33-4s-4.35,8.46-8.36,13c0,0,28.31,8.13,38.2,5.81,9.3-3.88,7.83-33.18,7.83-33.18s4.42-15,4-16.88-9-3.65-10.85-3.36-2.08,8.39-2.08,8.39-1.36-3.31-2-3.49-2,.63-2.59.94C410.3,156.53,411.53,159.93,412.35,162.06Z" transform="translate(-112.35 -73.59)"/><path class="cls-9" d="M427.42,158.71l-6.86,2.66a4.07,4.07,0,0,1-5.33-2.49l-.06-.17Z" transform="translate(-112.35 -73.59)"/><path class="cls-9" d="M393.93,186.87s-8.87,5.92-9.37,7.29c-.35.94.15,3.28.51,5.74,3.11.77,7,1.68,11,2.46C396.44,195.24,393.93,186.87,393.93,186.87Z" transform="translate(-112.35 -73.59)"/><path class="cls-4" d="M351,182s1.45-10.84,18.27-5.78,25,5,25,5,.49,13.24-7,22.06C386.44,203.09,350.83,195.41,351,182Z" transform="translate(-112.35 -73.59)"/><path class="cls-8" d="M365.65,242.08s54.66,26.75,66,45.25,21.73,70.39,21.73,70.39l-8,2.35s-12.32-14.9-28.4-58.88c0,0-61.61-15.54-72.39-38.08S365.65,242.08,365.65,242.08Z" transform="translate(-112.35 -73.59)"/><path class="cls-10" d="M437.63,351.7l15.15-5.31c-4.39-17.86-11-45.71-19.26-59.2-11.31-18.5-67.87-45.11-67.87-45.11s-31.86-1.51-21.07,21,71.17,40.36,71.17,40.36C425.59,330.39,431.77,341.36,437.63,351.7Z" transform="translate(-112.35 -73.59)"/><path class="cls-11" d="M360,271.08s21,16,59.59,27.58a325,325,0,0,0,19.54,46.86l7.95-2.77" transform="translate(-112.35 -73.59)"/><polygon class="cls-12" points="341 284.13 361.49 284.71 362.34 287.6 335.02 295.63 333.02 286.47 341 284.13"/><path class="cls-1" d="M462.67,359.8a.4.4,0,0,1-.19,0,.51.51,0,0,1-.48-.55l.17-2.2a.52.52,0,0,1,1,.08l-.16,2.19A.53.53,0,0,1,462.67,359.8Z" transform="translate(-112.35 -73.59)"/><path class="cls-1" d="M460.09,359.75a.4.4,0,0,1-.19,0,.51.51,0,0,1-.48-.55l.17-2.19a.52.52,0,0,1,1,.07l-.16,2.2A.52.52,0,0,1,460.09,359.75Z" transform="translate(-112.35 -73.59)"/><path class="cls-1" d="M457.51,359.7a.58.58,0,0,1-.19,0,.53.53,0,0,1-.48-.56L457,357a.52.52,0,1,1,1,.08l-.16,2.19A.52.52,0,0,1,457.51,359.7Z" transform="translate(-112.35 -73.59)"/><path class="cls-8" d="M345.33,255.67s27.09,54.49,24.81,76.05-25.61,69.08-25.61,69.08l-7.75-3s-.71-19.31,13.29-64c0,0-39.42-49.82-34.26-74.27S345.33,255.67,345.33,255.67Z" transform="translate(-112.35 -73.59)"/><path class="cls-12" d="M335.73,386.45l15.24,5c7.39-16.84,18.39-43,20.76-58.69C377.68,293.54,351,255,351,255s-30-19.88-35.16,4.57,31.91,75.34,31.91,75.34C339.15,362.22,337.37,374.69,335.73,386.45Z" transform="translate(-112.35 -73.59)"/><path class="cls-11" d="M322.26,271.82s4.49,19.75,30.43,59.17c0,0-10.38,31.74-12.62,52.1l8.72,3.23" transform="translate(-112.35 -73.59)"/><polygon class="cls-12" points="232.19 327.21 248.09 340.14 247.01 342.95 220.44 332.69 224.43 324.21 232.19 327.21"/><path class="cls-1" d="M350.66,408.12a.47.47,0,0,1-.16-.1.52.52,0,0,1,0-.73l1.46-1.64a.53.53,0,0,1,.74,0,.52.52,0,0,1,0,.73L351.23,408A.51.51,0,0,1,350.66,408.12Z" transform="translate(-112.35 -73.59)"/><path class="cls-1" d="M348.65,406.51a.56.56,0,0,1-.17-.09.53.53,0,0,1,0-.74l1.47-1.64a.52.52,0,0,1,.73,0,.53.53,0,0,1,0,.74l-1.46,1.63A.5.5,0,0,1,348.65,406.51Z" transform="translate(-112.35 -73.59)"/><path class="cls-1" d="M346.63,404.9a.51.51,0,0,1-.16-.09.51.51,0,0,1,0-.74l1.46-1.64a.52.52,0,1,1,.77.7l-1.46,1.63A.5.5,0,0,1,346.63,404.9Z" transform="translate(-112.35 -73.59)"/><path class="cls-13" d="M364.11,132.94s3.49,11.86-3.49,14.57-7.84-15.19-6.53-15.84S364.11,132.94,364.11,132.94Z" transform="translate(-112.35 -73.59)"/><path class="cls-3" d="M338.65,168.75l-22.1,7.56a13.5,13.5,0,0,0-8.85,11.07c-2.37,19.26-5.05,59.9-3.14,79.56,5.94,11,30.84-3.19,44.28-4.09,35.61-2.41,41.92-5,41.92-5l-19.32-74.94a13.49,13.49,0,0,0-9.56-10.08L348,169Z" transform="translate(-112.35 -73.59)"/><polygon class="cls-4" points="236 115.52 239.6 123.59 248.4 122.66 241.84 128.58 245.44 136.65 237.78 132.24 231.22 138.17 233.04 129.52 225.38 125.11 234.17 124.17 236 115.52"/><path class="cls-8" d="M350.27,160.43,350,172.74a4.48,4.48,0,0,1-3.12,4.22,12,12,0,0,1-7.87-.26,4.49,4.49,0,0,1-2.67-5.25l2.67-11Z" transform="translate(-112.35 -73.59)"/><path class="cls-9" d="M338.77,161.48a13.62,13.62,0,0,0,11.31,8.09l.19-9.14H340.05C339.28,161.05,338.77,161.48,338.77,161.48Z" transform="translate(-112.35 -73.59)"/><path class="cls-8" d="M329.52,147.74a5.12,5.12,0,0,1,4.24,1.19s-5-14.9,1.84-16.68,14.78-3.05,20.18-2.48,5,3.11,5.78,8c0,0,2.68,19.39-6.05,26.56-6.07,5-18.21-1.65-20.1-7.43a6.74,6.74,0,0,1-7.61-4C326,149,328,148,329.52,147.74Z" transform="translate(-112.35 -73.59)"/><polygon class="cls-14" points="238.27 74.95 243.11 80.78 237.98 81.4 238.27 74.95"/><path class="cls-3" d="M333.76,148.93s2.4-2.45,1.9-9.06,10.2.4,21.43-1c7.08-.91,10.24-7,9.22-13.43-1.2-7.55-9.71-13.14-10.09-11.54-1.25,5.17-25-5.6-27,10.11,0,0-8.22,1.87-7.47,8.83S329,147.86,329,147.86A5.84,5.84,0,0,1,333.76,148.93Z" transform="translate(-112.35 -73.59)"/><path class="cls-4" d="M343.22,137.65s5.9,0,6.57-5.9-1.23-6.85-1.23-6.85,6.37,1.57,5.53,9.06a5.1,5.1,0,0,0,2.72-3.57s2.6,5.74-2.52,8.19C354.29,138.58,350,140.77,343.22,137.65Z" transform="translate(-112.35 -73.59)"/><path class="cls-3" d="M341.8,137.32s9,2.41,9.33,7.69a7.27,7.27,0,0,0,.24-5.25,3.37,3.37,0,0,1,2.33,2.07,5.23,5.23,0,0,0-3.77-5.7C348.1,135.55,345.38,135.36,341.8,137.32Z" transform="translate(-112.35 -73.59)"/><ellipse class="cls-3" cx="343.98" cy="147.81" rx="1.47" ry="2.01" transform="translate(-126.7 -34.26) rotate(-6.41)"/><ellipse class="cls-3" cx="356.62" cy="147.11" rx="1.47" ry="2.01" transform="translate(-126.54 -32.85) rotate(-6.41)"/><path class="cls-3" d="M338.62,144.44a14.13,14.13,0,0,1,8.66-1.74,6.27,6.27,0,0,0-5-1.23A5.54,5.54,0,0,0,338.62,144.44Z" transform="translate(-112.35 -73.59)"/><path class="cls-3" d="M354.28,142.67a11.15,11.15,0,0,1,7,.45,5,5,0,0,0-3.55-2A4.38,4.38,0,0,0,354.28,142.67Z" transform="translate(-112.35 -73.59)"/><path class="cls-3" d="M355.67,156.61l-9.37.74s1.71,4.78,5,5S355.67,156.61,355.67,156.61Z" transform="translate(-112.35 -73.59)"/><path class="cls-14" d="M347.31,159.36c.63-.54,4.94-.26,6.49,1.79a2.91,2.91,0,0,1-2.46,1.2C349.49,162.23,348.14,160.7,347.31,159.36Z" transform="translate(-112.35 -73.59)"/><path class="cls-8" d="M333.36,239.07a10.48,10.48,0,0,0-3.59,1.77c-1.47,1.12-1.32.66-12.57-2.19C305,235.56,306.7,234,306.7,234A109.88,109.88,0,0,1,313,211.16s-8-5.15-12.15-9.58c0,0-10.82,27.39-9.47,37.47,3,9.63,32.27,11,32.27,11s14.54,5.85,16.42,5.55,4.5-8.56,4.39-10.47-8.15-2.88-8.15-2.88,3.43-1,3.67-1.63-.43-2.08-.7-2.66C339.05,237.56,335.56,238.46,333.36,239.07Z" transform="translate(-112.35 -73.59)"/><path class="cls-9" d="M297.39,212.47l1-3.3a37.79,37.79,0,0,0,7.9,2.27,13.28,13.28,0,0,1,5.7,2.35c-1.29,3.61-2.41,7.24-3.29,10.62a29.46,29.46,0,0,1-11.31-11.88Z" transform="translate(-112.35 -73.59)"/><path class="cls-4" d="M319.44,176.09s10.65,2.49,4,18.74S316,219.24,316,219.24s-13.22-.79-21.29-9C295,209.32,306.09,174.62,319.44,176.09Z" transform="translate(-112.35 -73.59)"/><rect class="cls-15" x="88.52" y="184.28" width="395.63" height="13.94"/><rect class="cls-16" x="107.62" y="198.23" width="357.43" height="9.9"/><rect class="cls-17" x="107.62" y="198.23" width="357.43" height="3.05"/><polygon class="cls-4" points="133.38 341.08 124.29 341.08 118.23 208.13 139.45 208.13 133.38 341.08"/><polygon class="cls-18" points="139.18 213.95 139.45 208.13 118.23 208.13 118.49 213.95 139.18 213.95"/><polygon class="cls-4" points="439.28 341.08 448.38 341.08 454.44 208.13 433.22 208.13 439.28 341.08"/><polygon class="cls-18" points="454.17 213.95 454.44 208.13 433.22 208.13 433.49 213.95 454.17 213.95"/><rect class="cls-3" x="276.11" y="180.16" width="43.34" height="4.12"/><rect class="cls-3" x="313.68" y="125.29" width="88.31" height="58.99"/><rect class="cls-4" x="316.44" y="125.29" width="88.31" height="58.99"/><polygon class="cls-18" points="404.75 125.29 316.44 184.28 404.75 184.28 404.75 125.29"/><circle class="cls-19" cx="360.59" cy="154.19" r="5.64"/><path class="cls-20" d="M472.94,233.42a5.65,5.65,0,0,0,4.95-8.35l-9.34,6.25A5.62,5.62,0,0,0,472.94,233.42Z" transform="translate(-112.35 -73.59)"/><rect class="cls-4" x="316.44" y="180.16" width="88.31" height="4.12"/><circle class="cls-3" cx="383.22" cy="182.22" r="0.95"/><circle class="cls-3" cx="385.95" cy="182.22" r="0.95"/><path class="cls-21" d="M238.19,241.38v7.91a3,3,0,0,0,3,3h3.37v1.32a4.27,4.27,0,0,0,4.27,4.27h13.91a4.28,4.28,0,0,0,4.27-4.27V235.74a1.27,1.27,0,0,0-1.27-1.26H245.83a1.26,1.26,0,0,0-1.26,1.26v2.64H241.2A3,3,0,0,0,238.19,241.38Zm2.53,0a.47.47,0,0,1,.48-.47h3.37v8.85H241.2a.47.47,0,0,1-.48-.47Z" transform="translate(-112.35 -73.59)"/><g class="cls-22"><path class="cls-3" d="M261.46,253.61V235.74a1.27,1.27,0,0,0-1.27-1.26h5.56a1.27,1.27,0,0,1,1.27,1.26v17.87a4.28,4.28,0,0,1-4.27,4.27h-5.56A4.28,4.28,0,0,0,261.46,253.61Z" transform="translate(-112.35 -73.59)"/></g><rect class="cls-4" x="138.09" y="168.88" width="3.72" height="5.73" rx="1.86"/><rect class="cls-4" x="139.37" y="160.89" width="1.16" height="10.85"/><rect class="cls-4" x="65.3" y="223.29" width="39.94" height="117.8"/><rect class="cls-3" x="70.49" y="228.51" width="29.57" height="87.2" rx="3.2"/><circle class="cls-19" cx="85.27" cy="242.57" r="10.72"/><circle class="cls-20" cx="85.27" cy="242.57" r="3.71"/><circle class="cls-19" cx="85.27" cy="270.67" r="10.72"/><circle class="cls-20" cx="85.27" cy="270.67" r="3.71"/><circle class="cls-19" cx="85.27" cy="298.77" r="10.72"/><circle class="cls-20" cx="85.27" cy="298.77" r="3.71"/><rect class="cls-3" x="70.49" y="329.85" width="29.57" height="2.85"/><rect class="cls-3" x="70.49" y="324.27" width="9.08" height="2.85"/><rect class="cls-4" x="579.77" y="296.88" width="39.94" height="117.8" transform="translate(1087.14 637.96) rotate(-180)"/><rect class="cls-3" x="584.96" y="302.1" width="29.57" height="87.2" rx="3.2" transform="translate(1087.14 617.8) rotate(-180)"/><circle class="cls-19" cx="487.4" cy="242.57" r="10.72"/><circle class="cls-20" cx="487.4" cy="242.57" r="3.71"/><circle class="cls-19" cx="487.4" cy="270.67" r="10.72"/><circle class="cls-20" cx="487.4" cy="270.67" r="3.71"/><circle class="cls-19" cx="487.4" cy="298.77" r="10.72"/><circle class="cls-20" cx="487.4" cy="298.77" r="3.71"/><rect class="cls-3" x="584.96" y="403.44" width="29.57" height="2.85" transform="translate(1087.14 736.14) rotate(-180)"/><rect class="cls-3" x="605.45" y="397.86" width="9.08" height="2.85" transform="translate(1107.63 724.99) rotate(-180)"/><path class="cls-11" d="M333.14,173.4s.79,8.11,8.74,8.89c8.67.85,11.93-4.6,10.87-9.78" transform="translate(-112.35 -73.59)"/><path class="cls-11" d="M297.37,208s5.22,3.63,16.37,6.49" transform="translate(-112.35 -73.59)"/><path class="cls-11" d="M390.76,182.81a42.39,42.39,0,0,1-5.39,17.12" transform="translate(-112.35 -73.59)"/><path class="cls-23" d="M191.38,154s-11.8-2.52-6.2-14.43-8.58-4.66-9.44,9.55,11.62,16.11,11.62,16.11Z" transform="translate(-112.35 -73.59)"/><path class="cls-10" d="M229,181.29s5.92,10.51,15.62,1.62,7,6.8-6.3,11.86-18.85-6.3-18.85-6.3Z" transform="translate(-112.35 -73.59)"/><path class="cls-23" d="M221.32,244.07s-22,6-39.16-23.25c-11.09-18.93-10.66-60.38,23.49-81.1,30.68-18.61,61.68,21.11,24.77,47C210.71,200.53,194.71,232.16,221.32,244.07Z" transform="translate(-112.35 -73.59)"/><ellipse class="cls-24" cx="205.15" cy="152.68" rx="1.9" ry="4.32" transform="translate(-160.27 115.85) rotate(-44.92)"/><ellipse class="cls-24" cx="227.07" cy="174.65" rx="1.9" ry="4.32" transform="translate(-169.39 137.74) rotate(-44.92)"/><path class="cls-3" d="M214.85,146.36a1.21,1.21,0,0,1,0-1.71,1.2,1.2,0,0,1,.67-.34,2.52,2.52,0,0,0-.53-.74,2.74,2.74,0,1,0,0,3.87,2.85,2.85,0,0,0,.51-.75A1.28,1.28,0,0,1,214.85,146.36Z" transform="translate(-112.35 -73.59)"/><path class="cls-3" d="M236,167.19a1.2,1.2,0,0,1,.66-2,2.56,2.56,0,0,0-.53-.75,2.74,2.74,0,1,0,0,3.88,2.9,2.9,0,0,0,.51-.76A1.15,1.15,0,0,1,236,167.19Z" transform="translate(-112.35 -73.59)"/><path class="cls-3" d="M217.51,162a5.88,5.88,0,0,1-.07-8.31,1,1,0,1,1,1.41,1.38,3.91,3.91,0,0,0,5.57,5.48,1,1,0,0,1,1.39,0,1,1,0,0,1,0,1.4A5.9,5.9,0,0,1,217.51,162Z" transform="translate(-112.35 -73.59)"/><path class="cls-10" d="M230.42,186.7a51.85,51.85,0,0,0,6.3-5.14c-6.86,5-22.07,9.49-31.25,18.22,0,0-12.85,10.28-9.37,26.07a21.89,21.89,0,0,1,2.16-6.61c3.21,24.31,23.06,24.83,23.06,24.83C194.71,232.16,210.71,200.53,230.42,186.7Z" transform="translate(-112.35 -73.59)"/><path class="cls-25" d="M275.7,93.89s7.4-1.57,3.89-9,5.39-2.92,5.93,6-7.3,10.12-7.3,10.12Z" transform="translate(-112.35 -73.59)"/><path class="cls-26" d="M252.11,111s-3.71,6.6-9.81,1-4.39,4.27,4,7.44,11.83-4,11.83-4Z" transform="translate(-112.35 -73.59)"/><path class="cls-25" d="M256.9,150.43s13.83,3.77,24.59-14.59c7-11.89,6.69-37.9-14.75-50.91C247.49,73.25,228,98.18,251.19,114.42,263.57,123.1,273.61,143,256.9,150.43Z" transform="translate(-112.35 -73.59)"/><ellipse class="cls-24" cx="253.87" cy="105.69" rx="2.73" ry="1.2" transform="translate(-115.85 128.95) rotate(-43.22)"/><ellipse class="cls-24" cx="268.15" cy="92.27" rx="2.73" ry="1.2" transform="translate(-102.79 135.08) rotate(-43.22)"/><path class="cls-26" d="M251.19,114.42a32.23,32.23,0,0,1-3.95-3.23c4.31,3.11,13.85,6,19.61,11.44,0,0,8.07,6.45,5.89,16.37a13.85,13.85,0,0,0-1.36-4.16c-2,15.27-14.48,15.59-14.48,15.59C273.61,143,263.57,123.1,251.19,114.42Z" transform="translate(-112.35 -73.59)"/><path class="cls-3" d="M260.55,94.26l-5.66,5.38a.42.42,0,0,1-.58-.62L260,93.65a.42.42,0,0,1,.6,0A.43.43,0,0,1,260.55,94.26Z" transform="translate(-112.35 -73.59)"/><path class="cls-3" d="M247.34,101.67a1.7,1.7,0,0,0,.48,1.19,1.76,1.76,0,0,0,2.6-2.37Z" transform="translate(-112.35 -73.59)"/><path class="cls-3" d="M263.11,86.69a1.76,1.76,0,1,1-1.34,3Z" transform="translate(-112.35 -73.59)"/><polygon class="cls-3" points="143.46 25.06 146.21 26.12 145.32 23.3 143.46 25.06"/><polygon class="cls-3" points="145.32 23.3 148.07 24.36 147.18 21.53 145.32 23.3"/><path class="cls-21" d="M592.48,124.93h.78a0,0,0,0,1,0,0v.78a8,8,0,0,1-8,8h-.78a0,0,0,0,1,0,0V133A8,8,0,0,1,592.48,124.93Z" transform="translate(1065.36 185.08) rotate(180)"/><path class="cls-27" d="M584.45,133.74l8.81-8.81h0A8.8,8.8,0,0,1,584.45,133.74Z" transform="translate(-112.35 -73.59)"/><line class="cls-28" x1="472.1" y1="37.19" x2="472.1" y2="62.9"/><path class="cls-19" d="M584.45,110.78l-2.08-11.67a2.11,2.11,0,1,1,4.15-.74,2,2,0,0,1,0,.74Z" transform="translate(-112.35 -73.59)"/><path class="cls-19" d="M584.45,110.78l2.07,11.67a2.11,2.11,0,0,1-4.15.74,2.3,2.3,0,0,1,0-.74Z" transform="translate(-112.35 -73.59)"/><path class="cls-19" d="M584.45,110.78l-11.67,2.07a2.11,2.11,0,1,1-.74-4.15,2.3,2.3,0,0,1,.74,0Z" transform="translate(-112.35 -73.59)"/><path class="cls-19" d="M584.45,110.78l11.67-2.08a2.11,2.11,0,0,1,.74,4.15,2,2,0,0,1-.74,0Z" transform="translate(-112.35 -73.59)"/><path class="cls-19" d="M584.45,110.78l-7.64-9.07A2.11,2.11,0,0,1,580,99a2.31,2.31,0,0,1,.37.64Z" transform="translate(-112.35 -73.59)"/><path class="cls-19" d="M584.45,110.78l7.63,9.07a2.11,2.11,0,1,1-3.23,2.71,2,2,0,0,1-.36-.64Z" transform="translate(-112.35 -73.59)"/><path class="cls-19" d="M584.45,110.78l-9.07,7.63a2.11,2.11,0,1,1-2.08-3.59Z" transform="translate(-112.35 -73.59)"/><path class="cls-19" d="M584.45,110.78l9.07-7.63a2.1,2.1,0,1,1,2.71,3.22,2.06,2.06,0,0,1-.64.37Z" transform="translate(-112.35 -73.59)"/><path class="cls-19" d="M584.45,110.78l-11.15-4a2.11,2.11,0,0,1,1.44-4,2,2,0,0,1,.64.37Z" transform="translate(-112.35 -73.59)"/><path class="cls-19" d="M584.45,110.78l11.14,4a2.11,2.11,0,1,1-1.43,4,2.24,2.24,0,0,1-.64-.37Z" transform="translate(-112.35 -73.59)"/><path class="cls-19" d="M584.45,110.78l-4,11.14a2.11,2.11,0,1,1-4-1.43,2,2,0,0,1,.36-.64Z" transform="translate(-112.35 -73.59)"/><path class="cls-19" d="M584.45,110.78l4-11.15a2.11,2.11,0,1,1,4,1.44,2.38,2.38,0,0,1-.37.64Z" transform="translate(-112.35 -73.59)"/><rect class="cls-19" x="364.79" y="62.9" width="37.99" height="37.99" rx="3.75"/><rect class="cls-20" x="367.73" y="65.84" width="32.11" height="32.11" rx="3.75"/><text class="cls-29" transform="translate(378.34 90.24)">?</text><rect class="cls-4" x="408.95" y="62.9" width="37.99" height="37.99" rx="3.75"/><rect class="cls-30" x="411.89" y="65.84" width="32.11" height="32.11" rx="3.75"/><rect class="cls-4" x="453.11" y="62.9" width="37.99" height="37.99" rx="3.75"/><rect class="cls-30" x="456.04" y="65.84" width="32.11" height="32.11" rx="3.75"/><circle class="cls-19" cx="427.94" cy="22.83" r="16.05"/><circle class="cls-20" cx="427.94" cy="22.83" r="12.67"/><text class="cls-31" transform="translate(422.05 29.47)">$</text><path class="cls-32" d="M540.29,83.76A12.67,12.67,0,1,0,553,96.43,12.67,12.67,0,0,0,540.29,83.76Zm0,24.36A11.7,11.7,0,1,1,552,96.43,11.69,11.69,0,0,1,540.29,108.12Z" transform="translate(-112.35 -73.59)"/><path class="cls-19" d="M524.24,105.07s.33,1.7.57,4.24c.13,1.28.23,2.76.3,4.35,0,.8.09,1.62.09,2.45s0,1.69,0,2.54,0,1.69,0,2.53-.06,1.65-.08,2.45c-.07,1.59-.18,3.07-.31,4.35-.24,2.54-.57,4.24-.57,4.24s-.34-1.7-.58-4.24c-.13-1.28-.23-2.76-.3-4.35,0-.8-.09-1.62-.09-2.45l0-2.53,0-2.54c0-.83.06-1.65.09-2.45.07-1.59.18-3.07.3-4.35C523.9,106.77,524.24,105.07,524.24,105.07Z" transform="translate(-112.35 -73.59)"/><path class="cls-19" d="M540.29,115.45a17.31,17.31,0,0,1,.57,2.62c.13.78.24,1.7.31,2.68s.12,2,.12,3.08,0,2.1-.12,3.08-.18,1.9-.3,2.69a18.4,18.4,0,0,1-.58,2.62,17.7,17.7,0,0,1-.57-2.62c-.13-.79-.24-1.71-.31-2.69s-.12-2-.12-3.08.05-2.09.12-3.08.18-1.9.31-2.68A19,19,0,0,1,540.29,115.45Z" transform="translate(-112.35 -73.59)"/><path class="cls-19" d="M556.35,105.07s.33,1.7.57,4.24c.13,1.28.23,2.76.3,4.35,0,.8.09,1.62.09,2.45l0,2.54c0,.84,0,1.69,0,2.53s-.06,1.65-.08,2.45c-.07,1.59-.18,3.07-.31,4.35-.24,2.54-.57,4.24-.57,4.24s-.34-1.7-.58-4.24c-.13-1.28-.23-2.76-.3-4.35,0-.8-.09-1.62-.09-2.45l0-2.53,0-2.54c0-.83.06-1.65.09-2.45.07-1.59.18-3.07.3-4.35C556,106.77,556.35,105.07,556.35,105.07Z" transform="translate(-112.35 -73.59)"/><circle class="cls-25" cx="472.1" cy="37.19" r="4.67"/><path class="cls-21" d="M463.28,51.33h.78a8,8,0,0,1,8,8v.78a0,0,0,0,1,0,0h-.78a8,8,0,0,1-8-8v-.78A0,0,0,0,1,463.28,51.33Z"/><path class="cls-27" d="M584.45,133.74l-8.82-8.81h0A8.81,8.81,0,0,0,584.45,133.74Z" transform="translate(-112.35 -73.59)"/><path class="cls-3" d="M444.44,160.78l-5.58-17.59a3.62,3.62,0,0,0-3.44-2.52H405.05a3.62,3.62,0,0,0-3.44,2.52L396,160.78a4.78,4.78,0,0,0,4.48,6.28,4.64,4.64,0,0,0,3.84-2.18l3.89-6.17h24l3.77,6a4.9,4.9,0,0,0,3.65,2.33A4.75,4.75,0,0,0,444.44,160.78Z" transform="translate(-112.35 -73.59)"/><circle class="cls-4" cx="321.59" cy="75.21" r="4.79"/><circle class="cls-4" cx="294.18" cy="75.21" r="4.79"/><polygon class="cls-21" points="297.6 76.08 295.04 76.08 295.04 78.62 293.31 78.62 293.31 76.08 290.77 76.08 290.77 74.35 293.31 74.35 293.31 71.8 295.04 71.8 295.04 74.35 297.6 74.35 297.6 76.08"/><path class="cls-25" d="M433.94,145.43a1.17,1.17,0,1,1-1.16,1.16A1.17,1.17,0,0,1,433.94,145.43Z" transform="translate(-112.35 -73.59)"/><path class="cls-19" d="M431.73,150a1.17,1.17,0,1,1,1.17-1.17A1.16,1.16,0,0,1,431.73,150Z" transform="translate(-112.35 -73.59)"/><path class="cls-23" d="M433.94,152.18a1.17,1.17,0,1,1,1.17-1.17A1.16,1.16,0,0,1,433.94,152.18Z" transform="translate(-112.35 -73.59)"/><path class="cls-21" d="M436.15,150a1.17,1.17,0,1,1,1.17-1.17A1.16,1.16,0,0,1,436.15,150Z" transform="translate(-112.35 -73.59)"/><path class="cls-4" d="M432.24,158.71a7.64,7.64,0,0,0-6.46-3.57H414.7a7.62,7.62,0,0,0-6.46,3.57h24Z" transform="translate(-112.35 -73.59)"/><rect class="cls-25" x="303.56" y="74.8" width="2.56" height="0.82"/><rect class="cls-25" x="309.66" y="74.8" width="2.56" height="0.82"/><path class="cls-4" d="M410.29,139.35h-3.92a1.32,1.32,0,0,0-1.32,1.32h6.56A1.32,1.32,0,0,0,410.29,139.35Z" transform="translate(-112.35 -73.59)"/><path class="cls-4" d="M434.1,139.35h-3.91a1.33,1.33,0,0,0-1.33,1.32h6.56A1.32,1.32,0,0,0,434.1,139.35Z" transform="translate(-112.35 -73.59)"/><path class="cls-8" d="M413.26,155.37c-.61-.18-2,.63-2.59.94-.2.12.06,1.15.47,2.4h4C414.89,158.06,413.79,155.52,413.26,155.37Z" transform="translate(-112.35 -73.59)"/><path class="cls-25" d="M486.72,366.4l6.75-5.55s-15-.9-24.73,9.4c-4,4.21-5.63,7.89-5.91,10.9h0c-4.92,8.73-2.06,12-1.08,11.91,1.3-.11,1.59-4,1.59-4,.86,3.64,2.34,7.43,3.77,6,1.17-1.21.53-6.2.53-6.2,1.08,2.37,1.66,6.4,3.23,6s.93-5.43.93-5.43,1.88,4.92,3.24,2.83c1-1.47.23-4.23-.44-6.06,1,1.47,2.15,2.31,2.8,1.58,3-3.39-2.83-6.32-2.83-6.32a8.74,8.74,0,0,0,0-2C473.52,370.1,486.72,366.4,486.72,366.4Z" transform="translate(-112.35 -73.59)"/><path class="cls-26" d="M472.59,375.08c-1.72,6.57,1.39,12.45-2,12s-5.54-3-7.27,0-2.76,4.29-3.28,1.8c-.22,3,1.09,4.19,1.69,4.14,1.3-.11,1.59-4,1.59-4,.86,3.64,2.34,7.43,3.77,6,1.17-1.21.53-6.2.53-6.2,1.08,2.37,1.66,6.4,3.23,6s.93-5.43.93-5.43,1.88,4.92,3.24,2.83c1-1.47.23-4.23-.44-6.06,1,1.47,2.15,2.31,2.8,1.58,3-3.39-2.83-6.32-2.83-6.32a8.74,8.74,0,0,0,0-2c-1.09-9.43,12.11-13.13,12.11-13.13l.51-.43c-1.54-.94-3.57-1.87-3.57-1.87S474.32,368.51,472.59,375.08Z" transform="translate(-112.35 -73.59)"/><path class="cls-25" d="M486.74,326.89s-4.68,8.63,2.42,17.66l13.38-5.94S498.08,332,486.74,326.89Z" transform="translate(-112.35 -73.59)"/><path class="cls-26" d="M489.21,333.22a9.88,9.88,0,0,0,1.44,10.54l8-3.54S496,336.25,489.21,333.22Z" transform="translate(-112.35 -73.59)"/><path class="cls-25" d="M531.11,326.89c-11.34,5.07-15.8,11.72-15.8,11.72l13.38,5.94C535.79,335.52,531.11,326.89,531.11,326.89Z" transform="translate(-112.35 -73.59)"/><path class="cls-26" d="M528.64,333.22a9.88,9.88,0,0,1-1.44,10.54l-8-3.54S521.87,336.25,528.64,333.22Z" transform="translate(-112.35 -73.59)"/><path class="cls-25" d="M394.1,261h5a25.37,25.37,0,0,1,25.37,25.37V341a0,0,0,0,1,0,0H368.73a0,0,0,0,1,0,0V286.41A25.37,25.37,0,0,1,394.1,261Z"/><path class="cls-25" d="M531.13,366.4l-6.75-5.55s15-.9,24.73,9.4c4,4.21,5.63,7.89,5.91,10.9h0c4.92,8.73,2.06,12,1.08,11.91-1.3-.11-1.59-4-1.59-4-.86,3.64-2.34,7.43-3.77,6-1.17-1.21-.53-6.2-.53-6.2-1.08,2.37-1.66,6.4-3.23,6s-.93-5.43-.93-5.43-1.88,4.92-3.24,2.83c-1-1.47-.23-4.23.44-6.06-1,1.47-2.15,2.31-2.8,1.58-3-3.39,2.83-6.32,2.83-6.32a8.74,8.74,0,0,1,0-2C544.33,370.1,531.13,366.4,531.13,366.4Z" transform="translate(-112.35 -73.59)"/><path class="cls-26" d="M545.26,375.08c1.73,6.57-1.39,12.45,2,12s5.54-3,7.27,0,2.76,4.29,3.28,1.8c.22,3-1.09,4.19-1.69,4.14-1.3-.11-1.59-4-1.59-4-.86,3.64-2.34,7.43-3.77,6-1.17-1.21-.53-6.2-.53-6.2-1.08,2.37-1.66,6.4-3.23,6s-.93-5.43-.93-5.43-1.88,4.92-3.24,2.83c-1-1.47-.23-4.23.44-6.06-1,1.47-2.15,2.31-2.8,1.58-3-3.39,2.83-6.32,2.83-6.32a8.74,8.74,0,0,1,0-2c1.09-9.43-12.11-13.13-12.11-13.13l-.51-.43c1.54-.94,3.57-1.87,3.57-1.87S543.53,368.51,545.26,375.08Z" transform="translate(-112.35 -73.59)"/><path class="cls-26" d="M534.27,414.58h2.5v-52.1a27.85,27.85,0,0,0-20-26.73c4,1.38,15.3,7.76,12.82,35.53-3,33.72-48.46,35.89-48.46,35.89v7.41Z" transform="translate(-112.35 -73.59)"/><ellipse class="cls-24" cx="378.04" cy="295.06" rx="5.16" ry="2.27"/><ellipse class="cls-24" cx="415.12" cy="295.06" rx="5.16" ry="2.27"/><path class="cls-33" d="M524.77,414.58V389.47a15.84,15.84,0,0,0-15.84-15.85h0a15.84,15.84,0,0,0-15.84,15.85v25.11Z" transform="translate(-112.35 -73.59)"/><path class="cls-34" d="M524.46,386.35c-7.45,11.47-21.32,16.67-31.38,19v9.24h31.69V389.47A16,16,0,0,0,524.46,386.35Z" transform="translate(-112.35 -73.59)"/><path class="cls-3" d="M497.22,357.59a1.08,1.08,0,0,1-1.09-1.08,1.13,1.13,0,0,1,.22-.65,2.64,2.64,0,0,0-.81-.14,2.47,2.47,0,1,0,2.47,2.46,2.37,2.37,0,0,0-.15-.8A1.09,1.09,0,0,1,497.22,357.59Z" transform="translate(-112.35 -73.59)"/><path class="cls-3" d="M524,357.59a1.08,1.08,0,0,1-1.08-1.08,1.12,1.12,0,0,1,.21-.65,2.63,2.63,0,0,0-.8-.14,2.47,2.47,0,1,0,2.46,2.46,2.36,2.36,0,0,0-.14-.8A1.1,1.1,0,0,1,524,357.59Z" transform="translate(-112.35 -73.59)"/><path class="cls-3" d="M508.79,365.94a5.29,5.29,0,0,1-5.29-5.29.89.89,0,1,1,1.77,0,3.52,3.52,0,1,0,7,0,.89.89,0,1,1,1.78,0A5.3,5.3,0,0,1,508.79,365.94Z" transform="translate(-112.35 -73.59)"/><path class="cls-19" d="M508.93,349.65l3.77-14.76a29.35,29.35,0,0,0-3.77-.26h0a29.35,29.35,0,0,0-3.77.26Z" transform="translate(-112.35 -73.59)"/><path class="cls-19" d="M533.33,210.09s-4.69,8.64,2.42,17.66l13.38-5.94S544.67,215.16,533.33,210.09Z" transform="translate(-112.35 -73.59)"/><path class="cls-20" d="M535.79,216.43A9.89,9.89,0,0,0,537.24,227l8-3.55S542.56,219.46,535.79,216.43Z" transform="translate(-112.35 -73.59)"/><path class="cls-19" d="M577.69,210.09c-11.34,5.07-15.79,11.72-15.79,11.72l13.37,5.94C582.38,218.73,577.69,210.09,577.69,210.09Z" transform="translate(-112.35 -73.59)"/><path class="cls-20" d="M575.23,216.43A9.89,9.89,0,0,1,573.78,227l-8-3.55S568.46,219.46,575.23,216.43Z" transform="translate(-112.35 -73.59)"/><path class="cls-19" d="M440.69,144.25h5A25.37,25.37,0,0,1,471,169.61v14.67a0,0,0,0,1,0,0H415.32a0,0,0,0,1,0,0V169.61a25.37,25.37,0,0,1,25.37-25.37Z"/><path class="cls-3" d="M543.8,240.8a1.09,1.09,0,0,1-.87-1.73,2.37,2.37,0,0,0-.8-.15,2.48,2.48,0,1,0,2.32,1.66A1,1,0,0,1,543.8,240.8Z" transform="translate(-112.35 -73.59)"/><path class="cls-3" d="M570.57,240.8a1.09,1.09,0,0,1-.87-1.73,2.38,2.38,0,0,0-.81-.15,2.52,2.52,0,1,0,2.32,1.66A1,1,0,0,1,570.57,240.8Z" transform="translate(-112.35 -73.59)"/><path class="cls-3" d="M555.38,243a5.29,5.29,0,0,1,5.29,5.29.89.89,0,1,1-1.77,0,3.52,3.52,0,0,0-7,0,.89.89,0,0,1-1.78,0A5.3,5.3,0,0,1,555.38,243Z" transform="translate(-112.35 -73.59)"/><polygon class="cls-25" points="284.96 184.28 267.77 184.28 265.99 155 286.75 155 284.96 184.28"/><rect class="cls-35" x="264.76" y="155" width="23.22" height="1.98"/><polygon class="cls-26" points="285.6 173.76 286.16 164.62 266.57 164.62 267.13 173.76 285.6 173.76"/><ellipse class="cls-25" cx="424.51" cy="174.62" rx="5.16" ry="2.27"/><ellipse class="cls-25" cx="461.59" cy="174.62" rx="5.16" ry="2.27"/><polygon class="cls-19" points="80.5 22.38 73.23 30.43 89.54 36.33 85.01 41.35 114.5 48.9 94.34 38.97 99.39 33.38 80.5 22.38"/><polygon class="cls-19" points="107.35 15.3 99.3 16.89 106.52 27.84 101.5 28.83 115.95 46.73 108.23 31.6 113.81 30.5 107.35 15.3"/><path class="cls-21" d="M281.9,403.34s-7.95-18.72-26.76-20-32.58,14-32.58,31.38h92.92C314.77,412.9,306.84,394.92,281.9,403.34Z" transform="translate(-112.35 -73.59)"/><g class="cls-22"><path class="cls-3" d="M255.14,383.3a30.29,30.29,0,0,1,3.95.56c-14.32,3-24.1,16.18-24.1,30.82l80.54.13v0l-93-.15C222.56,397.3,236.33,382,255.14,383.3Z" transform="translate(-112.35 -73.59)"/></g><path class="cls-21" d="M422.42,406.43s5.8-13.67,19.54-14.63,23.8,10.22,23.8,22.92H397.89C398.41,413.42,404.2,400.28,422.42,406.43Z" transform="translate(-112.35 -73.59)"/><g class="cls-22"><path class="cls-3" d="M442,391.8a20.17,20.17,0,0,0-2.88.41c10.46,2.2,17.6,11.82,17.6,22.51l-58.83.09v0l67.91-.11C465.76,402,455.7,390.84,442,391.8Z" transform="translate(-112.35 -73.59)"/></g><polygon class="cls-19" points="404.39 14.12 405.6 17.4 408.89 18.62 405.6 19.83 404.39 23.12 403.17 19.83 399.89 18.62 403.17 17.4 404.39 14.12"/><polygon class="cls-19" points="413.92 1.31 414.64 3.26 416.59 3.98 414.64 4.7 413.92 6.64 413.2 4.7 411.26 3.98 413.2 3.26 413.92 1.31"/><polygon class="cls-19" points="399.89 0 401.46 4.24 405.7 5.81 401.46 7.38 399.89 11.63 398.32 7.38 394.08 5.81 398.32 4.24 399.89 0"/><polygon class="cls-19" points="503.13 166.81 501.27 171.82 496.25 173.68 501.27 175.54 503.13 180.56 504.98 175.54 510 173.68 504.98 171.82 503.13 166.81"/><polygon class="cls-19" points="487.54 150.53 486.44 153.5 483.47 154.6 486.44 155.7 487.54 158.67 488.64 155.7 491.61 154.6 488.64 153.5 487.54 150.53"/><polygon class="cls-19" points="512.01 141.22 509.61 147.7 503.13 150.1 509.61 152.5 512.01 158.98 514.41 152.5 520.89 150.1 514.41 147.7 512.01 141.22"/><polygon class="cls-19" points="278.41 55.27 276.56 60.28 271.54 62.14 276.56 64 278.41 69.02 280.27 64 285.29 62.14 280.27 60.28 278.41 55.27"/><polygon class="cls-19" points="286.33 40.01 285.23 42.98 282.26 44.08 285.23 45.18 286.33 48.15 287.43 45.18 290.4 44.08 287.43 42.98 286.33 40.01"/><polygon class="cls-19" points="265.63 33.39 263.23 39.87 256.74 42.27 263.23 44.67 265.63 51.15 268.02 44.67 274.51 42.27 268.02 39.87 265.63 33.39"/><polygon class="cls-19" points="51.62 207.19 49.76 212.21 44.74 214.07 49.76 215.93 51.62 220.94 53.47 215.93 58.49 214.07 53.47 212.21 51.62 207.19"/><polygon class="cls-19" points="36.03 190.92 34.93 193.89 31.96 194.99 34.93 196.09 36.03 199.06 37.13 196.09 40.1 194.99 37.13 193.89 36.03 190.92"/><polygon class="cls-19" points="60.5 181.61 58.1 188.09 51.62 190.49 58.1 192.89 60.5 199.37 62.9 192.89 69.38 190.49 62.9 188.09 60.5 181.61"/></svg>