<svg id="OBJECTS" xmlns="http://www.w3.org/2000/svg" viewBox="0 0 169.83 114.2"><defs><style>.cls-1{fill:#ed6a38;}</style></defs><title>3919436</title><path class="cls-1" d="M326.28,288.94s-10-43.65-10.18-54.47a26.05,26.05,0,0,0-48.58-13H251v-7.84a5.21,5.21,0,0,0-10.42,0v7.84h-16.5a26,26,0,0,0-22.55-13c-14.38,0-23.84,10.41-26,25.94-.15,1-10.2,54.47-10.2,54.47a15.91,15.91,0,0,0-.21,2.6,15.59,15.59,0,0,0,15.62,15.56c5.78,0,8.86-3.36,11.56-8l23.35-38.73,58.8.06,22.92,38.91a15.63,15.63,0,0,0,29.15-7.78A15.91,15.91,0,0,0,326.28,288.94Z" transform="translate(-165.09 -192.9)"/><path d="M207.83,260.41a28.54,28.54,0,1,1,26.58-38.93,2.59,2.59,0,1,1-4.83,1.89,23.35,23.35,0,1,0,1.6,8.5,2.6,2.6,0,0,1,5.19,0A28.57,28.57,0,0,1,207.83,260.41Z" transform="translate(-165.09 -192.9)"/><path d="M288.75,259.46a28.38,28.38,0,0,1-14.36-9,2.6,2.6,0,1,1,3.94-3.38,23.36,23.36,0,1,0-4.55-8.15,2.6,2.6,0,0,1-4.95,1.58,28.54,28.54,0,1,1,19.92,18.93Z" transform="translate(-165.09 -192.9)"/><path d="M293.43,260.41h-83a2.6,2.6,0,1,1,0-5.19h83a2.6,2.6,0,1,1,0,5.19Z" transform="translate(-165.09 -192.9)"/><path d="M272.68,221.5h-41.5a2.6,2.6,0,1,1,0-5.19h41.5a2.6,2.6,0,1,1,0,5.19Z" transform="translate(-165.09 -192.9)"/><path d="M187.08,307.1a18.19,18.19,0,0,1-18.16-18.16,18,18,0,0,1,.26-3,.17.17,0,0,1,0-.07l10.16-51.47a2.59,2.59,0,1,1,5.09,1l-10.15,51.44a12.5,12.5,0,0,0-.17,2.13,13,13,0,0,0,24.2,6.48l22.84-38.92a2.59,2.59,0,0,1,4.48,2.62L202.8,298A18.2,18.2,0,0,1,187.08,307.1Z" transform="translate(-165.09 -192.9)"/><path d="M316.75,307.1A18.21,18.21,0,0,1,301,298l-22.83-38.9a2.59,2.59,0,0,1,4.48-2.62l22.83,38.9a13,13,0,0,0,24.21-6.46,13.6,13.6,0,0,0-.17-2.13L319.4,235.37a2.59,2.59,0,1,1,5.09-1l10.16,51.47s0,.05,0,.07a18,18,0,0,1,.25,3A18.18,18.18,0,0,1,316.75,307.1Z" transform="translate(-165.09 -192.9)"/><path d="M257.12,247.44H246.74a2.6,2.6,0,0,1,0-5.19h10.38a2.6,2.6,0,0,1,0,5.19Z" transform="translate(-165.09 -192.9)"/><path d="M281.35,235.54a5.19,5.19,0,1,1,7.34,0A5.2,5.2,0,0,1,281.35,235.54Zm3.67-3.67Z" transform="translate(-165.09 -192.9)"/><path d="M292.36,246.55a5.19,5.19,0,1,1,7.33,0A5.18,5.18,0,0,1,292.36,246.55Zm3.67-3.68h0Z" transform="translate(-165.09 -192.9)"/><path d="M292.36,224.54a5.19,5.19,0,1,1,7.33,0A5.18,5.18,0,0,1,292.36,224.54Zm3.67-3.68h0Z" transform="translate(-165.09 -192.9)"/><path d="M303.36,235.54a5.19,5.19,0,1,1,7.34,0A5.2,5.2,0,0,1,303.36,235.54Zm3.67-3.67Z" transform="translate(-165.09 -192.9)"/><path d="M257.12,221.5a2.59,2.59,0,0,1-2.6-2.6v-7.84a2.59,2.59,0,0,0-5.18,0v7.84a2.6,2.6,0,1,1-5.19,0v-7.84a7.78,7.78,0,1,1,15.56,0v7.84A2.59,2.59,0,0,1,257.12,221.5Z" transform="translate(-165.09 -192.9)"/><path d="M251.93,208.47a2.61,2.61,0,0,1-2.6-2.6V195.5a2.6,2.6,0,0,1,5.2,0v10.37A2.61,2.61,0,0,1,251.93,208.47Z" transform="translate(-165.09 -192.9)"/><path d="M204.81,236.13h-7.29a3,3,0,0,1-2.14-.89,3,3,0,0,1,2.14-5.16h7.29v-7.29a3,3,0,0,1,5.16-2.14,3,3,0,0,1,.89,2.14v7.29h7.28a3,3,0,1,1,0,6h-7.28v7.28a3,3,0,0,1-3,3,3,3,0,0,1-3-3v-7.28" transform="translate(-165.09 -192.9)"/></svg>